JonovaCondensed-Italic.ufo
<glyph name="exclam" format="2">
  <advance width="552"/>
  <unicode hex="0021"/>
  <guideline x="179" y="0" angle="90"/>
  <outline>
    <contour>
      <point x="376" y="391" type="line" name="hr00"/>
      <point x="461" y="1434" type="line" name="sh01"/>
      <point x="488" y="1464" type="line" name="at01"/>
      <point x="612" y="1464" type="line"/>
      <point x="630" y="1434" type="line"/>
      <point x="437" y="391" type="line"/>
    </contour>
    <contour>
      <point x="284" y="83" type="qcurve" name="dh01"/>
      <point x="284" y="106"/>
      <point x="297" y="147"/>
      <point x="320" y="178"/>
      <point x="351" y="196"/>
      <point x="368" y="196" type="qcurve" name="sv01"/>
      <point x="386" y="196"/>
      <point x="416" y="178"/>
      <point x="440" y="147"/>
      <point x="453" y="106"/>
      <point x="453" y="83" type="qcurve" name="dh02"/>
      <point x="453" y="60"/>
      <point x="440" y="19"/>
      <point x="416" y="-12"/>
      <point x="386" y="-30"/>
      <point x="368" y="-30" type="qcurve" name="ab01"/>
      <point x="351" y="-30"/>
      <point x="320" y="-12"/>
      <point x="297" y="19"/>
      <point x="284" y="60"/>
    </contour>
  </outline>
</glyph>
<glyph name="sign:quotedbl" format="2">
  <advance width="552"/>
  <unicode hex="0022"/>
  <guideline x="0" y="860" angle="0"/>
  <guideline x="0" y="963" angle="0"/>
  <guideline x="180" y="0" angle="90"/>
  <guideline x="119" y="0" angle="90"/>
  <outline>
    <contour>
      <point x="242" y="901" type="line" name="av01"/>
      <point x="268" y="1434" type="line"/>
      <point x="295" y="1464" type="line" name="at01"/>
      <point x="401" y="1464" type="line"/>
      <point x="419" y="1434" type="line"/>
      <point x="304" y="901" type="line"/>
    </contour>
    <contour>
      <point x="485" y="901" type="line" name="av02"/>
      <point x="511" y="1434" type="line"/>
      <point x="538" y="1464" type="line" name="at02"/>
      <point x="644" y="1464" type="line"/>
      <point x="662" y="1434" type="line"/>
      <point x="547" y="901" type="line"/>
    </contour>
  </outline>
</glyph>
<glyph name="percent" format="2">
  <advance width="1200"/>
  <unicode hex="0025"/>
  <guideline x="0" y="1690" angle="350"/>
  <guideline x="151" y="0" angle="90"/>
  <guideline x="1054" y="0" angle="90"/>
  <guideline x="281" y="0" angle="55"/>
  <outline>
    <contour>
      <point x="1223" y="1434" type="line" name="at02"/>
      <point x="260" y="-30" type="line" name="ab01"/>
      <point x="167" y="0" type="line" name="ab02"/>
      <point x="1130" y="1464" type="line" name="at01"/>
    </contour>
    <contour>
      <point x="476" y="1434" type="qcurve" name="at03"/>
      <point x="511" y="1434"/>
      <point x="574" y="1402"/>
      <point x="620" y="1336"/>
      <point x="648" y="1236"/>
      <point x="648" y="1167" type="qcurve" name="dh04"/>
      <point x="648" y="1065"/>
      <point x="601" y="894"/>
      <point x="525" y="771" name="hr00"/>
      <point x="429" y="702"/>
      <point x="380" y="702" type="qcurve" name="dv03"/>
      <point x="346" y="702"/>
      <point x="284" y="734"/>
      <point x="237" y="800"/>
      <point x="209" y="900"/>
      <point x="209" y="968" type="qcurve" name="dh01"/>
      <point x="209" y="1070"/>
      <point x="257" y="1241"/>
      <point x="332" y="1365"/>
      <point x="428" y="1434"/>
    </contour>
    <contour>
      <point x="466" y="1352" type="qcurve" name="sv01"/>
      <point x="430" y="1352"/>
      <point x="369" y="1285"/>
      <point x="326" y="1172"/>
      <point x="301" y="1025"/>
      <point x="301" y="946" type="qcurve" name="dh02"/>
      <point x="301" y="901"/>
      <point x="313" y="839"/>
      <point x="336" y="801"/>
      <point x="370" y="784"/>
      <point x="391" y="784" type="qcurve" name="dv04"/>
      <point x="426" y="784"/>
      <point x="487" y="850"/>
      <point x="531" y="962"/>
      <point x="557" y="1108"/>
      <point x="557" y="1188" type="qcurve" name="dh03"/>
      <point x="557" y="1234"/>
      <point x="544" y="1296"/>
      <point x="520" y="1335"/>
      <point x="487" y="1352"/>
    </contour>
    <contour>
      <point x="1009" y="732" type="qcurve" name="dv02"/>
      <point x="1043" y="732"/>
      <point x="1105" y="700"/>
      <point x="1152" y="634"/>
      <point x="1180" y="534"/>
      <point x="1180" y="466" type="qcurve" name="dh08"/>
      <point x="1180" y="364"/>
      <point x="1133" y="193"/>
      <point x="1057" y="69"/>
      <point x="961" y="0"/>
      <point x="912" y="0" type="qcurve" name="ab03"/>
      <point x="878" y="0"/>
      <point x="816" y="32"/>
      <point x="769" y="98"/>
      <point x="741" y="198"/>
      <point x="741" y="266" type="qcurve" name="dh05"/>
      <point x="741" y="368"/>
      <point x="788" y="539"/>
      <point x="864" y="663"/>
      <point x="960" y="732"/>
    </contour>
    <contour>
      <point x="998" y="650" type="qcurve" name="dv01"/>
      <point x="962" y="650"/>
      <point x="902" y="583"/>
      <point x="857" y="471"/>
      <point x="833" y="324"/>
      <point x="833" y="245" type="qcurve" name="dh06"/>
      <point x="833" y="200"/>
      <point x="845" y="137"/>
      <point x="869" y="99"/>
      <point x="902" y="82"/>
      <point x="923" y="82" type="qcurve" name="sv02"/>
      <point x="959" y="82"/>
      <point x="1019" y="149"/>
      <point x="1064" y="261"/>
      <point x="1088" y="407"/>
      <point x="1088" y="487" type="qcurve" name="dh07"/>
      <point x="1088" y="532"/>
      <point x="1076" y="595"/>
      <point x="1052" y="633"/>
      <point x="1019" y="650"/>
    </contour>
  </outline>
</glyph>
<glyph name="ampersand" format="2">
  <advance width="936"/>
  <unicode hex="0026"/>
  <guideline x="0" y="759" angle="350"/>
  <guideline x="866" y="0" angle="120"/>
  <guideline x="829" y="0" angle="90"/>
  <outline>
    <contour>
      <point x="572" y="968" type="qcurve" name="ih01"/>
      <point x="620" y="1005"/>
      <point x="685" y="1060"/>
      <point x="725" y="1114"/>
      <point x="743" y="1177"/>
      <point x="743" y="1222" type="qcurve" name="dh05"/>
      <point x="743" y="1243"/>
      <point x="734" y="1283"/>
      <point x="713" y="1314"/>
      <point x="680" y="1332"/>
      <point x="656" y="1332" type="qcurve" name="sv01"/>
      <point x="638" y="1332"/>
      <point x="596" y="1307"/>
      <point x="560" y="1260"/>
      <point x="537" y="1192"/>
      <point x="537" y="1150" type="qcurve" name="dh04"/>
      <point x="537" y="1129"/>
      <point x="544" y="1080"/>
      <point x="554" y="1031"/>
      <point x="566" y="985"/>
    </contour>
    <contour>
      <point x="494" y="749" type="line" name="ih02"/>
      <point x="438" y="702"/>
      <point x="353" y="607"/>
      <point x="296" y="502"/>
      <point x="266" y="382"/>
      <point x="266" y="309" type="qcurve" name="dh02"/>
      <point x="266" y="249"/>
      <point x="292" y="160"/>
      <point x="335" y="101"/>
      <point x="391" y="72"/>
      <point x="422" y="72" type="qcurve" name="sv02"/>
      <point x="453" y="72"/>
      <point x="513" y="83"/>
      <point x="572" y="111"/>
      <point x="631" y="160"/>
      <point x="660" y="198" type="qcurve"/>
    </contour>
    <contour>
      <point x="731" y="-30" type="line" name="ab01"/>
      <point x="681" y="125" type="line" name="ih03"/>
      <point x="652" y="92"/>
      <point x="587" y="36"/>
      <point x="515" y="-6"/>
      <point x="434" y="-30"/>
      <point x="391" y="-30" type="qcurve" name="ab02"/>
      <point x="335" y="-30"/>
      <point x="242" y="20"/>
      <point x="175" y="110"/>
      <point x="137" y="235"/>
      <point x="137" y="310" type="qcurve" name="dh01"/>
      <point x="137" y="402"/>
      <point x="185" y="566"/>
      <point x="270" y="708"/>
      <point x="386" y="827"/>
      <point x="454" y="875" type="qcurve"/>
      <point x="455" y="885" type="line"/>
      <point x="444" y="919"/>
      <point x="429" y="974"/>
      <point x="420" y="1020"/>
      <point x="416" y="1061"/>
      <point x="416" y="1081" type="qcurve" name="dh03"/>
      <point x="416" y="1143"/>
      <point x="448" y="1269"/>
      <point x="512" y="1370"/>
      <point x="608" y="1434"/>
      <point x="671" y="1434" type="qcurve" name="at01"/>
      <point x="717" y="1434"/>
      <point x="787" y="1398"/>
      <point x="833" y="1340"/>
      <point x="857" y="1264"/>
      <point x="857" y="1224" type="qcurve" name="dh06"/>
      <point x="857" y="1155"/>
      <point x="822" y="1053"/>
      <point x="758" y="968"/>
      <point x="669" y="890"/>
      <point x="616" y="845" type="qcurve"/>
      <point x="615" y="835" type="line"/>
      <point x="764" y="343" type="line" name="ih04"/>
      <point x="787" y="388"/>
      <point x="815" y="503"/>
      <point x="826" y="584" type="qcurve"/>
      <point x="921" y="559" type="line"/>
      <point x="910" y="526"/>
      <point x="875" y="441"/>
      <point x="836" y="358"/>
      <point x="798" y="287"/>
      <point x="785" y="268" type="qcurve"/>
      <point x="866" y="0" type="line"/>
    </contour>
  </outline>
</glyph>
<glyph name="sign:quotesingle" format="2">
  <advance width="432"/>
  <unicode hex="0027"/>
  <guideline x="1367" y="0" angle="135"/>
  <outline>
    <contour>
      <point x="304" y="901" type="line" name="av01"/>
      <point x="329" y="1434" type="line"/>
      <point x="356" y="1464" type="line" name="at01"/>
      <point x="463" y="1464" type="line"/>
      <point x="481" y="1434" type="line"/>
      <point x="365" y="901" type="line"/>
    </contour>
  </outline>
</glyph>
<glyph name="parenleft" format="2">
  <advance width="552"/>
  <unicode hex="0028"/>
  <guideline x="0" y="1332" angle="0"/>
  <guideline x="510" y="0" angle="90"/>
  <guideline x="493" y="0" angle="80"/>
  <guideline x="685" y="0" angle="100"/>
  <outline>
    <contour>
      <point x="684" y="1464" type="line" name="hr00"/>
      <point x="587" y="1372"/>
      <point x="434" y="1117"/>
      <point x="329" y="821"/>
      <point x="273" y="498"/>
      <point x="273" y="338" type="qcurve" name="dh02"/>
      <point x="273" y="142"/>
      <point x="365" y="-164"/>
      <point x="453" y="-278" type="qcurve"/>
      <point x="425" y="-384" type="line" name="av01"/>
      <point x="294" y="-256"/>
      <point x="159" y="100"/>
      <point x="159" y="339" type="qcurve" name="dh01"/>
      <point x="159" y="534"/>
      <point x="232" y="901"/>
      <point x="368" y="1221"/>
      <point x="561" y="1482"/>
      <point x="683" y="1570" type="qcurve" name="av02"/>
    </contour>
  </outline>
</glyph>
<glyph name="sign:parenright" format="2">
  <advance width="552"/>
  <unicode hex="0029"/>
  <outline>
    <contour>
      <point x="284" y="1570" type="line" name="av01"/>
      <point x="414" y="1442"/>
      <point x="549" y="1084"/>
      <point x="549" y="846" type="qcurve" name="dh02"/>
      <point x="549" y="651"/>
      <point x="476" y="284"/>
      <point x="341" y="-36"/>
      <point x="146" y="-296"/>
      <point x="26" y="-384" type="qcurve" name="av02"/>
      <point x="26" y="-278" type="line"/>
      <point x="118" y="-195"/>
      <point x="269" y="47"/>
      <point x="375" y="336"/>
      <point x="433" y="660"/>
      <point x="433" y="826" type="qcurve" name="dh01"/>
      <point x="433" y="1018"/>
      <point x="344" y="1349"/>
      <point x="255" y="1464" type="qcurve"/>
    </contour>
  </outline>
</glyph>
<glyph name="sign:comma" format="2">
  <advance width="432"/>
  <unicode hex="002C"/>
  <guideline x="-206" y="0" angle="135"/>
  <guideline x="98" y="0" angle="45"/>
  <outline>
    <contour>
      <point x="157" y="79" type="line" name="hr00"/>
      <point x="260" y="216" type="line" name="av01"/>
      <point x="275" y="216" type="line"/>
      <point x="293" y="187"/>
      <point x="319" y="72"/>
      <point x="319" y="6" type="qcurve" name="dh02"/>
      <point x="319" y="-64"/>
      <point x="282" y="-184"/>
      <point x="220" y="-284"/>
      <point x="138" y="-367"/>
      <point x="93" y="-400" type="qcurve" name="av02"/>
      <point x="38" y="-327" type="line"/>
      <point x="62" y="-303"/>
      <point x="113" y="-245"/>
      <point x="155" y="-176"/>
      <point x="182" y="-97"/>
      <point x="182" y="-52" type="qcurve" name="dh01"/>
      <point x="182" y="-20"/>
      <point x="167" y="41"/>
      <point x="157" y="59" type="qcurve"/>
    </contour>
  </outline>
</glyph>
<glyph name="sign:period" format="2">
  <advance width="432"/>
  <unicode hex="002E"/>
  <outline>
    <contour>
      <point x="149" y="93" type="qcurve" name="dh01"/>
      <point x="149" y="118"/>
      <point x="163" y="163"/>
      <point x="188" y="197"/>
      <point x="221" y="216"/>
      <point x="241" y="216" type="qcurve" name="sv01"/>
      <point x="260" y="216"/>
      <point x="293" y="197"/>
      <point x="318" y="163"/>
      <point x="333" y="118"/>
      <point x="333" y="93" type="qcurve" name="dh02"/>
      <point x="333" y="68"/>
      <point x="318" y="23"/>
      <point x="293" y="-10"/>
      <point x="260" y="-30"/>
      <point x="241" y="-30" type="qcurve" name="ab01"/>
      <point x="221" y="-30"/>
      <point x="188" y="-10"/>
      <point x="163" y="23"/>
      <point x="149" y="68"/>
    </contour>
  </outline>
</glyph>
<glyph name="digit:zero" format="2">
  <advance width="840"/>
  <unicode hex="0030"/>
  <guideline x="0" y="881" angle="0"/>
  <guideline x="0" y="573" angle="0"/>
  <guideline x="385" y="0" angle="90"/>
  <outline>
    <contour>
      <point x="614" y="1464" type="qcurve" name="at01"/>
      <point x="678" y="1464"/>
      <point x="783" y="1403"/>
      <point x="857" y="1280"/>
      <point x="897" y="1095"/>
      <point x="897" y="971" type="qcurve" name="sh01"/>
      <point x="897" y="839"/>
      <point x="863" y="588"/>
      <point x="801" y="366"/>
      <point x="714" y="180"/>
      <point x="607" y="45"/>
      <point x="483" y="-30"/>
      <point x="416" y="-30" type="qcurve" name="ab01"/>
      <point x="350" y="-30"/>
      <point x="246" y="31"/>
      <point x="172" y="154"/>
      <point x="132" y="339"/>
      <point x="132" y="462" type="qcurve" name="sh02"/>
      <point x="132" y="593"/>
      <point x="166" y="844"/>
      <point x="227" y="1067"/>
      <point x="315" y="1254"/>
      <point x="422" y="1389"/>
      <point x="546" y="1464"/>
    </contour>
    <contour>
      <point x="600" y="1362" type="qcurve" name="sv01"/>
      <point x="551" y="1362"/>
      <point x="462" y="1282"/>
      <point x="387" y="1146"/>
      <point x="326" y="964"/>
      <point x="284" y="759"/>
      <point x="261" y="542"/>
      <point x="261" y="440" type="qcurve" name="sh03"/>
      <point x="261" y="254"/>
      <point x="347" y="72"/>
      <point x="429" y="72" type="qcurve" name="sv02"/>
      <point x="478" y="72"/>
      <point x="566" y="152"/>
      <point x="641" y="288"/>
      <point x="702" y="470"/>
      <point x="745" y="675"/>
      <point x="768" y="891"/>
      <point x="768" y="993" type="qcurve" name="ah01"/>
      <point x="768" y="1178"/>
      <point x="681" y="1362"/>
    </contour>
  </outline>
</glyph>
<glyph name="digit:two" format="2">
  <advance width="840"/>
  <unicode hex="0032"/>
  <guideline x="0" y="1759" angle="315"/>
  <guideline x="80" y="0" angle="79.91"/>
  <guideline x="-263" y="0" angle="90"/>
  <guideline x="737" y="0" angle="80"/>
  <guideline x="757" y="0" angle="90"/>
  <outline>
    <contour>
      <point x="338" y="1309" type="line" name="hr00"/>
      <point x="362" y="1337"/>
      <point x="427" y="1393"/>
      <point x="503" y="1437"/>
      <point x="588" y="1464"/>
      <point x="632" y="1464" type="qcurve" name="at01"/>
      <point x="685" y="1464"/>
      <point x="775" y="1428"/>
      <point x="841" y="1355"/>
      <point x="878" y="1245"/>
      <point x="878" y="1171" type="qcurve" name="dh02"/>
      <point x="878" y="1090"/>
      <point x="841" y="940"/>
      <point x="770" y="791"/>
      <point x="668" y="634"/>
      <point x="540" y="458"/>
      <point x="386" y="254"/>
      <point x="299" y="132" type="qcurve"/>
      <point x="298" y="122" type="line" name="sv01"/>
      <point x="756" y="142" type="line" name="sh01"/>
      <point x="737" y="0" type="line" name="ab01"/>
      <point x="115" y="0" type="line"/>
      <point x="117" y="20" type="line"/>
      <point x="232" y="190"/>
      <point x="416" y="451"/>
      <point x="558" y="655"/>
      <point x="660" y="815"/>
      <point x="726" y="955"/>
      <point x="757" y="1087"/>
      <point x="757" y="1161" type="qcurve" name="dh01"/>
      <point x="757" y="1206"/>
      <point x="738" y="1280"/>
      <point x="703" y="1333"/>
      <point x="651" y="1362"/>
      <point x="619" y="1362" type="qcurve" name="sv02"/>
      <point x="565" y="1362"/>
      <point x="467" y="1279"/>
      <point x="414" y="1207" type="qcurve" name="iv01"/>
    </contour>
  </outline>
</glyph>
<glyph name="digit:three" format="2">
  <advance width="840"/>
  <unicode hex="0033"/>
  <guideline x="0" y="261" angle="0"/>
  <guideline x="0" y="1729" angle="315"/>
  <guideline x="0" y="-27" angle="45"/>
  <guideline x="74" y="0" angle="90"/>
  <guideline x="293" y="0" angle="80"/>
  <outline>
    <contour>
      <point x="315" y="1309" type="line" name="hr00"/>
      <point x="332" y="1330"/>
      <point x="389" y="1384"/>
      <point x="462" y="1431"/>
      <point x="550" y="1464"/>
      <point x="599" y="1464" type="qcurve" name="at01"/>
      <point x="650" y="1464"/>
      <point x="733" y="1423" name="hr01"/>
      <point x="791" y="1352"/>
      <point x="822" y="1255"/>
      <point x="822" y="1199" type="qcurve"/>
      <point x="822" y="1152"/>
      <point x="801" y="1065"/>
      <point x="767" y="990"/>
      <point x="721" y="927"/>
      <point x="673" y="880"/>
      <point x="625" y="850"/>
      <point x="605" y="845" type="qcurve"/>
      <point x="604" y="835" type="line"/>
      <point x="619" y="830"/>
      <point x="660" y="808"/>
      <point x="704" y="772"/>
      <point x="747" y="720"/>
      <point x="780" y="648"/>
      <point x="801" y="556"/>
      <point x="801" y="499" type="qcurve" name="dh02"/>
      <point x="801" y="390"/>
      <point x="740" y="198"/>
      <point x="630" y="54"/>
      <point x="475" y="-30"/>
      <point x="380" y="-30" type="qcurve" name="ab01"/>
      <point x="329" y="-30"/>
      <point x="246" y="-5"/>
      <point x="181" y="38"/>
      <point x="132" y="94"/>
      <point x="114" y="125" type="qcurve"/>
      <point x="191" y="227" type="line" name="iv01"/>
      <point x="203" y="195"/>
      <point x="242" y="139"/>
      <point x="296" y="97"/>
      <point x="359" y="72"/>
      <point x="394" y="72" type="qcurve" name="sv01"/>
      <point x="449" y="72"/>
      <point x="549" y="142"/>
      <point x="626" y="259"/>
      <point x="672" y="411"/>
      <point x="672" y="493" type="qcurve" name="dh01"/>
      <point x="672" y="554"/>
      <point x="644" y="659"/>
      <point x="589" y="734"/>
      <point x="506" y="777"/>
      <point x="452" y="777" type="qcurve" name="dv01"/>
      <point x="398" y="777" type="line"/>
      <point x="411" y="879" type="line"/>
      <point x="473" y="879" type="line" name="dv02"/>
      <point x="511" y="879"/>
      <point x="591" y="927"/>
      <point x="658" y="1011"/>
      <point x="701" y="1126"/>
      <point x="701" y="1194" type="qcurve" name="sh01"/>
      <point x="701" y="1230"/>
      <point x="686" y="1291"/>
      <point x="656" y="1336"/>
      <point x="613" y="1362"/>
      <point x="584" y="1362" type="qcurve" name="sv02"/>
      <point x="553" y="1362"/>
      <point x="498" y="1334"/>
      <point x="450" y="1290"/>
      <point x="410" y="1235"/>
      <point x="392" y="1207" type="qcurve" name="iv02"/>
    </contour>
  </outline>
</glyph>
<glyph name="digit:four" format="2">
  <advance width="840"/>
  <unicode hex="0034"/>
  <guideline x="0" y="1558" angle="350"/>
  <guideline x="0" y="470" angle="2.04"/>
  <guideline x="717" y="0" angle="90"/>
  <guideline x="819" y="0" angle="100"/>
  <guideline x="756" y="0" angle="80"/>
  <outline>
    <contour>
      <point x="701" y="1434" type="line" name="at01"/>
      <point x="723" y="1434" type="line"/>
      <point x="819" y="1410" type="line" name="iv01"/>
      <point x="268" y="481" type="line" name="iv02"/>
      <point x="577" y="496" type="line"/>
      <point x="599" y="667" type="line"/>
      <point x="704" y="707" type="line"/>
      <point x="726" y="707" type="line"/>
      <point x="699" y="502" type="line"/>
      <point x="824" y="508" type="line"/>
      <point x="804" y="365" type="line"/>
      <point x="681" y="365" type="line"/>
      <point x="633" y="0" type="line" name="ab01"/>
      <point x="512" y="0" type="line"/>
      <point x="560" y="365" type="line"/>
      <point x="111" y="365" type="line"/>
      <point x="113" y="385" type="line"/>
    </contour>
  </outline>
</glyph>
<glyph name="digit:seven" format="2">
  <advance width="840"/>
  <unicode hex="0037"/>
  <guideline x="0" y="806" angle="3"/>
  <guideline x="160" y="0" angle="65"/>
  <guideline x="109" y="0" angle="80"/>
  <guideline x="315" y="0" angle="100"/>
  <outline>
    <contour>
      <point x="299" y="1434" type="line" name="at01"/>
      <point x="930" y="1434" type="line"/>
      <point x="928" y="1414" type="line"/>
      <point x="314" y="-30" type="line" name="ab01"/>
      <point x="193" y="0" type="line"/>
      <point x="779" y="1302" type="line"/>
      <point x="781" y="1312" type="line" name="sv01"/>
      <point x="280" y="1292" type="line" name="sv02"/>
    </contour>
  </outline>
</glyph>
<glyph name="digit:eight" format="2">
  <advance width="840"/>
  <unicode hex="0038"/>
  <guideline x="0" y="1261" angle="325"/>
  <guideline x="0" y="1142" angle="325"/>
  <guideline x="0" y="477" angle="35"/>
  <guideline x="0" y="356" angle="35"/>
  <guideline x="0" y="1129" angle="0"/>
  <guideline x="419" y="0" angle="90"/>
  <outline>
    <contour>
      <point x="613" y="1464" type="qcurve" name="at01"/>
      <point x="665" y="1464"/>
      <point x="747" y="1417"/>
      <point x="805" y="1339"/>
      <point x="835" y="1238"/>
      <point x="835" y="1183" type="qcurve"/>
      <point x="835" y="1073" name="hr00"/>
      <point x="749" y="892"/>
      <point x="676" y="834" type="qcurve"/>
      <point x="674" y="824" type="line"/>
      <point x="714" y="796"/>
      <point x="770" y="728"/>
      <point x="803" y="650"/>
      <point x="818" y="561"/>
      <point x="818" y="513" type="qcurve" name="dh06"/>
      <point x="818" y="447"/>
      <point x="794" y="316"/>
      <point x="746" y="195"/>
      <point x="677" y="91"/>
      <point x="587" y="14"/>
      <point x="478" y="-30"/>
      <point x="415" y="-30" type="qcurve" name="ab01"/>
      <point x="344" y="-30"/>
      <point x="237" y="30"/>
      <point x="167" y="131"/>
      <point x="131" y="262"/>
      <point x="131" y="333" type="qcurve" name="dh01"/>
      <point x="131" y="488"/>
      <point x="256" y="743"/>
      <point x="380" y="824" type="qcurve"/>
      <point x="382" y="834" type="line"/>
      <point x="339" y="874"/>
      <point x="300" y="985"/>
      <point x="300" y="1054" type="qcurve" name="dh03"/>
      <point x="300" y="1129"/>
      <point x="347" y="1275"/>
      <point x="429" y="1392"/>
      <point x="544" y="1464"/>
    </contour>
    <contour>
      <point x="599" y="1362" type="qcurve" name="sv01"/>
      <point x="561" y="1362"/>
      <point x="496" y="1307"/>
      <point x="449" y="1220"/>
      <point x="422" y="1110"/>
      <point x="422" y="1055" type="qcurve" name="dh04"/>
      <point x="422" y="1016"/>
      <point x="436" y="948"/>
      <point x="464" y="898"/>
      <point x="506" y="869"/>
      <point x="534" y="869" type="qcurve" name="dv02"/>
      <point x="572" y="869"/>
      <point x="638" y="923"/>
      <point x="686" y="1009"/>
      <point x="713" y="1118"/>
      <point x="713" y="1173" type="qcurve" name="sh01"/>
      <point x="713" y="1212"/>
      <point x="698" y="1281"/>
      <point x="669" y="1332"/>
      <point x="626" y="1362"/>
    </contour>
    <contour>
      <point x="521" y="767" type="qcurve" name="dv01"/>
      <point x="467" y="767"/>
      <point x="372" y="693"/>
      <point x="302" y="574"/>
      <point x="260" y="422"/>
      <point x="260" y="344" type="qcurve" name="dh02"/>
      <point x="260" y="287"/>
      <point x="283" y="188"/>
      <point x="326" y="114"/>
      <point x="389" y="72"/>
      <point x="428" y="72" type="qcurve" name="sv02"/>
      <point x="482" y="72"/>
      <point x="577" y="147"/>
      <point x="648" y="268"/>
      <point x="689" y="421"/>
      <point x="689" y="499" type="qcurve" name="dh05"/>
      <point x="689" y="556"/>
      <point x="667" y="654"/>
      <point x="623" y="726"/>
      <point x="561" y="767"/>
    </contour>
  </outline>
</glyph>
<glyph name="digit:nine" format="2">
  <advance width="840"/>
  <unicode hex="0039"/>
  <guideline x="0" y="187" angle="25"/>
  <guideline x="148" y="0" angle="80"/>
  <outline>
    <contour>
      <point x="158" y="72" type="line" name="sv01"/>
      <point x="269" y="72"/>
      <point x="461" y="170"/>
      <point x="613" y="353"/>
      <point x="718" y="612"/>
      <point x="743" y="773" type="qcurve" name="sh01"/>
      <point x="735" y="773" type="line"/>
      <point x="710" y="722"/>
      <point x="644" y="650"/>
      <point x="572" y="605"/>
      <point x="503" y="585"/>
      <point x="474" y="585" type="qcurve" name="dv01"/>
      <point x="411" y="585"/>
      <point x="311" y="634"/>
      <point x="242" y="724"/>
      <point x="205" y="851"/>
      <point x="205" y="928" type="qcurve" name="sh02"/>
      <point x="205" y="1046"/>
      <point x="267" y="1243"/>
      <point x="374" y="1385"/>
      <point x="517" y="1464"/>
      <point x="598" y="1464" type="qcurve" name="at01"/>
      <point x="654" y="1464"/>
      <point x="757" y="1409"/>
      <point x="836" y="1295"/>
      <point x="883" y="1121"/>
      <point x="883" y="1002" type="qcurve" name="sh03"/>
      <point x="883" y="876"/>
      <point x="841" y="625"/>
      <point x="758" y="395"/>
      <point x="636" y="198"/>
      <point x="476" y="53"/>
      <point x="276" y="-30"/>
      <point x="144" y="-30" type="qcurve" name="ab01"/>
    </contour>
    <contour>
      <point x="488" y="687" type="qcurve" name="dv02"/>
      <point x="554" y="687"/>
      <point x="654" y="765"/>
      <point x="721" y="886"/>
      <point x="754" y="1034"/>
      <point x="754" y="1105" type="qcurve" name="ah01"/>
      <point x="754" y="1226"/>
      <point x="668" y="1362"/>
      <point x="584" y="1362" type="qcurve" name="sv02"/>
      <point x="533" y="1362"/>
      <point x="443" y="1289"/>
      <point x="374" y="1168"/>
      <point x="334" y="1011"/>
      <point x="334" y="927" type="qcurve" name="sh04"/>
      <point x="334" y="874"/>
      <point x="353" y="786"/>
      <point x="391" y="722"/>
      <point x="449" y="687"/>
    </contour>
  </outline>
</glyph>
<glyph name="sign:semicolon" format="2">
  <advance width="432"/>
  <unicode hex="003B"/>
  <guideline x="-174" y="0" angle="135"/>
  <outline>
    <contour>
      <point x="155" y="79" type="line" name="hr00"/>
      <point x="258" y="216" type="line"/>
      <point x="274" y="216" type="line"/>
      <point x="292" y="186"/>
      <point x="317" y="73"/>
      <point x="317" y="6" type="qcurve" name="dh02"/>
      <point x="317" y="-64" name="hr01"/>
      <point x="281" y="-184"/>
      <point x="218" y="-284"/>
      <point x="137" y="-367"/>
      <point x="92" y="-400" type="qcurve" name="av01"/>
      <point x="37" y="-327" type="line"/>
      <point x="61" y="-303"/>
      <point x="112" y="-245"/>
      <point x="154" y="-176"/>
      <point x="181" y="-97"/>
      <point x="181" y="-52" type="qcurve" name="dh01"/>
      <point x="181" y="-20"/>
      <point x="163" y="41"/>
      <point x="152" y="59" type="qcurve"/>
    </contour>
    <contour>
      <point x="262" y="881" type="qcurve" name="ih01"/>
      <point x="262" y="906"/>
      <point x="276" y="951"/>
      <point x="302" y="984"/>
      <point x="335" y="1004"/>
      <point x="354" y="1004" type="qcurve" name="at01"/>
      <point x="373" y="1004"/>
      <point x="407" y="984"/>
      <point x="431" y="951"/>
      <point x="446" y="906"/>
      <point x="446" y="881" type="qcurve" name="sh01"/>
      <point x="446" y="855"/>
      <point x="431" y="811"/>
      <point x="407" y="777"/>
      <point x="373" y="758"/>
      <point x="354" y="758" type="qcurve" name="sv01"/>
      <point x="335" y="758"/>
      <point x="302" y="777"/>
      <point x="276" y="811"/>
      <point x="262" y="855"/>
    </contour>
  </outline>
</glyph>
<glyph name="math:equal" format="2">
  <advance width="864"/>
  <unicode hex="003D"/>
  <guideline x="452" y="0" angle="90"/>
  <outline>
    <contour>
      <point x="868" y="748" type="line" name="dv04"/>
      <point x="852" y="626" type="line" name="dv03"/>
      <point x="177" y="626" type="line"/>
      <point x="193" y="748" type="line"/>
    </contour>
    <contour>
      <point x="815" y="350" type="line" name="dv02"/>
      <point x="800" y="228" type="line" name="dv01"/>
      <point x="125" y="228" type="line"/>
      <point x="140" y="350" type="line"/>
    </contour>
  </outline>
</glyph>
<glyph name="math:greater" format="2">
  <advance width="864"/>
  <unicode hex="003E"/>
  <guideline x="0" y="1114" angle="330"/>
  <guideline x="0" y="-137" angle="30"/>
  <guideline x="0" y="1377" angle="0"/>
  <guideline x="0" y="714" angle="0"/>
  <outline>
    <contour>
      <point x="679" y="498" type="line" name="hr00"/>
      <point x="238" y="876" type="line"/>
      <point x="272" y="1004" type="line" name="at01"/>
      <point x="813" y="538" type="line"/>
      <point x="800" y="436" type="line"/>
      <point x="134" y="-30" type="line" name="ab01"/>
      <point x="134" y="98" type="line"/>
      <point x="677" y="478" type="line"/>
    </contour>
  </outline>
</glyph>
<glyph name="A" format="2">
  <advance width="1008"/>
  <unicode hex="0041"/>
  <guideline x="47" y="0" angle="60"/>
  <guideline x="143" y="0" angle="60"/>
  <guideline x="948" y="0" angle="102"/>
  <guideline x="788" y="0" angle="102"/>
  <anchor x="400" y="0" name="AccentBelow"/>
  <anchor x="500" y="1600" name="AccentDefault"/>
  <anchor x="400" y="712" name="AccentMiddle"/>
  <anchor x="550" y="0" name="AccentOgonek"/>
  <outline>
    <contour>
      <point x="794" y="-30" type="line" name="ab01"/>
      <point x="731" y="365" type="line" name="dv01"/>
      <point x="302" y="365" type="line"/>
      <point x="130" y="-30" type="line" name="ab02"/>
      <point x="44" y="0" type="line"/>
      <point x="681" y="1464" type="line" name="at01"/>
      <point x="714" y="1464" type="line"/>
      <point x="948" y="0" type="line"/>
    </contour>
    <contour>
      <point x="611" y="1090" type="line"/>
      <point x="355" y="487" type="line"/>
      <point x="712" y="487" type="line" name="dv02"/>
      <point x="618" y="1090" type="line"/>
    </contour>
  </outline>
</glyph>
<glyph name="latn:D" format="2">
  <advance width="1128"/>
  <unicode hex="0044"/>
  <anchor x="700" y="1600" name="AccentAbove"/>
  <anchor x="850" y="1600" name="AccentAboveRight"/>
  <anchor x="496" y="0" name="AccentBelow"/>
  <anchor x="250" y="0" name="AccentCedilla"/>
  <anchor x="560" y="712" name="AccentOverlay"/>
  <outline>
    <contour>
      <point x="296" y="122" type="line" name="sv01"/>
      <point x="466" y="122" type="line"/>
      <point x="592" y="122"/>
      <point x="793" y="240"/>
      <point x="933" y="444"/>
      <point x="1008" y="717"/>
      <point x="1008" y="872" type="qcurve" name="dh01"/>
      <point x="1008" y="986"/>
      <point x="955" y="1152"/>
      <point x="854" y="1260"/>
      <point x="710" y="1312"/>
      <point x="618" y="1312" type="qcurve" name="sv02"/>
      <point x="454" y="1312" type="line"/>
    </contour>
    <contour>
      <point x="333" y="1434" type="line" name="at01"/>
      <point x="653" y="1434" type="line"/>
      <point x="773" y="1434"/>
      <point x="959" y="1359"/>
      <point x="1086" y="1216"/>
      <point x="1152" y="1009"/>
      <point x="1152" y="877" type="qcurve" name="dh02"/>
      <point x="1152" y="760"/>
      <point x="1106" y="540"/>
      <point x="1019" y="345"/>
      <point x="897" y="182"/>
      <point x="746" y="65"/>
      <point x="569" y="0"/>
      <point x="472" y="0" type="qcurve" name="ab01"/>
      <point x="144" y="0" type="line"/>
    </contour>
  </outline>
</glyph>
<glyph name="F" format="2">
  <advance width="816"/>
  <unicode hex="0046"/>
  <guideline x="710" y="0" angle="90"/>
  <guideline x="550" y="0" angle="80"/>
  <anchor x="600" y="1600" name="AccentAbove"/>
  <anchor x="750" y="1600" name="AccentAboveRight"/>
  <anchor x="396" y="0" name="AccentBelow"/>
  <anchor x="510" y="712" name="AccentOverlay"/>
  <outline>
    <contour>
      <point x="326" y="1434" type="line" name="hr00"/>
      <point x="910" y="1434" type="line"/>
      <point x="891" y="1292" type="line"/>
      <point x="446" y="1312" type="line"/>
      <point x="383" y="839" type="line"/>
      <point x="754" y="839" type="line" name="dv02"/>
      <point x="737" y="717" type="line" name="dv01"/>
      <point x="368" y="717" type="line"/>
      <point x="273" y="0" type="line" name="ab01"/>
      <point x="137" y="0" type="line"/>
    </contour>
  </outline>
</glyph>
<glyph name="latn:G" format="2">
  <advance width="1200"/>
  <unicode hex="0047"/>
  <guideline x="0" y="-406" angle="45"/>
  <guideline x="649" y="0" angle="90"/>
  <guideline x="665" y="0" angle="80"/>
  <anchor x="850" y="1600" name="AccentAbove"/>
  <anchor x="1000" y="1600" name="AccentAboveRight"/>
  <anchor x="696" y="0" name="AccentBelow"/>
  <anchor x="660" y="712" name="AccentOverlay"/>
  <outline>
    <contour>
      <point x="759" y="717" type="line" name="hr00"/>
      <point x="1160" y="717" type="line" name="dv02"/>
      <point x="1092" y="206" type="line"/>
      <point x="996" y="86"/>
      <point x="768" y="-30"/>
      <point x="643" y="-30" type="qcurve" name="ab01"/>
      <point x="544" y="-30"/>
      <point x="369" y="57"/>
      <point x="237" y="217"/>
      <point x="161" y="443"/>
      <point x="161" y="582" type="qcurve" name="dh01"/>
      <point x="161" y="705"/>
      <point x="211" y="932"/>
      <point x="302" y="1128"/>
      <point x="428" y="1288"/>
      <point x="577" y="1402"/>
      <point x="746" y="1464"/>
      <point x="834" y="1464" type="qcurve" name="at01"/>
      <point x="900" y="1464"/>
      <point x="1022" y="1427"/>
      <point x="1124" y="1364"/>
      <point x="1203" y="1279"/>
      <point x="1227" y="1230" type="qcurve"/>
      <point x="1139" y="1112" type="line" name="iv01"/>
      <point x="1117" y="1159"/>
      <point x="1058" y="1243"/>
      <point x="980" y="1306"/>
      <point x="884" y="1342"/>
      <point x="826" y="1342" type="qcurve" name="sv01"/>
      <point x="764" y="1342"/>
      <point x="640" y="1289"/>
      <point x="524" y="1192"/>
      <point x="422" y="1056"/>
      <point x="348" y="891"/>
      <point x="305" y="700"/>
      <point x="305" y="596" type="qcurve" name="dh02"/>
      <point x="305" y="488"/>
      <point x="356" y="303"/>
      <point x="450" y="168"/>
      <point x="581" y="92"/>
      <point x="659" y="92" type="qcurve" name="sv02"/>
      <point x="702" y="92"/>
      <point x="788" y="113"/>
      <point x="866" y="149"/>
      <point x="934" y="198"/>
      <point x="959" y="227" type="qcurve"/>
      <point x="1007" y="595" type="line" name="dv01"/>
      <point x="743" y="595" type="line"/>
    </contour>
  </outline>
</glyph>
<glyph name="latn:I" format="2">
  <advance width="432"/>
  <unicode hex="0049"/>
  <guideline x="286" y="0" angle="82.5"/>
  <anchor x="420" y="1600" name="AccentAbove"/>
  <anchor x="570" y="1600" name="AccentAboveRight"/>
  <anchor x="216" y="0" name="AccentAttachedBelow"/>
  <anchor x="216" y="0" name="AccentBelow"/>
  <anchor x="310" y="712" name="AccentOverlay"/>
  <outline>
    <contour>
      <point x="478" y="1464" type="line" name="at01"/>
      <point x="284" y="0" type="line" name="ab01"/>
      <point x="148" y="0" type="line"/>
      <point x="337" y="1434" type="line"/>
    </contour>
  </outline>
</glyph>
<glyph name="L" format="2">
  <advance width="816"/>
  <unicode hex="004C"/>
  <guideline x="739" y="0" angle="80"/>
  <anchor x="420" y="1600" name="AccentAbove"/>
  <anchor x="770" y="1600" name="AccentAboveRight"/>
  <anchor x="446" y="0" name="AccentBelow"/>
  <anchor x="310" y="712" name="AccentOverlay"/>
  <outline>
    <contour>
      <point x="467" y="1464" type="line" name="at01"/>
      <point x="289" y="122" type="line"/>
      <point x="758" y="142" type="line"/>
      <point x="739" y="0" type="line"/>
      <point x="137" y="0" type="line"/>
      <point x="326" y="1434" type="line"/>
    </contour>
  </outline>
</glyph>
<glyph name="N" format="2">
  <advance width="1128"/>
  <unicode hex="004E"/>
  <anchor x="750" y="1600" name="AccentAbove"/>
  <anchor x="1005" y="1600" name="AccentAboveRight"/>
  <anchor x="546" y="0" name="AccentBelow"/>
  <anchor x="660" y="712" name="AccentOverlay"/>
  <outline>
    <contour>
      <point x="414" y="1464" type="line" name="at01"/>
      <point x="940" y="306" type="line"/>
      <point x="947" y="306" type="line"/>
      <point x="1100" y="1464" type="line" name="at02"/>
      <point x="1189" y="1434" type="line"/>
      <point x="999" y="0" type="line" name="ab01"/>
      <point x="907" y="0" type="line"/>
      <point x="381" y="1159" type="line"/>
      <point x="374" y="1159" type="line"/>
      <point x="221" y="0" type="line" name="ab02"/>
      <point x="129" y="0" type="line"/>
      <point x="318" y="1434" type="line"/>
    </contour>
  </outline>
</glyph>
<glyph name="P" format="2">
  <advance width="864"/>
  <unicode hex="0050"/>
  <guideline x="995" y="0" angle="90"/>
  <anchor x="350" y="0" name="AccentBelow"/>
  <anchor x="400" y="1600" name="AccentDefault"/>
  <anchor x="350" y="712" name="AccentMiddle"/>
  <outline>
    <contour>
      <point x="326" y="1434" type="line" name="at01"/>
      <point x="620" y="1434" type="line"/>
      <point x="713" y="1434"/>
      <point x="840" y="1374"/>
      <point x="919" y="1273"/>
      <point x="953" y="1140"/>
      <point x="953" y="1068" type="qcurve" name="dh02"/>
      <point x="953" y="1003"/>
      <point x="916" y="873"/>
      <point x="846" y="755"/>
      <point x="749" y="653"/>
      <point x="628" y="578"/>
      <point x="488" y="535"/>
      <point x="411" y="535" type="qcurve" name="dv01"/>
      <point x="344" y="535" type="line"/>
      <point x="273" y="0" type="line" name="ab01"/>
      <point x="137" y="0" type="line"/>
    </contour>
    <contour>
      <point x="446" y="1312" type="line" name="sv01"/>
      <point x="359" y="657" type="line"/>
      <point x="409" y="657" type="line" name="dv02"/>
      <point x="483" y="657"/>
      <point x="626" y="713"/>
      <point x="740" y="817"/>
      <point x="809" y="964"/>
      <point x="809" y="1055" type="qcurve" name="dh01"/>
      <point x="809" y="1175"/>
      <point x="695" y="1312"/>
      <point x="586" y="1312" type="qcurve"/>
    </contour>
  </outline>
</glyph>
<glyph name="Q" format="2">
  <advance width="1200"/>
  <unicode hex="0051"/>
  <guideline x="0" y="-164" angle="0"/>
  <guideline x="801" y="0" angle="90"/>
  <guideline x="1277" y="0" angle="45"/>
  <anchor x="500" y="0" name="AccentBelow"/>
  <anchor x="600" y="1600" name="AccentDefault"/>
  <anchor x="520" y="712" name="AccentMiddle"/>
  <outline>
    <contour>
      <point x="794" y="1464" type="qcurve" name="at01"/>
      <point x="881" y="1464"/>
      <point x="1040" y="1381"/>
      <point x="1159" y="1226"/>
      <point x="1229" y="1003"/>
      <point x="1229" y="864" type="qcurve" name="sh01"/>
      <point x="1229" y="724"/>
      <point x="1162" y="463"/>
      <point x="1047" y="245"/>
      <point x="897" y="80"/>
      <point x="815" y="36" type="qcurve"/>
      <point x="813" y="26" type="line"/>
      <point x="875" y="5"/>
      <point x="964" y="-54"/>
      <point x="1028" y="-127"/>
      <point x="1070" y="-211"/>
      <point x="1085" y="-257" type="qcurve" name="sh02"/>
      <point x="986" y="-388" type="line" name="ih01"/>
      <point x="974" y="-349"/>
      <point x="944" y="-266"/>
      <point x="902" y="-187"/>
      <point x="845" y="-115"/>
      <point x="766" y="-62"/>
      <point x="663" y="-30"/>
      <point x="596" y="-30" type="qcurve" name="ab01"/>
      <point x="508" y="-30"/>
      <point x="350" y="53"/>
      <point x="230" y="208"/>
      <point x="160" y="430"/>
      <point x="160" y="570" type="qcurve" name="sh03"/>
      <point x="160" y="698"/>
      <point x="210" y="931"/>
      <point x="299" y="1130"/>
      <point x="419" y="1290"/>
      <point x="560" y="1403"/>
      <point x="716" y="1464"/>
    </contour>
    <contour>
      <point x="777" y="1342" type="qcurve" name="sv01"/>
      <point x="720" y="1342"/>
      <point x="605" y="1291"/>
      <point x="500" y="1195"/>
      <point x="410" y="1057"/>
      <point x="342" y="884"/>
      <point x="304" y="679"/>
      <point x="304" y="564" type="qcurve" name="sh04"/>
      <point x="304" y="444"/>
      <point x="357" y="266"/>
      <point x="443" y="149"/>
      <point x="554" y="92"/>
      <point x="612" y="92" type="qcurve" name="sv02"/>
      <point x="665" y="92"/>
      <point x="777" y="143"/>
      <point x="882" y="239"/>
      <point x="975" y="377"/>
      <point x="1045" y="550"/>
      <point x="1085" y="755"/>
      <point x="1085" y="870" type="qcurve" name="ah01"/>
      <point x="1085" y="990"/>
      <point x="1032" y="1167"/>
      <point x="946" y="1284"/>
      <point x="835" y="1342"/>
    </contour>
  </outline>
</glyph>
<glyph name="R" format="2">
  <advance width="936"/>
  <unicode hex="0052"/>
  <guideline x="0" y="615" angle="0"/>
  <guideline x="899" y="0" angle="130"/>
  <guideline x="722" y="0" angle="130"/>
  <anchor x="600" y="1600" name="AccentAbove"/>
  <anchor x="750" y="1600" name="AccentAboveRight"/>
  <anchor x="496" y="0" name="AccentBelow"/>
  <anchor x="560" y="712" name="AccentOverlay"/>
  <outline>
    <contour>
      <point x="326" y="1434" type="line" name="at01"/>
      <point x="631" y="1434" type="line"/>
      <point x="800" y="1434"/>
      <point x="965" y="1267"/>
      <point x="965" y="1116" type="qcurve" name="dh02"/>
      <point x="965" y="1045"/>
      <point x="931" y="921"/>
      <point x="872" y="817"/>
      <point x="796" y="733"/>
      <point x="713" y="673"/>
      <point x="627" y="637"/>
      <point x="589" y="632" type="qcurve"/>
      <point x="588" y="625" type="line"/>
      <point x="897" y="0" type="line" name="ih01"/>
      <point x="736" y="-30" type="line" name="ab01"/>
      <point x="472" y="595" type="line"/>
      <point x="351" y="595" type="line"/>
      <point x="273" y="0" type="line" name="ab02"/>
      <point x="137" y="0" type="line"/>
    </contour>
    <contour>
      <point x="446" y="1312" type="line" name="sv01"/>
      <point x="368" y="717" type="line"/>
      <point x="517" y="717" type="line"/>
      <point x="576" y="717"/>
      <point x="686" y="774"/>
      <point x="770" y="875"/>
      <point x="821" y="1015"/>
      <point x="821" y="1099" type="qcurve" name="dh01"/>
      <point x="821" y="1153"/>
      <point x="794" y="1233"/>
      <point x="743" y="1286"/>
      <point x="672" y="1312"/>
      <point x="629" y="1312" type="qcurve"/>
    </contour>
  </outline>
</glyph>
<glyph name="latn:S" format="2">
  <advance width="864"/>
  <unicode hex="0053"/>
  <guideline x="0" y="851" angle="340"/>
  <guideline x="0" y="1061" angle="340"/>
  <guideline x="409" y="0" angle="90"/>
  <guideline x="-50" y="0" angle="45"/>
  <guideline x="3" y="0" angle="45"/>
  <anchor x="650" y="1600" name="AccentAbove"/>
  <anchor x="800" y="1600" name="AccentAboveRight"/>
  <anchor x="446" y="0" name="AccentBelow"/>
  <anchor x="300" y="0" name="AccentCedilla"/>
  <anchor x="510" y="712" name="AccentOverlay"/>
  <outline>
    <contour>
      <point x="840" y="1112" type="line" name="sh02"/>
      <point x="830" y="1143"/>
      <point x="790" y="1222"/>
      <point x="731" y="1293"/>
      <point x="654" y="1342"/>
      <point x="608" y="1342" type="qcurve" name="sv01"/>
      <point x="566" y="1342"/>
      <point x="498" y="1305"/>
      <point x="449" y="1241"/>
      <point x="422" y="1156"/>
      <point x="422" y="1107" type="qcurve" name="sh04"/>
      <point x="422" y="1071"/>
      <point x="441" y="1000"/>
      <point x="482" y="933"/>
      <point x="548" y="872"/>
      <point x="594" y="848" type="qcurve"/>
      <point x="719" y="782"/>
      <point x="840" y="572"/>
      <point x="840" y="441" type="qcurve" name="sh01"/>
      <point x="840" y="345"/>
      <point x="788" y="174"/>
      <point x="690" y="45"/>
      <point x="552" y="-30"/>
      <point x="466" y="-30" type="qcurve" name="ab01"/>
      <point x="397" y="-30"/>
      <point x="287" y="6"/>
      <point x="197" y="69"/>
      <point x="128" y="154"/>
      <point x="101" y="204" type="qcurve"/>
      <point x="190" y="322" type="line" name="iv01"/>
      <point x="206" y="273"/>
      <point x="259" y="189"/>
      <point x="328" y="127"/>
      <point x="412" y="92"/>
      <point x="460" y="92" type="qcurve" name="sv02"/>
      <point x="518" y="92"/>
      <point x="606" y="139"/>
      <point x="665" y="218"/>
      <point x="696" y="322"/>
      <point x="696" y="378" type="qcurve" name="ah01"/>
      <point x="696" y="466"/>
      <point x="600" y="602"/>
      <point x="495" y="657" type="qcurve"/>
      <point x="444" y="684"/>
      <point x="366" y="763"/>
      <point x="313" y="861"/>
      <point x="286" y="977"/>
      <point x="286" y="1041" type="qcurve" name="sh03"/>
      <point x="286" y="1132"/>
      <point x="335" y="1288"/>
      <point x="423" y="1400"/>
      <point x="545" y="1464"/>
      <point x="618" y="1464" type="qcurve" name="at01"/>
      <point x="680" y="1464"/>
      <point x="782" y="1412"/>
      <point x="860" y="1338"/>
      <point x="914" y="1258"/>
      <point x="928" y="1230" type="qcurve"/>
    </contour>
  </outline>
</glyph>
<glyph name="latn:T" format="2">
  <advance width="864"/>
  <unicode hex="0054"/>
  <guideline x="0" y="1116" angle="0"/>
  <guideline x="839" y="0" angle="80"/>
  <guideline x="23" y="0" angle="80"/>
  <guideline x="432" y="0" angle="90"/>
  <guideline x="26" y="0" angle="90"/>
  <guideline x="43" y="0" angle="90"/>
  <anchor x="650" y="1600" name="AccentAbove"/>
  <anchor x="800" y="1600" name="AccentAboveRight"/>
  <anchor x="446" y="0" name="AccentBelow"/>
  <anchor x="280" y="0" name="AccentCedilla"/>
  <anchor x="510" y="712" name="AccentOverlay"/>
  <outline>
    <contour>
      <point x="213" y="1434" type="line" name="hr00"/>
      <point x="1029" y="1434" type="line"/>
      <point x="1010" y="1292" type="line"/>
      <point x="674" y="1312" type="line"/>
      <point x="500" y="0" type="line" name="ab01"/>
      <point x="364" y="0" type="line"/>
      <point x="537" y="1312" type="line"/>
      <point x="194" y="1292" type="line"/>
    </contour>
  </outline>
</glyph>
<glyph name="latn:V" format="2">
  <advance width="936"/>
  <unicode hex="0056"/>
  <guideline x="423" y="0" angle="70"/>
  <guideline x="515" y="0" angle="70"/>
  <guideline x="423" y="0" angle="110"/>
  <guideline x="578" y="0" angle="110"/>
  <anchor x="700" y="1600" name="AccentAbove"/>
  <anchor x="1050" y="1600" name="AccentAboveRight"/>
  <anchor x="446" y="0" name="AccentBelow"/>
  <anchor x="560" y="712" name="AccentOverlay"/>
  <outline>
    <contour>
      <point x="530" y="283" type="line" name="hr00"/>
      <point x="537" y="283" type="line"/>
      <point x="1011" y="1464" type="line" name="at01"/>
      <point x="1097" y="1434" type="line"/>
      <point x="515" y="0" type="line" name="ab01"/>
      <point x="423" y="0" type="line"/>
      <point x="221" y="1434" type="line"/>
      <point x="375" y="1464" type="line" name="at02"/>
    </contour>
  </outline>
</glyph>
<glyph name="latn:Y" format="2">
  <advance width="936"/>
  <unicode hex="0059"/>
  <guideline x="234" y="0" angle="62"/>
  <guideline x="765" y="0" angle="118"/>
  <guideline x="603" y="0" angle="118"/>
  <guideline x="336" y="0" angle="62"/>
  <anchor x="700" y="1600" name="AccentAbove"/>
  <anchor x="1050" y="1600" name="AccentAboveRight"/>
  <anchor x="446" y="0" name="AccentBelow"/>
  <anchor x="510" y="712" name="AccentOverlay"/>
  <outline>
    <contour>
      <point x="587" y="660" type="line" name="hr00"/>
      <point x="1011" y="1464" type="line" name="at01"/>
      <point x="1097" y="1434" type="line"/>
      <point x="618" y="532" type="line"/>
      <point x="548" y="0" type="line" name="ab01"/>
      <point x="412" y="0" type="line"/>
      <point x="479" y="514" type="line"/>
      <point x="221" y="1434" type="line"/>
      <point x="375" y="1464" type="line" name="at02"/>
      <point x="579" y="660" type="line"/>
    </contour>
  </outline>
</glyph>
<glyph name="sign:bracketleft" format="2">
  <advance width="552"/>
  <unicode hex="005B"/>
  <guideline x="270" y="0" angle="80"/>
  <guideline x="490" y="0" angle="80"/>
  <guideline x="491" y="0" angle="90"/>
  <outline>
    <contour>
      <point x="399" y="1464" type="line" name="at01"/>
      <point x="683" y="1464" type="line"/>
      <point x="670" y="1362" type="line" name="sv01"/>
      <point x="492" y="1362" type="line"/>
      <point x="288" y="-176" type="line"/>
      <point x="467" y="-176" type="line" name="dv02"/>
      <point x="453" y="-278" type="line" name="dv01"/>
      <point x="168" y="-278" type="line"/>
    </contour>
  </outline>
</glyph>
<glyph name="sign:asciicircum" format="2">
  <advance width="936"/>
  <unicode hex="005E"/>
  <guideline x="0" y="380" angle="10"/>
  <guideline x="468" y="0" angle="90"/>
  <guideline x="-214" y="0" angle="60"/>
  <guideline x="1150" y="0" angle="120"/>
  <outline>
    <contour>
      <point x="596" y="1434" type="line" name="at01"/>
      <point x="718" y="1434" type="line"/>
      <point x="967" y="607" type="line"/>
      <point x="860" y="583" type="line" name="av01"/>
      <point x="647" y="1301" type="line"/>
      <point x="632" y="1301" type="line"/>
      <point x="229" y="583" type="line" name="av02"/>
      <point x="130" y="607" type="line" name="iv01"/>
    </contour>
  </outline>
</glyph>
<glyph name="sign:grave" format="2">
  <advance width="576"/>
  <unicode hex="0060"/>
  <guideline x="0" y="1683" angle="0"/>
  <guideline x="0" y="1376" angle="45"/>
  <guideline x="1302" y="0" angle="135"/>
  <guideline x="68" y="0" angle="90"/>
  <guideline x="-511" y="0" angle="45"/>
  <guideline x="1139" y="0" angle="135"/>
  <outline>
    <contour>
      <point x="513" y="1116" type="line" name="av02"/>
      <point x="239" y="1404" type="line"/>
      <point x="239" y="1434" type="line"/>
      <point x="300" y="1521" type="line" name="av01"/>
      <point x="323" y="1521" type="line"/>
      <point x="556" y="1176" type="line"/>
    </contour>
  </outline>
</glyph>
<glyph name="a" format="2">
  <advance width="840"/>
  <unicode hex="0061"/>
  <guideline x="0" y="464" angle="6"/>
  <guideline x="335" y="0" angle="100"/>
  <guideline x="248" y="0" angle="90"/>
  <guideline x="538" y="0" angle="80"/>
  <anchor x="550" y="1100" name="AccentAbove"/>
  <anchor x="700" y="1100" name="AccentAboveRight"/>
  <anchor x="727" y="0" name="AccentAttachedBelow"/>
  <anchor x="496" y="0" name="AccentBelow"/>
  <anchor x="510" y="486" name="AccentOverlay"/>
  <outline>
    <contour>
      <point x="227" y="849" type="line" name="hr00"/>
      <point x="299" y="925"/>
      <point x="459" y="1004"/>
      <point x="557" y="1004" type="qcurve" name="at01"/>
      <point x="606" y="1004"/>
      <point x="699" y="969"/>
      <point x="770" y="894"/>
      <point x="812" y="775"/>
      <point x="812" y="690" type="qcurve" name="sh01"/>
      <point x="812" y="668"/>
      <point x="810" y="622"/>
      <point x="806" y="597" type="qcurve" name="sh02"/>
      <point x="750" y="174" type="line" name="sh03"/>
      <point x="748" y="154"/>
      <point x="748" y="139" type="qcurve" name="dh04"/>
      <point x="748" y="72"/>
      <point x="795" y="72" type="qcurve" name="sv01"/>
      <point x="782" y="-30" type="line" name="ab01"/>
      <point x="711" y="-30" name="hr01"/>
      <point x="636" y="49"/>
      <point x="632" y="142" type="qcurve" name="dh03"/>
      <point x="625" y="142" type="line"/>
      <point x="603" y="115"/>
      <point x="538" y="55"/>
      <point x="458" y="4"/>
      <point x="368" y="-30"/>
      <point x="322" y="-30" type="qcurve" name="ab02"/>
      <point x="279" y="-30"/>
      <point x="205" y="4"/>
      <point x="150" y="65"/>
      <point x="119" y="149"/>
      <point x="119" y="199" type="qcurve" name="dh01"/>
      <point x="119" y="303"/>
      <point x="204" y="451"/>
      <point x="355" y="545"/>
      <point x="562" y="589"/>
      <point x="683" y="589" type="qcurve" name="sh04"/>
      <point x="690" y="637" type="line"/>
      <point x="695" y="675"/>
      <point x="695" y="707" type="qcurve" name="ih01"/>
      <point x="695" y="765"/>
      <point x="667" y="840"/>
      <point x="623" y="884"/>
      <point x="569" y="902"/>
      <point x="543" y="902" type="qcurve" name="sv02"/>
      <point x="507" y="902"/>
      <point x="443" y="879"/>
      <point x="384" y="838"/>
      <point x="329" y="781"/>
      <point x="303" y="747" type="qcurve" name="ih02"/>
    </contour>
    <contour>
      <point x="673" y="507" type="line" name="dv01"/>
      <point x="632" y="507"/>
      <point x="536" y="500"/>
      <point x="441" y="479"/>
      <point x="353" y="440"/>
      <point x="284" y="375"/>
      <point x="243" y="282"/>
      <point x="243" y="217" type="qcurve" name="dh02"/>
      <point x="243" y="153"/>
      <point x="305" y="72"/>
      <point x="363" y="72" type="qcurve" name="sv03"/>
      <point x="401" y="72"/>
      <point x="478" y="104"/>
      <point x="549" y="157"/>
      <point x="614" y="226"/>
      <point x="641" y="263" type="qcurve" name="sh05"/>
    </contour>
  </outline>
</glyph>
<glyph name="b" format="2">
  <advance width="840"/>
  <unicode hex="0062"/>
  <guideline x="404" y="0" angle="90"/>
  <anchor x="600" y="1600" name="AccentAbove"/>
  <anchor x="550" y="1400" name="AccentAboveRight"/>
  <anchor x="446" y="0" name="AccentBelow"/>
  <anchor x="510" y="486" name="AccentOverlay"/>
  <outline>
    <contour>
      <point x="253" y="190" type="line" name="hr00"/>
      <point x="282" y="139"/>
      <point x="378" y="72"/>
      <point x="438" y="72" type="qcurve" name="sv01"/>
      <point x="483" y="72"/>
      <point x="584" y="141"/>
      <point x="671" y="273"/>
      <point x="728" y="467"/>
      <point x="728" y="592" type="qcurve" name="dh01"/>
      <point x="728" y="666"/>
      <point x="698" y="782"/>
      <point x="647" y="861"/>
      <point x="579" y="902"/>
      <point x="541" y="902" type="qcurve" name="sv02"/>
      <point x="506" y="902"/>
      <point x="445" y="881"/>
      <point x="392" y="847"/>
      <point x="349" y="806"/>
      <point x="332" y="785" type="qcurve"/>
    </contour>
    <contour>
      <point x="300" y="1464" type="line"/>
      <point x="403" y="1494" type="line" name="av01"/>
      <point x="425" y="1494" type="line"/>
      <point x="347" y="902" type="line" name="sv03"/>
      <point x="355" y="902" type="line" name="sv04"/>
      <point x="374" y="921"/>
      <point x="424" y="958"/>
      <point x="482" y="987"/>
      <point x="545" y="1004"/>
      <point x="578" y="1004" type="qcurve" name="at01"/>
      <point x="638" y="1004"/>
      <point x="740" y="945"/>
      <point x="815" y="838"/>
      <point x="857" y="687"/>
      <point x="857" y="596" type="qcurve" name="dh02"/>
      <point x="857" y="499"/>
      <point x="823" y="331"/>
      <point x="764" y="192"/>
      <point x="683" y="84"/>
      <point x="589" y="9"/>
      <point x="485" y="-30"/>
      <point x="432" y="-30" type="qcurve" name="ab01"/>
      <point x="356" y="-30"/>
      <point x="210" y="74"/>
      <point x="131" y="190" type="qcurve"/>
    </contour>
  </outline>
</glyph>
<glyph name="d" format="2">
  <advance width="840"/>
  <unicode hex="0064"/>
  <guideline x="395" y="0" angle="90"/>
  <guideline x="734" y="0" angle="80"/>
  <anchor x="600" y="1600" name="AccentAbove"/>
  <anchor x="750" y="1600" name="AccentAboveRight"/>
  <anchor x="446" y="0" name="AccentBelow"/>
  <anchor x="300" y="0" name="AccentCedilla"/>
  <anchor x="482" y="486" name="AccentOverlay"/>
  <outline>
    <contour>
      <point x="807" y="1464" type="line" name="hr00"/>
      <point x="910" y="1494" type="line" name="av01"/>
      <point x="932" y="1494" type="line"/>
      <point x="758" y="179" type="line" name="sh02"/>
      <point x="757" y="167"/>
      <point x="755" y="147"/>
      <point x="755" y="138" type="qcurve" name="sh01"/>
      <point x="755" y="105"/>
      <point x="778" y="72"/>
      <point x="803" y="72" type="qcurve" name="sv01"/>
      <point x="789" y="-30" type="line" name="ab01"/>
      <point x="712" y="-30"/>
      <point x="640" y="60"/>
      <point x="640" y="142" type="qcurve" name="ah01"/>
      <point x="632" y="142" type="line"/>
      <point x="614" y="114"/>
      <point x="565" y="54"/>
      <point x="503" y="3"/>
      <point x="428" y="-30"/>
      <point x="382" y="-30" type="qcurve" name="ab02"/>
      <point x="328" y="-30"/>
      <point x="232" y="23"/>
      <point x="160" y="124"/>
      <point x="118" y="271"/>
      <point x="118" y="366" type="qcurve" name="sh03"/>
      <point x="118" y="446"/>
      <point x="149" y="603"/>
      <point x="203" y="745"/>
      <point x="279" y="866"/>
      <point x="370" y="954"/>
      <point x="472" y="1004"/>
      <point x="526" y="1004" type="qcurve" name="at01"/>
      <point x="558" y="1004"/>
      <point x="617" y="986"/>
      <point x="669" y="957"/>
      <point x="710" y="921"/>
      <point x="725" y="902" type="qcurve" name="sv02"/>
      <point x="733" y="902" type="line"/>
    </contour>
    <contour>
      <point x="717" y="785" type="line"/>
      <point x="706" y="806"/>
      <point x="672" y="848"/>
      <point x="627" y="881"/>
      <point x="570" y="902"/>
      <point x="536" y="902" type="qcurve" name="sv03"/>
      <point x="496" y="902"/>
      <point x="422" y="860"/>
      <point x="358" y="787"/>
      <point x="305" y="685"/>
      <point x="268" y="566"/>
      <point x="247" y="432"/>
      <point x="247" y="363" type="qcurve" name="sh04"/>
      <point x="247" y="285"/>
      <point x="275" y="174"/>
      <point x="323" y="104"/>
      <point x="385" y="72"/>
      <point x="418" y="72" type="qcurve" name="sv04"/>
      <point x="453" y="72"/>
      <point x="518" y="105"/>
      <point x="577" y="158"/>
      <point x="628" y="227"/>
      <point x="648" y="263" type="qcurve" name="sh05"/>
    </contour>
  </outline>
</glyph>
<glyph name="e" format="2">
  <advance width="768"/>
  <unicode hex="0065"/>
  <guideline x="0" y="1517" angle="0"/>
  <guideline x="824" y="0" angle="135"/>
  <anchor x="300" y="0" name="AccentBelow"/>
  <anchor x="350" y="1100" name="AccentDefault"/>
  <anchor x="300" y="550" name="AccentMiddle"/>
  <anchor x="150" y="0" name="AccentOgonek"/>
  <outline>
    <contour>
      <point x="249" y="487" type="line" name="sh03"/>
      <point x="245" y="455"/>
      <point x="241" y="396"/>
      <point x="241" y="369" type="qcurve" name="sh02"/>
      <point x="241" y="288"/>
      <point x="273" y="175"/>
      <point x="328" y="104"/>
      <point x="401" y="72"/>
      <point x="440" y="72" type="qcurve" name="sv01"/>
      <point x="477" y="72"/>
      <point x="542" y="103"/>
      <point x="596" y="149"/>
      <point x="639" y="204"/>
      <point x="653" y="227" type="qcurve" name="ih01"/>
      <point x="730" y="125" type="line"/>
      <point x="715" y="106"/>
      <point x="656" y="53"/>
      <point x="576" y="4"/>
      <point x="478" y="-30"/>
      <point x="423" y="-30" type="qcurve" name="ab01"/>
      <point x="351" y="-30"/>
      <point x="236" y="21"/>
      <point x="155" y="122"/>
      <point x="112" y="272"/>
      <point x="112" y="371" type="qcurve" name="sh01"/>
      <point x="112" y="499"/>
      <point x="179" y="729"/>
      <point x="294" y="902"/>
      <point x="449" y="1004"/>
      <point x="536" y="1004" type="qcurve" name="at01"/>
      <point x="590" y="1004"/>
      <point x="684" y="960"/>
      <point x="755" y="868"/>
      <point x="795" y="726"/>
      <point x="795" y="629" type="qcurve" name="sh04"/>
      <point x="795" y="597"/>
      <point x="791" y="525"/>
      <point x="785" y="487" type="qcurve" name="sh05"/>
    </contour>
    <contour>
      <point x="684" y="589" type="line" name="sh06"/>
      <point x="689" y="620"/>
      <point x="689" y="652" type="qcurve" name="ah01"/>
      <point x="689" y="703"/>
      <point x="666" y="793"/>
      <point x="623" y="862"/>
      <point x="558" y="902"/>
      <point x="516" y="902" type="qcurve" name="sv02"/>
      <point x="470" y="902"/>
      <point x="388" y="853"/>
      <point x="322" y="769"/>
      <point x="275" y="655"/>
      <point x="263" y="589" type="qcurve" name="dv01"/>
    </contour>
  </outline>
</glyph>
<glyph name="f" format="2">
  <advance width="552"/>
  <unicode hex="0066"/>
  <guideline x="0" y="915" angle="357"/>
  <guideline x="488" y="0" angle="80"/>
  <guideline x="61" y="0" angle="80"/>
  <anchor x="200" y="0" name="AccentBelow"/>
  <anchor x="250" y="1600" name="AccentDefault"/>
  <anchor x="150" y="486" name="AccentMiddle"/>
  <outline>
    <contour>
      <point x="194" y="1004" type="line" name="hr00"/>
      <point x="321" y="1004" type="line"/>
      <point x="335" y="1135"/>
      <point x="406" y="1321"/>
      <point x="512" y="1439"/>
      <point x="651" y="1494"/>
      <point x="736" y="1494" type="qcurve" name="av01"/>
      <point x="722" y="1392" type="line"/>
      <point x="671" y="1392"/>
      <point x="581" y="1356"/>
      <point x="510" y="1278"/>
      <point x="461" y="1154"/>
      <point x="443" y="1004" type="qcurve"/>
      <point x="620" y="1004" type="line"/>
      <point x="603" y="872" type="line"/>
      <point x="427" y="886" type="line"/>
      <point x="310" y="0" type="line" name="ab01"/>
      <point x="188" y="0" type="line"/>
      <point x="306" y="893" type="line"/>
      <point x="181" y="902" type="line"/>
    </contour>
  </outline>
</glyph>
<glyph name="latn:g" format="2">
  <advance width="840"/>
  <unicode hex="0067"/>
  <guideline x="296" y="0" angle="45"/>
  <anchor x="600" y="1100" name="AccentAbove"/>
  <anchor x="750" y="1100" name="AccentAboveRight"/>
  <anchor x="416" y="-400" name="AccentBelow"/>
  <anchor x="460" y="486" name="AccentOverlay"/>
  <outline>
    <contour>
      <point x="740" y="974" type="line" name="at02"/>
      <point x="844" y="1004" type="line" name="at01"/>
      <point x="866" y="1004" type="line"/>
      <point x="734" y="0" type="line" name="ab02"/>
      <point x="714" y="-146"/>
      <point x="632" y="-335"/>
      <point x="522" y="-446"/>
      <point x="391" y="-490"/>
      <point x="323" y="-490" type="qcurve" name="ab01"/>
      <point x="281" y="-490"/>
      <point x="200" y="-471"/>
      <point x="129" y="-432"/>
      <point x="68" y="-374"/>
      <point x="46" y="-335" type="qcurve"/>
      <point x="121" y="-233" type="line" name="iv01"/>
      <point x="157" y="-305"/>
      <point x="267" y="-388"/>
      <point x="336" y="-388" type="qcurve" name="sv01"/>
      <point x="380" y="-388"/>
      <point x="466" y="-350"/>
      <point x="539" y="-266"/>
      <point x="593" y="-134"/>
      <point x="606" y="-40" type="qcurve"/>
      <point x="631" y="142" type="line"/>
      <point x="623" y="142" type="line"/>
      <point x="617" y="127"/>
      <point x="576" y="79"/>
      <point x="515" y="33"/>
      <point x="437" y="0"/>
      <point x="392" y="0" type="qcurve" name="ab03"/>
      <point x="339" y="0"/>
      <point x="242" y="55"/>
      <point x="170" y="157"/>
      <point x="127" y="300"/>
      <point x="127" y="389" type="qcurve" name="dh01"/>
      <point x="127" y="471"/>
      <point x="159" y="621"/>
      <point x="216" y="751"/>
      <point x="293" y="857"/>
      <point x="380" y="933"/>
      <point x="475" y="974"/>
      <point x="521" y="974" type="qcurve" name="at03"/>
      <point x="548" y="974"/>
      <point x="603" y="961"/>
      <point x="654" y="933"/>
      <point x="700" y="886"/>
      <point x="717" y="852" type="qcurve"/>
      <point x="725" y="852" type="line"/>
    </contour>
    <contour>
      <point x="710" y="743" type="line"/>
      <point x="681" y="813"/>
      <point x="589" y="872"/>
      <point x="530" y="872" type="qcurve" name="sv02"/>
      <point x="474" y="872"/>
      <point x="374" y="789"/>
      <point x="299" y="652"/>
      <point x="256" y="474"/>
      <point x="256" y="379" type="qcurve" name="dh02"/>
      <point x="256" y="306"/>
      <point x="284" y="201"/>
      <point x="332" y="134"/>
      <point x="394" y="102"/>
      <point x="428" y="102" type="qcurve" name="sv03"/>
      <point x="467" y="102"/>
      <point x="536" y="132"/>
      <point x="592" y="177"/>
      <point x="633" y="230"/>
      <point x="645" y="254" type="qcurve"/>
    </contour>
  </outline>
</glyph>
<glyph name="i" format="2">
  <advance width="432"/>
  <unicode hex="0069"/>
  <guideline x="228" y="0" angle="80"/>
  <guideline x="216" y="0" angle="90"/>
  <anchor x="420" y="1600" name="AccentAbove"/>
  <anchor x="520" y="1200" name="AccentAboveRight"/>
  <anchor x="227" y="0" name="AccentAttachedBelow"/>
  <anchor x="216" y="0" name="AccentBelow"/>
  <anchor x="260" y="486" name="AccentOverlay"/>
  <outline>
    <contour>
      <point x="284" y="974" type="line" name="hr00"/>
      <point x="387" y="1004" type="line" name="at01"/>
      <point x="410" y="1004" type="line"/>
      <point x="277" y="0" type="line" name="ab01"/>
      <point x="155" y="0" type="line"/>
    </contour>
    <contour>
      <point x="311" y="1272" type="qcurve" name="dh01"/>
      <point x="311" y="1312"/>
      <point x="353" y="1368"/>
      <point x="383" y="1368" type="qcurve" name="dv02"/>
      <point x="413" y="1368"/>
      <point x="455" y="1312"/>
      <point x="455" y="1272" type="qcurve" name="dh02"/>
      <point x="455" y="1232"/>
      <point x="413" y="1176"/>
      <point x="383" y="1176" type="qcurve" name="dv01"/>
      <point x="353" y="1176"/>
      <point x="311" y="1232"/>
    </contour>
  </outline>
</glyph>
<glyph name="latn:k" format="2">
  <advance width="768"/>
  <unicode hex="006B"/>
  <guideline x="0" y="75" angle="45"/>
  <guideline x="0" y="232" angle="45"/>
  <guideline x="0" y="613" angle="0"/>
  <guideline x="757" y="0" angle="130"/>
  <guideline x="608" y="0" angle="130"/>
  <guideline x="1303" y="0" angle="90"/>
  <anchor x="600" y="1600" name="AccentAbove"/>
  <anchor x="550" y="1400" name="AccentAboveRight"/>
  <anchor x="416" y="0" name="AccentBelow"/>
  <anchor x="624" y="486" name="AccentOverlay"/>
  <outline>
    <contour>
      <point x="757" y="0" type="line" name="ab02"/>
      <point x="614" y="-30" type="line" name="ab01"/>
      <point x="371" y="477" type="line"/>
      <point x="363" y="477" type="line"/>
      <point x="287" y="390" type="line"/>
      <point x="236" y="0" type="line" name="ab03"/>
      <point x="114" y="0" type="line"/>
      <point x="308" y="1464" type="line"/>
      <point x="410" y="1494" type="line" name="av01"/>
      <point x="433" y="1494" type="line"/>
      <point x="308" y="546" type="line"/>
      <point x="315" y="546" type="line"/>
      <point x="712" y="1004" type="line"/>
      <point x="803" y="974" type="line" name="iv01"/>
      <point x="446" y="571" type="line"/>
    </contour>
  </outline>
</glyph>
<glyph name="l" format="2">
  <advance width="432"/>
  <unicode hex="006C"/>
  <guideline x="335" y="0" angle="80"/>
  <anchor x="420" y="1600" name="AccentAbove"/>
  <anchor x="570" y="1400" name="AccentAboveRight"/>
  <anchor x="246" y="0" name="AccentBelow"/>
  <anchor x="310" y="486" name="AccentOverlay"/>
  <outline>
    <contour>
      <point x="349" y="1464" type="line" name="hr00"/>
      <point x="452" y="1494" type="line" name="av01"/>
      <point x="474" y="1494" type="line"/>
      <point x="316" y="300" type="line" name="sh01"/>
      <point x="313" y="279"/>
      <point x="309" y="225"/>
      <point x="309" y="209" type="qcurve" name="dh02"/>
      <point x="309" y="191"/>
      <point x="318" y="144"/>
      <point x="339" y="102"/>
      <point x="376" y="72"/>
      <point x="408" y="72" type="qcurve"/>
      <point x="395" y="-30" type="line" name="ab01"/>
      <point x="329" y="-30"/>
      <point x="251" y="14"/>
      <point x="206" y="82"/>
      <point x="188" y="165"/>
      <point x="188" y="204" type="qcurve" name="dh01"/>
      <point x="188" y="226"/>
      <point x="192" y="285"/>
      <point x="195" y="307" type="qcurve" name="sh02"/>
    </contour>
  </outline>
</glyph>
<glyph name="latn:m" format="2">
  <advance width="1248"/>
  <unicode hex="006D"/>
  <guideline x="1200" y="0" angle="80"/>
  <anchor x="750" y="1100" name="AccentAbove"/>
  <anchor x="1100" y="1100" name="AccentAboveRight"/>
  <anchor x="646" y="0" name="AccentBelow"/>
  <anchor x="660" y="486" name="AccentOverlay"/>
  <outline>
    <contour>
      <point x="231" y="944" type="line" name="hr00"/>
      <point x="334" y="974" type="line" name="at01"/>
      <point x="356" y="974" type="line"/>
      <point x="338" y="838" type="line"/>
      <point x="347" y="838" type="line"/>
      <point x="377" y="882"/>
      <point x="436" y="945"/>
      <point x="497" y="985"/>
      <point x="561" y="1004"/>
      <point x="598" y="1004" type="qcurve" name="at02"/>
      <point x="638" y="1004"/>
      <point x="699" y="977"/>
      <point x="744" y="930"/>
      <point x="773" y="865" name="hr01"/>
      <point x="780" y="828" type="qcurve"/>
      <point x="788" y="828" type="line"/>
      <point x="819" y="872"/>
      <point x="880" y="938"/>
      <point x="942" y="982"/>
      <point x="1009" y="1004" name="hr02"/>
      <point x="1047" y="1004" type="qcurve" name="at03"/>
      <point x="1082" y="1004"/>
      <point x="1151" y="976"/>
      <point x="1206" y="918"/>
      <point x="1240" y="831"/>
      <point x="1240" y="772" type="qcurve" name="sh01"/>
      <point x="1240" y="758" name="hr03"/>
      <point x="1238" y="731"/>
      <point x="1236" y="716" type="qcurve" name="sh02"/>
      <point x="1167" y="197" type="line" name="sh03"/>
      <point x="1163" y="165"/>
      <point x="1163" y="141" type="qcurve" name="dh02"/>
      <point x="1163" y="105"/>
      <point x="1185" y="72"/>
      <point x="1209" y="72" type="qcurve"/>
      <point x="1196" y="-30" type="line" name="ab01"/>
      <point x="1044" y="-30"/>
      <point x="1044" y="148" type="qcurve" name="dh01"/>
      <point x="1044" y="166"/>
      <point x="1047" y="205"/>
      <point x="1050" y="227" type="qcurve" name="sh04"/>
      <point x="1112" y="696" type="line" name="sh05"/>
      <point x="1113" y="710"/>
      <point x="1115" y="735"/>
      <point x="1115" y="747" type="qcurve" name="ih01"/>
      <point x="1115" y="820"/>
      <point x="1060" y="902"/>
      <point x="1013" y="902" type="qcurve" name="sv01"/>
      <point x="980" y="902"/>
      <point x="919" y="872"/>
      <point x="862" y="817"/>
      <point x="806" y="742"/>
      <point x="776" y="697" type="qcurve"/>
      <point x="685" y="0" type="line" name="ab02"/>
      <point x="563" y="0" type="line"/>
      <point x="658" y="716" type="line"/>
      <point x="660" y="732"/>
      <point x="660" y="750" type="qcurve"/>
      <point x="660" y="779"/>
      <point x="647" y="834"/>
      <point x="622" y="876"/>
      <point x="585" y="902"/>
      <point x="562" y="902" type="qcurve" name="sv02"/>
      <point x="526" y="902"/>
      <point x="464" y="872"/>
      <point x="405" y="817"/>
      <point x="349" y="741"/>
      <point x="320" y="696" type="qcurve"/>
      <point x="228" y="0" type="line" name="ab03"/>
      <point x="107" y="0" type="line"/>
    </contour>
  </outline>
</glyph>
<glyph name="n" format="2">
  <advance width="840"/>
  <unicode hex="006E"/>
  <guideline x="785" y="0" angle="80"/>
  <anchor x="350" y="0" name="AccentBelow"/>
  <anchor x="400" y="1100" name="AccentDefault"/>
  <anchor x="300" y="486" name="AccentMiddle"/>
  <outline>
    <contour>
      <point x="364" y="974" type="line" name="at01"/>
      <point x="346" y="837" type="line"/>
      <point x="353" y="837" type="line"/>
      <point x="419" y="925"/>
      <point x="546" y="1004"/>
      <point x="614" y="1004" type="qcurve" name="at02"/>
      <point x="662" y="1004"/>
      <point x="741" y="972"/>
      <point x="796" y="912"/>
      <point x="826" y="825" name="hr00"/>
      <point x="826" y="769" type="qcurve" name="sh01"/>
      <point x="826" y="755"/>
      <point x="823" y="723"/>
      <point x="821" y="707" type="qcurve" name="sh02"/>
      <point x="753" y="197" type="line" name="sh03"/>
      <point x="749" y="165" name="hr01"/>
      <point x="749" y="141" type="qcurve" name="dh02"/>
      <point x="749" y="105"/>
      <point x="771" y="72"/>
      <point x="795" y="72" type="qcurve" name="hr02"/>
      <point x="782" y="-30" type="line" name="ab01"/>
      <point x="701" y="-30"/>
      <point x="630" y="65"/>
      <point x="630" y="146" type="qcurve" name="dh01"/>
      <point x="630" y="166"/>
      <point x="633" y="206"/>
      <point x="636" y="227" type="qcurve" name="sh04"/>
      <point x="697" y="687" type="line" name="sh05"/>
      <point x="701" y="718"/>
      <point x="701" y="747" type="qcurve" name="ih01"/>
      <point x="701" y="822"/>
      <point x="642" y="902"/>
      <point x="584" y="902" type="qcurve" name="sv01"/>
      <point x="513" y="902"/>
      <point x="389" y="797"/>
      <point x="327" y="697" type="qcurve"/>
      <point x="236" y="0" type="line" name="ab02"/>
      <point x="114" y="0" type="line"/>
      <point x="239" y="944" type="line"/>
      <point x="341" y="974" type="line"/>
    </contour>
  </outline>
</glyph>
<glyph name="latn:q" format="2">
  <advance width="840"/>
  <unicode hex="0071"/>
  <guideline x="615" y="0" angle="80"/>
  <anchor x="550" y="1100" name="AccentAbove"/>
  <anchor x="700" y="1100" name="AccentAboveRight"/>
  <anchor x="446" y="-400" name="AccentBelow"/>
  <anchor x="460" y="486" name="AccentOverlay"/>
  <outline>
    <contour>
      <point x="719" y="784" type="line" name="hr00"/>
      <point x="695" y="835"/>
      <point x="599" y="902"/>
      <point x="533" y="902" type="qcurve" name="sv01"/>
      <point x="488" y="902"/>
      <point x="387" y="833"/>
      <point x="301" y="701"/>
      <point x="244" y="507"/>
      <point x="244" y="382" type="qcurve" name="dh02"/>
      <point x="244" y="308"/>
      <point x="274" y="192"/>
      <point x="325" y="113"/>
      <point x="392" y="72"/>
      <point x="431" y="72" type="qcurve" name="sv02"/>
      <point x="465" y="72"/>
      <point x="527" y="93"/>
      <point x="579" y="127"/>
      <point x="623" y="168"/>
      <point x="640" y="189" type="qcurve"/>
    </contour>
    <contour>
      <point x="676" y="-460" type="line"/>
      <point x="573" y="-490" type="line" name="ab01"/>
      <point x="551" y="-490" type="line"/>
      <point x="624" y="72" type="line" name="sv03"/>
      <point x="617" y="72" type="line" name="sv04"/>
      <point x="597" y="52"/>
      <point x="548" y="16"/>
      <point x="490" y="-13"/>
      <point x="426" y="-30"/>
      <point x="394" y="-30" type="qcurve" name="ab02"/>
      <point x="333" y="-30"/>
      <point x="231" y="29"/>
      <point x="157" y="136"/>
      <point x="115" y="286"/>
      <point x="115" y="378" type="qcurve" name="dh01"/>
      <point x="115" y="475"/>
      <point x="149" y="643"/>
      <point x="208" y="782"/>
      <point x="288" y="890"/>
      <point x="383" y="965"/>
      <point x="487" y="1004"/>
      <point x="539" y="1004" type="qcurve" name="at01"/>
      <point x="621" y="1004"/>
      <point x="773" y="900"/>
      <point x="840" y="784" type="qcurve"/>
    </contour>
  </outline>
</glyph>
<glyph name="r" format="2">
  <advance width="552"/>
  <unicode hex="0072"/>
  <guideline x="527" y="0" angle="80"/>
  <anchor x="420" y="1100" name="AccentAbove"/>
  <anchor x="370" y="1100" name="AccentAboveRight"/>
  <anchor x="316" y="0" name="AccentBelow"/>
  <anchor x="240" y="486" name="AccentOverlay"/>
  <outline>
    <contour>
      <point x="364" y="974" type="line" name="at01"/>
      <point x="342" y="808" type="line"/>
      <point x="350" y="808" type="line"/>
      <point x="397" y="905"/>
      <point x="496" y="1004"/>
      <point x="557" y="1004" type="qcurve" name="at02"/>
      <point x="574" y="1004"/>
      <point x="605" y="992"/>
      <point x="631" y="974"/>
      <point x="649" y="953"/>
      <point x="653" y="944" type="qcurve"/>
      <point x="632" y="786" type="line" name="iv01"/>
      <point x="620" y="806"/>
      <point x="560" y="842"/>
      <point x="516" y="842" type="qcurve" name="sv01"/>
      <point x="471" y="842"/>
      <point x="399" y="783"/>
      <point x="347" y="699"/>
      <point x="316" y="607"/>
      <point x="311" y="574" type="qcurve"/>
      <point x="236" y="0" type="line" name="ab01"/>
      <point x="114" y="0" type="line"/>
      <point x="239" y="944" type="line"/>
      <point x="341" y="974" type="line"/>
    </contour>
  </outline>
</glyph>
<glyph name="s" format="2">
  <advance width="648"/>
  <unicode hex="0073"/>
  <guideline x="0" y="783" angle="340"/>
  <guideline x="0" y="604" angle="340"/>
  <guideline x="0" y="1348" angle="320"/>
  <guideline x="326" y="0" angle="90"/>
  <guideline x="-8" y="0" angle="45"/>
  <guideline x="38" y="0" angle="45"/>
  <anchor x="500" y="1100" name="AccentAbove"/>
  <anchor x="520" y="1100" name="AccentAboveRight"/>
  <anchor x="346" y="0" name="AccentBelow"/>
  <anchor x="200" y="0" name="AccentCedilla"/>
  <anchor x="410" y="486" name="AccentOverlay"/>
  <outline>
    <contour>
      <point x="163" y="227" type="line" name="iv01"/>
      <point x="176" y="197"/>
      <point x="215" y="141"/>
      <point x="263" y="98"/>
      <point x="317" y="72"/>
      <point x="347" y="72" type="qcurve" name="sv01"/>
      <point x="376" y="72"/>
      <point x="430" y="93"/>
      <point x="473" y="135"/>
      <point x="498" y="201"/>
      <point x="498" y="246" type="qcurve" name="ah01"/>
      <point x="498" y="274"/>
      <point x="485" y="323"/>
      <point x="453" y="369"/>
      <point x="397" y="413"/>
      <point x="353" y="436" type="qcurve"/>
      <point x="326" y="450"/>
      <point x="272" y="499"/>
      <point x="230" y="566"/>
      <point x="204" y="652"/>
      <point x="204" y="703" type="qcurve" name="sh01"/>
      <point x="204" y="772"/>
      <point x="240" y="883"/>
      <point x="306" y="961"/>
      <point x="398" y="1004"/>
      <point x="455" y="1004" type="qcurve" name="at01"/>
      <point x="491" y="1004"/>
      <point x="556" y="980"/>
      <point x="613" y="938"/>
      <point x="659" y="882"/>
      <point x="675" y="849" type="qcurve"/>
      <point x="599" y="747" type="line" name="ih01"/>
      <point x="589" y="778"/>
      <point x="558" y="834"/>
      <point x="518" y="877"/>
      <point x="470" y="902"/>
      <point x="442" y="902" type="qcurve" name="sv02"/>
      <point x="419" y="902"/>
      <point x="377" y="879"/>
      <point x="344" y="837"/>
      <point x="326" y="779"/>
      <point x="326" y="743" type="qcurve" name="sh03"/>
      <point x="326" y="683"/>
      <point x="377" y="605"/>
      <point x="434" y="576" type="qcurve"/>
      <point x="530" y="528"/>
      <point x="620" y="383"/>
      <point x="620" y="287" type="qcurve" name="sh02"/>
      <point x="620" y="210"/>
      <point x="578" y="92"/>
      <point x="502" y="12"/>
      <point x="397" y="-30"/>
      <point x="333" y="-30" type="qcurve" name="sh04"/>
      <point x="299" y="-30"/>
      <point x="230" y="-11"/>
      <point x="164" y="28"/>
      <point x="107" y="86"/>
      <point x="86" y="125" type="qcurve"/>
    </contour>
  </outline>
</glyph>
<glyph name="t" format="2">
  <advance width="552"/>
  <unicode hex="0074"/>
  <guideline x="0" y="152" angle="0"/>
  <guideline x="0" y="914" angle="357"/>
  <guideline x="471" y="0" angle="80"/>
  <guideline x="62" y="0" angle="80"/>
  <guideline x="473" y="0" angle="90"/>
  <anchor x="420" y="1600" name="AccentAbove"/>
  <anchor x="570" y="1300" name="AccentAboveRight"/>
  <anchor x="296" y="0" name="AccentBelow"/>
  <anchor x="200" y="0" name="AccentCedilla"/>
  <anchor x="310" y="486" name="AccentOverlay"/>
  <outline>
    <contour>
      <point x="485" y="1322" type="line" name="av01"/>
      <point x="443" y="1004" type="line"/>
      <point x="604" y="1004" type="line"/>
      <point x="587" y="872" type="line"/>
      <point x="427" y="885" type="line"/>
      <point x="349" y="297" type="line" name="sh01"/>
      <point x="342" y="249"/>
      <point x="342" y="211" type="qcurve" name="dh02"/>
      <point x="342" y="176"/>
      <point x="356" y="123"/>
      <point x="389" y="89"/>
      <point x="442" y="72"/>
      <point x="481" y="72" type="qcurve" name="sv01"/>
      <point x="467" y="-30" type="line" name="ab01"/>
      <point x="410" y="-30"/>
      <point x="318" y="-15"/>
      <point x="254" y="32"/>
      <point x="221" y="119"/>
      <point x="221" y="191" type="qcurve" name="dh01"/>
      <point x="221" y="244"/>
      <point x="231" y="326" type="qcurve" name="sh02"/>
      <point x="306" y="893" type="line"/>
      <point x="181" y="902" type="line"/>
      <point x="194" y="1004" type="line"/>
      <point x="321" y="1004" type="line"/>
      <point x="359" y="1292" type="line"/>
      <point x="462" y="1322" type="line"/>
    </contour>
  </outline>
</glyph>
<glyph name="latn:u" format="2">
  <advance width="840"/>
  <unicode hex="0075"/>
  <guideline x="785" y="0" angle="80"/>
  <anchor x="550" y="1100" name="AccentAbove"/>
  <anchor x="700" y="1100" name="AccentAboveRight"/>
  <anchor x="727" y="0" name="AccentAttachedBelow"/>
  <anchor x="446" y="0" name="AccentBelow"/>
  <anchor x="833" y="798" name="AccentHorn"/>
  <anchor x="460" y="486" name="AccentOverlay"/>
  <outline>
    <contour>
      <point x="368" y="1004" type="line" name="at01"/>
      <point x="275" y="305" type="line" name="sh01"/>
      <point x="271" y="269"/>
      <point x="271" y="239" type="qcurve" name="dh02"/>
      <point x="271" y="193"/>
      <point x="291" y="129"/>
      <point x="325" y="90"/>
      <point x="369" y="72"/>
      <point x="393" y="72" type="qcurve" name="sv01"/>
      <point x="434" y="72"/>
      <point x="506" y="107"/>
      <point x="569" y="163"/>
      <point x="620" y="230"/>
      <point x="641" y="263" type="qcurve"/>
      <point x="734" y="974" type="line"/>
      <point x="838" y="1004" type="line" name="at02"/>
      <point x="860" y="1004" type="line"/>
      <point x="752" y="189" type="line"/>
      <point x="750" y="174"/>
      <point x="749" y="149"/>
      <point x="749" y="138" type="qcurve"/>
      <point x="749" y="101"/>
      <point x="772" y="72"/>
      <point x="795" y="72" type="qcurve" name="sv02"/>
      <point x="782" y="-30" type="line" name="ab01"/>
      <point x="728" y="-30"/>
      <point x="676" y="2"/>
      <point x="646" y="52"/>
      <point x="634" y="113"/>
      <point x="632" y="142" type="qcurve"/>
      <point x="625" y="142" type="line"/>
      <point x="608" y="116"/>
      <point x="556" y="56"/>
      <point x="486" y="4"/>
      <point x="402" y="-30"/>
      <point x="355" y="-30" type="qcurve" name="ab02"/>
      <point x="314" y="-30"/>
      <point x="238" y="-3"/>
      <point x="180" y="55"/>
      <point x="146" y="146"/>
      <point x="146" y="210" type="qcurve" name="dh01"/>
      <point x="146" y="227"/>
      <point x="149" y="261"/>
      <point x="151" y="280" type="qcurve" name="sh02"/>
      <point x="242" y="974" type="line"/>
      <point x="346" y="1004" type="line"/>
    </contour>
  </outline>
</glyph>
<glyph name="latn:w" format="2">
  <advance width="1080"/>
  <unicode hex="0077"/>
  <guideline x="0" y="269" angle="0"/>
  <guideline x="709" y="0" angle="108"/>
  <guideline x="418" y="0" angle="108"/>
  <guideline x="800" y="0" angle="72"/>
  <guideline x="371" y="0" angle="72"/>
  <guideline x="709" y="0" angle="72"/>
  <guideline x="281" y="0" angle="108"/>
  <guideline x="846" y="0" angle="108"/>
  <guideline x="280" y="0" angle="72"/>
  <guideline x="563" y="0" angle="90"/>
  <anchor x="700" y="1100" name="AccentAbove"/>
  <anchor x="1050" y="1100" name="AccentAboveRight"/>
  <anchor x="546" y="0" name="AccentBelow"/>
  <anchor x="610" y="486" name="AccentOverlay"/>
  <outline>
    <contour>
      <point x="1166" y="974" type="line" name="at03"/>
      <point x="800" y="0" type="line" name="ab01"/>
      <point x="709" y="0" type="line"/>
      <point x="633" y="678" type="line"/>
      <point x="626" y="678" type="line"/>
      <point x="371" y="0" type="line" name="ab02"/>
      <point x="280" y="0" type="line"/>
      <point x="170" y="974" type="line" name="at04"/>
      <point x="305" y="1004" type="line" name="at01"/>
      <point x="380" y="269" type="line"/>
      <point x="388" y="269" type="line"/>
      <point x="645" y="974" type="line" name="at05"/>
      <point x="737" y="974" type="line"/>
      <point x="809" y="269" type="line"/>
      <point x="817" y="269" type="line"/>
      <point x="1086" y="1004" type="line" name="at02"/>
    </contour>
  </outline>
</glyph>
<glyph name="z" format="2">
  <advance width="720"/>
  <unicode hex="007A"/>
  <guideline x="0" y="80" angle="3"/>
  <guideline x="-70" y="0" angle="90"/>
  <guideline x="116" y="0" angle="80"/>
  <guideline x="648" y="0" angle="90"/>
  <guideline x="663" y="0" angle="80"/>
  <anchor x="500" y="1100" name="AccentAbove"/>
  <anchor x="650" y="1100" name="AccentAboveRight"/>
  <anchor x="396" y="0" name="AccentBelow"/>
  <anchor x="410" y="486" name="AccentOverlay"/>
  <outline>
    <contour>
      <point x="57" y="25" type="line" name="hr00"/>
      <point x="615" y="866" type="line"/>
      <point x="617" y="876" type="line"/>
      <point x="228" y="849" type="line"/>
      <point x="245" y="974" type="line"/>
      <point x="791" y="974" type="line"/>
      <point x="788" y="949" type="line"/>
      <point x="229" y="105" type="line"/>
      <point x="227" y="95" type="line"/>
      <point x="680" y="125" type="line"/>
      <point x="663" y="0" type="line"/>
      <point x="54" y="0" type="line"/>
    </contour>
  </outline>
</glyph>
<glyph name="braceleft" format="2">
  <advance width="552"/>
  <unicode hex="007B"/>
  <guideline x="477" y="0" angle="90"/>
  <outline>
    <contour>
      <point x="671" y="1362" type="line" name="hr00"/>
      <point x="610" y="1362"/>
      <point x="551" y="1337"/>
      <point x="515" y="1283"/>
      <point x="496" y="1196"/>
      <point x="488" y="1135" type="qcurve"/>
      <point x="466" y="972" type="line"/>
      <point x="457" y="904"/>
      <point x="428" y="780" name="hr01"/>
      <point x="376" y="679"/>
      <point x="297" y="608"/>
      <point x="238" y="593" type="qcurve" name="ih01"/>
      <point x="278" y="582"/>
      <point x="332" y="538"/>
      <point x="363" y="476"/>
      <point x="377" y="399" name="hr02"/>
      <point x="377" y="355" type="qcurve" name="sh01"/>
      <point x="377" y="322"/>
      <point x="371" y="251"/>
      <point x="365" y="214" type="qcurve" name="sh02"/>
      <point x="342" y="39" type="line" name="sh03"/>
      <point x="338" y="6"/>
      <point x="332" y="-47"/>
      <point x="332" y="-69" type="qcurve" name="dh02"/>
      <point x="332" y="-99"/>
      <point x="344" y="-140"/>
      <point x="372" y="-165"/>
      <point x="419" y="-176"/>
      <point x="467" y="-176" type="qcurve"/>
      <point x="453" y="-278" type="line" name="av01"/>
      <point x="398" y="-278"/>
      <point x="314" y="-259"/>
      <point x="257" y="-212"/>
      <point x="227" y="-132"/>
      <point x="227" y="-72" type="qcurve" name="dh01"/>
      <point x="227" y="-32"/>
      <point x="233" y="19" type="qcurve" name="sh04"/>
      <point x="257" y="194" type="line"/>
      <point x="263" y="245"/>
      <point x="272" y="332"/>
      <point x="272" y="370" type="qcurve" name="ih02"/>
      <point x="272" y="410"/>
      <point x="259" y="473"/>
      <point x="225" y="518"/>
      <point x="169" y="542"/>
      <point x="125" y="542" type="qcurve" name="dv01"/>
      <point x="139" y="644" type="line" name="dv02"/>
      <point x="203" y="644"/>
      <point x="281" y="696"/>
      <point x="328" y="788"/>
      <point x="351" y="916"/>
      <point x="362" y="992" type="qcurve"/>
      <point x="384" y="1157" type="line" name="sh05"/>
      <point x="396" y="1245"/>
      <point x="445" y="1364"/>
      <point x="519" y="1434"/>
      <point x="620" y="1464"/>
      <point x="684" y="1464" type="qcurve" name="at01"/>
    </contour>
  </outline>
</glyph>
<glyph name="bar" format="2">
  <advance width="552"/>
  <unicode hex="007C"/>
  <outline>
    <contour>
      <point x="532" y="1536" type="line" name="av01"/>
      <point x="264" y="-490" type="line" name="ab01"/>
      <point x="158" y="-490" type="line"/>
      <point x="425" y="1536" type="line"/>
    </contour>
  </outline>
</glyph>
<glyph name="asciitilde" format="2">
  <advance width="936"/>
  <unicode hex="007E"/>
  <guideline x="0" y="1127" angle="0"/>
  <guideline x="1357" y="0" angle="135"/>
  <guideline x="931" y="0" angle="90"/>
  <guideline x="440" y="0" angle="135"/>
  <outline>
    <contour>
      <point x="134" y="407" type="line" name="hr00"/>
      <point x="138" y="435"/>
      <point x="176" y="515"/>
      <point x="238" y="589"/>
      <point x="322" y="641"/>
      <point x="372" y="641" type="qcurve" name="dv04"/>
      <point x="413" y="641"/>
      <point x="478" y="614"/>
      <point x="533" y="573"/>
      <point x="579" y="525"/>
      <point x="626" y="484"/>
      <point x="677" y="457"/>
      <point x="708" y="457" type="qcurve" name="dv02"/>
      <point x="740" y="457"/>
      <point x="789" y="489"/>
      <point x="827" y="541"/>
      <point x="850" y="607"/>
      <point x="854" y="641" type="qcurve" name="sv01"/>
      <point x="877" y="641" type="line"/>
      <point x="930" y="569" type="line"/>
      <point x="926" y="541"/>
      <point x="889" y="461"/>
      <point x="827" y="387"/>
      <point x="742" y="335"/>
      <point x="692" y="335" type="qcurve" name="dv01"/>
      <point x="647" y="335"/>
      <point x="582" y="362"/>
      <point x="529" y="403"/>
      <point x="485" y="451"/>
      <point x="440" y="492"/>
      <point x="388" y="519"/>
      <point x="355" y="519" type="qcurve" name="dv03"/>
      <point x="324" y="519"/>
      <point x="275" y="487"/>
      <point x="239" y="435"/>
      <point x="215" y="369"/>
      <point x="211" y="335" type="qcurve" name="sv02"/>
      <point x="188" y="335" type="line"/>
    </contour>
  </outline>
</glyph>
<glyph name="exclamdown" format="2">
  <advance width="552"/>
  <unicode hex="00A1"/>
  <outline>
    <contour>
      <point x="390" y="580" type="line" name="hr00"/>
      <point x="482" y="580" type="line"/>
      <point x="383" y="-460" type="line" name="sh01"/>
      <point x="214" y="-460" type="line"/>
    </contour>
    <contour>
      <point x="384" y="891" type="qcurve" name="dh01"/>
      <point x="384" y="867"/>
      <point x="397" y="827"/>
      <point x="421" y="795"/>
      <point x="451" y="778"/>
      <point x="469" y="778" type="qcurve" name="sv01"/>
      <point x="486" y="778"/>
      <point x="517" y="795"/>
      <point x="541" y="827"/>
      <point x="554" y="867"/>
      <point x="554" y="891" type="qcurve" name="dh02"/>
      <point x="554" y="914"/>
      <point x="541" y="955"/>
      <point x="517" y="987"/>
      <point x="486" y="1004"/>
      <point x="469" y="1004" type="qcurve" name="at01"/>
      <point x="451" y="1004"/>
      <point x="421" y="987"/>
      <point x="397" y="955"/>
      <point x="384" y="914"/>
    </contour>
  </outline>
</glyph>
<glyph name="curr:cent" format="2">
  <advance width="840"/>
  <unicode hex="00A2"/>
  <guideline x="255" y="0" angle="65"/>
  <outline>
    <contour>
      <point x="803" y="1206" type="line" name="av01"/>
      <point x="867" y="1191" type="line"/>
      <point x="745" y="939" type="line"/>
      <point x="769" y="919"/>
      <point x="805" y="872"/>
      <point x="818" y="849" type="qcurve"/>
      <point x="742" y="747" type="line" name="iv01"/>
      <point x="736" y="764"/>
      <point x="709" y="812"/>
      <point x="693" y="831" type="qcurve" name="iv02"/>
      <point x="345" y="109" type="line"/>
      <point x="385" y="72"/>
      <point x="444" y="72" type="qcurve" name="sv01"/>
      <point x="482" y="72"/>
      <point x="550" y="105"/>
      <point x="605" y="152"/>
      <point x="647" y="206"/>
      <point x="660" y="227" type="qcurve" name="iv03"/>
      <point x="737" y="125" type="line"/>
      <point x="713" y="96"/>
      <point x="652" y="41"/>
      <point x="576" y="-3"/>
      <point x="485" y="-30"/>
      <point x="431" y="-30" type="qcurve" name="ab01"/>
      <point x="392" y="-30"/>
      <point x="326" y="-12"/>
      <point x="294" y="5" type="qcurve"/>
      <point x="181" y="-232" type="line" name="av02"/>
      <point x="117" y="-217" type="line"/>
      <point x="242" y="43" type="line"/>
      <point x="184" y="97"/>
      <point x="119" y="272"/>
      <point x="119" y="384" type="qcurve" name="dh01"/>
      <point x="119" y="468"/>
      <point x="152" y="626"/>
      <point x="212" y="764"/>
      <point x="296" y="878"/>
      <point x="395" y="959"/>
      <point x="509" y="1004"/>
      <point x="568" y="1004" type="qcurve" name="at01"/>
      <point x="604" y="1004"/>
      <point x="665" y="989"/>
      <point x="692" y="975" type="qcurve"/>
    </contour>
    <contour>
      <point x="643" y="874" type="line"/>
      <point x="608" y="902"/>
      <point x="554" y="902" type="qcurve" name="sv02"/>
      <point x="491" y="902"/>
      <point x="379" y="812"/>
      <point x="296" y="666"/>
      <point x="248" y="480"/>
      <point x="248" y="384" type="qcurve" name="dh02"/>
      <point x="248" y="317"/>
      <point x="274" y="204"/>
      <point x="300" y="162" type="qcurve" name="iv04"/>
    </contour>
  </outline>
</glyph>
<glyph name="curr:sterling" format="2">
  <advance width="840"/>
  <unicode hex="00A3"/>
  <guideline x="125" y="0" angle="100"/>
  <guideline x="744" y="0" angle="90"/>
  <outline>
    <contour>
      <point x="218" y="803" type="line" name="hr00"/>
      <point x="375" y="803" type="line"/>
      <point x="379" y="830"/>
      <point x="375" y="906"/>
      <point x="371" y="993"/>
      <point x="369" y="1086" name="hr01"/>
      <point x="375" y="1130" type="qcurve"/>
      <point x="385" y="1203"/>
      <point x="434" y="1325"/>
      <point x="515" y="1414" name="hr02"/>
      <point x="627" y="1464"/>
      <point x="698" y="1464" type="qcurve" name="at01"/>
      <point x="744" y="1464"/>
      <point x="817" y="1429"/>
      <point x="872" y="1380"/>
      <point x="908" y="1327"/>
      <point x="917" y="1309" type="qcurve"/>
      <point x="827" y="1207" type="line" name="iv01"/>
      <point x="820" y="1237"/>
      <point x="793" y="1293"/>
      <point x="758" y="1336"/>
      <point x="715" y="1362"/>
      <point x="690" y="1362" type="qcurve" name="sv01"/>
      <point x="648" y="1362"/>
      <point x="582" y="1325"/>
      <point x="533" y="1261"/>
      <point x="502" y="1173"/>
      <point x="495" y="1122" type="qcurve"/>
      <point x="491" y="1090"/>
      <point x="488" y="1003"/>
      <point x="487" y="913"/>
      <point x="485" y="830"/>
      <point x="482" y="803" type="qcurve"/>
      <point x="713" y="803" type="line"/>
      <point x="697" y="678" type="line"/>
      <point x="467" y="693" type="line"/>
      <point x="455" y="601"/>
      <point x="405" y="433"/>
      <point x="342" y="286"/>
      <point x="272" y="161"/>
      <point x="240" y="112" type="qcurve"/>
      <point x="239" y="102" type="line" name="sv02"/>
      <point x="290" y="102"/>
      <point x="367" y="93"/>
      <point x="428" y="81"/>
      <point x="483" y="72"/>
      <point x="514" y="72" type="qcurve" name="sv03"/>
      <point x="547" y="72"/>
      <point x="605" y="105"/>
      <point x="651" y="153"/>
      <point x="687" y="207"/>
      <point x="698" y="227" type="qcurve" name="iv02"/>
      <point x="761" y="125" type="line"/>
      <point x="745" y="106"/>
      <point x="695" y="53"/>
      <point x="626" y="4"/>
      <point x="542" y="-30"/>
      <point x="494" y="-30" type="qcurve" name="ab01"/>
      <point x="455" y="-30"/>
      <point x="382" y="-21"/>
      <point x="298" y="-9"/>
      <point x="195" y="0"/>
      <point x="112" y="0" type="qcurve" name="ab02"/>
      <point x="125" y="102" type="line"/>
      <point x="159" y="151"/>
      <point x="229" y="257"/>
      <point x="292" y="395"/>
      <point x="344" y="576"/>
      <point x="362" y="701" type="qcurve"/>
      <point x="206" y="718" type="line"/>
    </contour>
  </outline>
</glyph>
<glyph name="curr:yen" format="2">
  <advance width="768"/>
  <unicode hex="00A5"/>
  <guideline x="305" y="0" angle="70"/>
  <guideline x="463" y="0" angle="110"/>
  <guideline x="682" y="0" angle="80"/>
  <guideline x="71" y="0" angle="90"/>
  <guideline x="607" y="0" angle="110"/>
  <guideline x="206" y="0" angle="70"/>
  <outline>
    <contour>
      <point x="401" y="1464" type="line" name="at01"/>
      <point x="500" y="742" type="line"/>
      <point x="508" y="742" type="line"/>
      <point x="800" y="1464" type="line" name="at02"/>
      <point x="886" y="1434" type="line"/>
      <point x="700" y="974" type="line" name="at03"/>
      <point x="810" y="974" type="line"/>
      <point x="797" y="872" type="line" name="sv01"/>
      <point x="658" y="872" type="line"/>
      <point x="566" y="645" type="line"/>
      <point x="767" y="645" type="line" name="dv02"/>
      <point x="753" y="543" type="line" name="dv01"/>
      <point x="524" y="543" type="line"/>
      <point x="452" y="0" type="line" name="ab01"/>
      <point x="316" y="0" type="line"/>
      <point x="387" y="543" type="line" name="sv02"/>
      <point x="158" y="543" type="line"/>
      <point x="171" y="645" type="line" name="sv03"/>
      <point x="371" y="645" type="line"/>
      <point x="340" y="872" type="line" name="sv04"/>
      <point x="201" y="872" type="line" name="sv05"/>
      <point x="215" y="974" type="line" name="at04"/>
      <point x="325" y="974" type="line"/>
      <point x="260" y="1434" type="line"/>
    </contour>
  </outline>
</glyph>
<glyph name="brokenbar" format="2">
  <advance width="552"/>
  <unicode hex="00A6"/>
  <outline>
    <contour>
      <point x="544" y="1682" type="line" name="av01"/>
      <point x="431" y="825" type="line"/>
      <point x="339" y="825" type="line"/>
      <point x="452" y="1682" type="line"/>
    </contour>
    <contour>
      <point x="193" y="-278" type="line" name="av02"/>
      <point x="307" y="579" type="line"/>
      <point x="398" y="579" type="line"/>
      <point x="284" y="-278" type="line"/>
    </contour>
  </outline>
</glyph>
<glyph name="dieresis" format="2">
  <advance width="576"/>
  <unicode hex="00A8"/>
  <outline>
    <contour>
      <point x="226" y="1280" type="qcurve" name="sh01"/>
      <point x="226" y="1299"/>
      <point x="238" y="1335"/>
      <point x="258" y="1362"/>
      <point x="285" y="1378"/>
      <point x="301" y="1378" type="qcurve" name="dv02"/>
      <point x="316" y="1378"/>
      <point x="344" y="1362"/>
      <point x="365" y="1335"/>
      <point x="377" y="1299"/>
      <point x="377" y="1280" type="qcurve" name="sh02"/>
      <point x="377" y="1259"/>
      <point x="365" y="1221"/>
      <point x="344" y="1192"/>
      <point x="316" y="1176"/>
      <point x="301" y="1176" type="qcurve" name="dv01"/>
      <point x="285" y="1176"/>
      <point x="258" y="1192"/>
      <point x="238" y="1221"/>
      <point x="226" y="1259"/>
    </contour>
    <contour>
      <point x="536" y="1280" type="qcurve" name="ah01"/>
      <point x="536" y="1299"/>
      <point x="548" y="1335"/>
      <point x="568" y="1362"/>
      <point x="595" y="1378"/>
      <point x="611" y="1378" type="qcurve" name="sv01"/>
      <point x="626" y="1378"/>
      <point x="653" y="1362"/>
      <point x="674" y="1335"/>
      <point x="687" y="1299"/>
      <point x="687" y="1280" type="qcurve" name="sh03"/>
      <point x="687" y="1259"/>
      <point x="674" y="1221"/>
      <point x="653" y="1192"/>
      <point x="626" y="1176"/>
      <point x="611" y="1176" type="qcurve" name="sv02"/>
      <point x="595" y="1176"/>
      <point x="568" y="1192"/>
      <point x="548" y="1221"/>
      <point x="536" y="1259"/>
    </contour>
  </outline>
</glyph>
<glyph name="sign:copyright" format="2">
  <advance width="1200"/>
  <unicode hex="00A9"/>
  <outline>
    <contour>
      <point x="914" y="941" type="line" name="ih01"/>
      <point x="908" y="959"/>
      <point x="884" y="1008"/>
      <point x="847" y="1052"/>
      <point x="796" y="1082"/>
      <point x="763" y="1082" type="qcurve" name="dv03"/>
      <point x="727" y="1082"/>
      <point x="659" y="1046"/>
      <point x="599" y="984"/>
      <point x="549" y="899"/>
      <point x="513" y="799"/>
      <point x="493" y="689"/>
      <point x="493" y="634" type="qcurve" name="dh04"/>
      <point x="493" y="574"/>
      <point x="517" y="470"/>
      <point x="562" y="393"/>
      <point x="626" y="350"/>
      <point x="666" y="350" type="qcurve" name="dv02"/>
      <point x="700" y="350"/>
      <point x="758" y="380"/>
      <point x="806" y="424"/>
      <point x="843" y="473"/>
      <point x="854" y="491" type="qcurve" name="ih02"/>
      <point x="908" y="402" type="line"/>
      <point x="889" y="378"/>
      <point x="836" y="330"/>
      <point x="772" y="292"/>
      <point x="697" y="268"/>
      <point x="656" y="268" type="qcurve" name="dv01"/>
      <point x="595" y="268"/>
      <point x="495" y="321"/>
      <point x="424" y="417"/>
      <point x="386" y="549"/>
      <point x="386" y="628" type="qcurve" name="dh03"/>
      <point x="386" y="698"/>
      <point x="414" y="832"/>
      <point x="465" y="951"/>
      <point x="536" y="1051"/>
      <point x="623" y="1124"/>
      <point x="722" y="1164"/>
      <point x="774" y="1164" type="qcurve" name="dv04"/>
      <point x="816" y="1164"/>
      <point x="884" y="1140"/>
      <point x="938" y="1102"/>
      <point x="978" y="1054"/>
      <point x="992" y="1030" type="qcurve"/>
    </contour>
    <contour>
      <point x="140" y="716" type="qcurve" name="dh01"/>
      <point x="140" y="819"/>
      <point x="179" y="1010"/>
      <point x="252" y="1177"/>
      <point x="355" y="1313"/>
      <point x="479" y="1411"/>
      <point x="623" y="1464"/>
      <point x="700" y="1464" type="qcurve" name="at01"/>
      <point x="777" y="1464"/>
      <point x="920" y="1411"/>
      <point x="1046" y="1313"/>
      <point x="1148" y="1177"/>
      <point x="1221" y="1010"/>
      <point x="1261" y="819"/>
      <point x="1261" y="716" type="qcurve" name="dh06"/>
      <point x="1261" y="613"/>
      <point x="1221" y="422"/>
      <point x="1148" y="256"/>
      <point x="1046" y="120"/>
      <point x="920" y="23"/>
      <point x="777" y="-30"/>
      <point x="700" y="-30" type="qcurve" name="ab01"/>
      <point x="623" y="-30"/>
      <point x="479" y="23"/>
      <point x="355" y="120"/>
      <point x="252" y="256"/>
      <point x="179" y="422"/>
      <point x="140" y="613"/>
    </contour>
    <contour>
      <point x="201" y="717" type="qcurve" name="dh02"/>
      <point x="201" y="627"/>
      <point x="238" y="459"/>
      <point x="304" y="312"/>
      <point x="396" y="189"/>
      <point x="507" y="101"/>
      <point x="633" y="52"/>
      <point x="700" y="52" type="qcurve" name="sv01"/>
      <point x="767" y="52"/>
      <point x="893" y="101"/>
      <point x="1004" y="189"/>
      <point x="1097" y="312"/>
      <point x="1163" y="459"/>
      <point x="1199" y="627"/>
      <point x="1199" y="717" type="qcurve" name="dh05"/>
      <point x="1199" y="806"/>
      <point x="1163" y="975"/>
      <point x="1097" y="1122"/>
      <point x="1004" y="1245"/>
      <point x="893" y="1333"/>
      <point x="767" y="1382"/>
      <point x="700" y="1382" type="qcurve" name="sv02"/>
      <point x="633" y="1382"/>
      <point x="507" y="1333"/>
      <point x="396" y="1245"/>
      <point x="304" y="1122"/>
      <point x="238" y="974"/>
      <point x="201" y="806"/>
    </contour>
  </outline>
</glyph>
<glyph name="guillemotleft" format="2">
  <advance width="768"/>
  <unicode hex="00AB"/>
  <guideline x="0" y="901" angle="0"/>
  <guideline x="399" y="0" angle="90"/>
  <guideline x="698" y="0" angle="90"/>
  <outline>
    <contour>
      <point x="740" y="906" type="line" name="av01"/>
      <point x="813" y="876" type="line"/>
      <point x="562" y="487" type="line"/>
      <point x="710" y="98" type="line"/>
      <point x="629" y="68" type="line" name="av03"/>
      <point x="439" y="487" type="line"/>
    </contour>
    <contour>
      <point x="442" y="906" type="line" name="av02"/>
      <point x="515" y="876" type="line"/>
      <point x="263" y="487" type="line"/>
      <point x="412" y="98" type="line"/>
      <point x="331" y="68" type="line" name="av04"/>
      <point x="140" y="487" type="line"/>
    </contour>
  </outline>
</glyph>
<glyph name="logicalnot" format="2">
  <advance width="864"/>
  <unicode hex="00AC"/>
  <outline>
    <contour>
      <point x="907" y="747" type="line" name="dv02"/>
      <point x="842" y="256" type="line" name="av01"/>
      <point x="751" y="256" type="line"/>
      <point x="800" y="625" type="line" name="dv01"/>
      <point x="137" y="625" type="line"/>
      <point x="152" y="747" type="line"/>
    </contour>
  </outline>
</glyph>
<glyph name="registered" format="2">
  <advance width="1200"/>
  <unicode hex="00AE"/>
  <outline>
    <contour>
      <point x="553" y="1152" type="line" name="dv02"/>
      <point x="737" y="1152" type="line"/>
      <point x="840" y="1152"/>
      <point x="943" y="1054"/>
      <point x="943" y="963" type="qcurve" name="dh04"/>
      <point x="943" y="902"/>
      <point x="904" y="805"/>
      <point x="842" y="732"/>
      <point x="764" y="683"/>
      <point x="725" y="671" type="qcurve"/>
      <point x="724" y="667" type="line"/>
      <point x="896" y="292" type="line" name="ih01"/>
      <point x="794" y="274" type="line"/>
      <point x="648" y="649" type="line"/>
      <point x="578" y="649" type="line"/>
      <point x="530" y="292" type="line"/>
      <point x="439" y="292" type="line"/>
    </contour>
    <contour>
      <point x="633" y="1070" type="line" name="dv01"/>
      <point x="587" y="722" type="line"/>
      <point x="668" y="722" type="line"/>
      <point x="704" y="722"/>
      <point x="770" y="758"/>
      <point x="821" y="820"/>
      <point x="851" y="902"/>
      <point x="851" y="949" type="qcurve" name="dh03"/>
      <point x="851" y="1013"/>
      <point x="786" y="1070"/>
      <point x="734" y="1070" type="qcurve"/>
    </contour>
    <contour>
      <point x="140" y="716" type="qcurve" name="dh01"/>
      <point x="140" y="819"/>
      <point x="179" y="1010"/>
      <point x="252" y="1177"/>
      <point x="355" y="1313"/>
      <point x="479" y="1411"/>
      <point x="623" y="1464"/>
      <point x="700" y="1464" type="qcurve" name="at01"/>
      <point x="777" y="1464"/>
      <point x="920" y="1411"/>
      <point x="1046" y="1313"/>
      <point x="1148" y="1177"/>
      <point x="1221" y="1010"/>
      <point x="1261" y="819"/>
      <point x="1261" y="716" type="qcurve" name="dh06"/>
      <point x="1261" y="613"/>
      <point x="1221" y="422"/>
      <point x="1148" y="256"/>
      <point x="1046" y="120"/>
      <point x="920" y="23"/>
      <point x="777" y="-30"/>
      <point x="700" y="-30" type="qcurve" name="ab01"/>
      <point x="623" y="-30"/>
      <point x="479" y="23"/>
      <point x="355" y="120"/>
      <point x="252" y="256"/>
      <point x="179" y="422"/>
      <point x="140" y="613"/>
    </contour>
    <contour>
      <point x="201" y="717" type="qcurve" name="dh02"/>
      <point x="201" y="627"/>
      <point x="238" y="459"/>
      <point x="304" y="312"/>
      <point x="396" y="189"/>
      <point x="507" y="101"/>
      <point x="633" y="52"/>
      <point x="700" y="52" type="qcurve" name="sv01"/>
      <point x="767" y="52"/>
      <point x="893" y="101"/>
      <point x="1004" y="189"/>
      <point x="1097" y="312"/>
      <point x="1163" y="459"/>
      <point x="1199" y="627"/>
      <point x="1199" y="717" type="qcurve" name="dh05"/>
      <point x="1199" y="806"/>
      <point x="1163" y="975"/>
      <point x="1097" y="1122"/>
      <point x="1004" y="1245"/>
      <point x="893" y="1333"/>
      <point x="767" y="1382"/>
      <point x="700" y="1382" type="qcurve" name="sv02"/>
      <point x="633" y="1382"/>
      <point x="507" y="1333"/>
      <point x="396" y="1245"/>
      <point x="304" y="1122"/>
      <point x="238" y="974"/>
      <point x="201" y="806"/>
    </contour>
  </outline>
</glyph>
<glyph name="sign:degree" format="2">
  <advance width="576"/>
  <unicode hex="00B0"/>
  <guideline x="0" y="1247" angle="0"/>
  <guideline x="268" y="0" angle="90"/>
  <outline>
    <contour>
      <point x="311" y="1269" type="qcurve" name="sh02"/>
      <point x="311" y="1228"/>
      <point x="333" y="1157"/>
      <point x="372" y="1106"/>
      <point x="425" y="1076"/>
      <point x="455" y="1076" type="qcurve" name="dv02"/>
      <point x="485" y="1076"/>
      <point x="539" y="1106"/>
      <point x="578" y="1157"/>
      <point x="601" y="1228"/>
      <point x="601" y="1269" type="qcurve" name="ah01"/>
      <point x="601" y="1309"/>
      <point x="578" y="1380"/>
      <point x="539" y="1434"/>
      <point x="485" y="1464"/>
      <point x="455" y="1464" type="qcurve" name="dv03"/>
      <point x="425" y="1464"/>
      <point x="372" y="1434"/>
      <point x="333" y="1380"/>
      <point x="311" y="1309"/>
    </contour>
    <contour>
      <point x="234" y="1269" type="qcurve" name="sh01"/>
      <point x="234" y="1329"/>
      <point x="269" y="1437"/>
      <point x="329" y="1519"/>
      <point x="410" y="1566"/>
      <point x="456" y="1566" type="qcurve" name="dv04"/>
      <point x="501" y="1566"/>
      <point x="583" y="1519"/>
      <point x="642" y="1437"/>
      <point x="677" y="1329"/>
      <point x="677" y="1269" type="qcurve" name="sh03"/>
      <point x="677" y="1208"/>
      <point x="642" y="1101"/>
      <point x="583" y="1020"/>
      <point x="501" y="974"/>
      <point x="456" y="974" type="qcurve" name="dv01"/>
      <point x="410" y="974"/>
      <point x="329" y="1020"/>
      <point x="269" y="1101"/>
      <point x="234" y="1208"/>
    </contour>
  </outline>
</glyph>
<glyph name="math:plusminus" format="2">
  <advance width="864"/>
  <unicode hex="00B1"/>
  <guideline x="722" y="0" angle="90"/>
  <outline>
    <contour>
      <point x="180" y="653" type="line" name="dv01"/>
      <point x="196" y="775" type="line" name="dv02"/>
      <point x="488" y="775" type="line"/>
      <point x="540" y="1165" type="line" name="av01"/>
      <point x="632" y="1165" type="line"/>
      <point x="580" y="775" type="line" name="sv01"/>
      <point x="872" y="775" type="line"/>
      <point x="857" y="653" type="line" name="sv02"/>
      <point x="564" y="653" type="line"/>
      <point x="512" y="263" type="line"/>
      <point x="421" y="263" type="line"/>
      <point x="473" y="653" type="line"/>
    </contour>
    <contour>
      <point x="94" y="0" type="line" name="ab01"/>
      <point x="110" y="122" type="line" name="sv03"/>
      <point x="786" y="122" type="line"/>
      <point x="770" y="0" type="line"/>
    </contour>
  </outline>
</glyph>
<glyph name="digit:two.superior" format="2">
  <advance width="552"/>
  <unicode hex="00B2"/>
  <guideline x="1319" y="0" angle="135"/>
  <outline>
    <contour>
      <point x="297" y="1362" type="line" name="hr00"/>
      <point x="333" y="1410"/>
      <point x="433" y="1464"/>
      <point x="482" y="1464" type="qcurve" name="at01"/>
      <point x="516" y="1464"/>
      <point x="575" y="1437"/>
      <point x="620" y="1386"/>
      <point x="644" y="1310"/>
      <point x="644" y="1262" type="qcurve" name="dh02"/>
      <point x="644" y="1216"/>
      <point x="629" y="1136"/>
      <point x="596" y="1058"/>
      <point x="543" y="976"/>
      <point x="467" y="879"/>
      <point x="365" y="762"/>
      <point x="301" y="689" type="qcurve" name="iv01"/>
      <point x="575" y="719" type="line"/>
      <point x="560" y="604" type="line" name="sh01"/>
      <point x="151" y="604" type="line"/>
      <point x="154" y="624" type="line"/>
      <point x="228" y="721"/>
      <point x="345" y="864"/>
      <point x="434" y="973"/>
      <point x="496" y="1056"/>
      <point x="534" y="1129"/>
      <point x="552" y="1201"/>
      <point x="552" y="1245" type="qcurve" name="dh01"/>
      <point x="552" y="1294"/>
      <point x="509" y="1362"/>
      <point x="469" y="1362" type="qcurve" name="sv01"/>
      <point x="434" y="1362"/>
      <point x="375" y="1316"/>
      <point x="353" y="1287" type="qcurve" name="iv02"/>
    </contour>
  </outline>
</glyph>
<glyph name="acute" format="2">
  <advance width="576"/>
  <unicode hex="00B4"/>
  <guideline x="2022" y="0" angle="90"/>
  <guideline x="208" y="0" angle="80"/>
  <outline>
    <contour>
      <point x="311" y="1176" type="line" name="hr00"/>
      <point x="544" y="1521" type="line" name="av01"/>
      <point x="566" y="1521" type="line"/>
      <point x="628" y="1434" type="line"/>
      <point x="628" y="1404" type="line"/>
      <point x="353" y="1116" type="line" name="av02"/>
    </contour>
  </outline>
</glyph>
<glyph name="sign:cedilla" format="2">
  <advance width="576"/>
  <unicode hex="00B8"/>
  <guideline x="638" y="0" angle="65"/>
  <outline>
    <contour>
      <point x="339" y="19" type="line" name="ih01"/>
      <point x="294" y="-110" type="line" name="iv01"/>
      <point x="312" y="-110"/>
      <point x="348" y="-132"/>
      <point x="378" y="-175"/>
      <point x="397" y="-240"/>
      <point x="397" y="-283" type="qcurve" name="dh02"/>
      <point x="397" y="-334" name="hr00"/>
      <point x="365" y="-411"/>
      <point x="317" y="-463"/>
      <point x="257" y="-490"/>
      <point x="230" y="-490" type="qcurve" name="ab01"/>
      <point x="203" y="-490"/>
      <point x="161" y="-476"/>
      <point x="130" y="-456"/>
      <point x="108" y="-433"/>
      <point x="101" y="-423" type="qcurve"/>
      <point x="142" y="-347" type="line" name="iv02"/>
      <point x="154" y="-373"/>
      <point x="197" y="-408"/>
      <point x="218" y="-408" type="qcurve" name="sv01"/>
      <point x="259" y="-408"/>
      <point x="305" y="-342"/>
      <point x="305" y="-288" type="qcurve" name="dh01"/>
      <point x="305" y="-266"/>
      <point x="292" y="-229"/>
      <point x="271" y="-204"/>
      <point x="244" y="-190"/>
      <point x="230" y="-190" type="qcurve" name="sv02"/>
      <point x="211" y="-190"/>
      <point x="177" y="-201"/>
      <point x="168" y="-206" type="qcurve" name="iv03"/>
      <point x="248" y="19" type="line"/>
    </contour>
  </outline>
</glyph>
<glyph name="onesuperior" format="2">
  <advance width="552"/>
  <unicode hex="00B9"/>
  <guideline x="506" y="0" angle="90"/>
  <guideline x="359" y="0" angle="90"/>
  <outline>
    <contour>
      <point x="560" y="1464" type="line" name="at01"/>
      <point x="446" y="604" type="line" name="av01"/>
      <point x="362" y="604" type="line"/>
      <point x="458" y="1335" type="line"/>
      <point x="453" y="1335" type="line" name="iv01"/>
      <point x="359" y="1309" type="line" name="iv02"/>
      <point x="359" y="1391" type="line"/>
      <point x="535" y="1464" type="line"/>
    </contour>
  </outline>
</glyph>
<glyph name="ordmasculine" format="2">
  <advance width="648"/>
  <unicode hex="00BA"/>
  <outline>
    <contour>
      <point x="518" y="1464" type="qcurve" name="at01"/>
      <point x="573" y="1464"/>
      <point x="659" y="1418"/>
      <point x="719" y="1334"/>
      <point x="750" y="1217"/>
      <point x="750" y="1146" type="qcurve" name="sh01"/>
      <point x="750" y="1050"/>
      <point x="699" y="871"/>
      <point x="608" y="732"/>
      <point x="483" y="649"/>
      <point x="410" y="649" type="qcurve" name="dv01"/>
      <point x="354" y="649"/>
      <point x="268" y="694"/>
      <point x="207" y="776"/>
      <point x="176" y="892"/>
      <point x="176" y="963" type="qcurve" name="sh02"/>
      <point x="176" y="1061"/>
      <point x="226" y="1242"/>
      <point x="317" y="1381"/>
      <point x="442" y="1464"/>
    </contour>
    <contour>
      <point x="504" y="1362" type="qcurve" name="sv01"/>
      <point x="449" y="1362"/>
      <point x="360" y="1291"/>
      <point x="299" y="1180"/>
      <point x="267" y="1046"/>
      <point x="267" y="984" type="qcurve" name="sh03"/>
      <point x="267" y="932"/>
      <point x="288" y="846"/>
      <point x="329" y="785"/>
      <point x="386" y="751"/>
      <point x="423" y="751" type="qcurve" name="dv02"/>
      <point x="479" y="751"/>
      <point x="566" y="823"/>
      <point x="627" y="935"/>
      <point x="659" y="1069"/>
      <point x="659" y="1131" type="qcurve" name="ah01"/>
      <point x="659" y="1182"/>
      <point x="638" y="1266"/>
      <point x="598" y="1328"/>
      <point x="540" y="1362"/>
    </contour>
  </outline>
</glyph>
<glyph name="sign:guillemetright" format="2">
  <advance width="768"/>
  <unicode hex="00BB"/>
  <guideline x="0" y="901" angle="0"/>
  <guideline x="446" y="0" angle="90"/>
  <guideline x="369" y="0" angle="90"/>
  <outline>
    <contour>
      <point x="457" y="487" type="line" name="hr00"/>
      <point x="155" y="68" type="line" name="av01"/>
      <point x="83" y="98" type="line"/>
      <point x="334" y="487" type="line"/>
      <point x="186" y="876" type="line"/>
      <point x="266" y="906" type="line" name="av03"/>
    </contour>
    <contour>
      <point x="755" y="487" type="line"/>
      <point x="454" y="68" type="line" name="av02"/>
      <point x="382" y="98" type="line"/>
      <point x="632" y="487" type="line"/>
      <point x="485" y="876" type="line"/>
      <point x="565" y="906" type="line" name="av04"/>
    </contour>
  </outline>
</glyph>
<glyph name="latn:AE" format="2">
  <advance width="1320"/>
  <unicode hex="00C6"/>
  <guideline x="39" y="0" angle="60"/>
  <guideline x="142" y="0" angle="60"/>
  <outline>
    <contour>
      <point x="849" y="1434" type="line" name="hr00"/>
      <point x="1433" y="1434" type="line"/>
      <point x="1415" y="1292" type="line"/>
      <point x="970" y="1312" type="line"/>
      <point x="907" y="839" type="line"/>
      <point x="1277" y="839" type="line" name="dv04"/>
      <point x="1261" y="717" type="line" name="dv03"/>
      <point x="891" y="717" type="line"/>
      <point x="812" y="122" type="line"/>
      <point x="1282" y="142" type="line"/>
      <point x="1263" y="0" type="line"/>
      <point x="660" y="0" type="line"/>
      <point x="708" y="365" type="line" name="dv01"/>
      <point x="348" y="365" type="line"/>
      <point x="125" y="-30" type="line" name="ab01"/>
      <point x="39" y="0" type="line"/>
    </contour>
    <contour>
      <point x="799" y="1163" type="line"/>
      <point x="417" y="487" type="line"/>
      <point x="724" y="487" type="line" name="dv02"/>
      <point x="814" y="1163" type="line"/>
    </contour>
  </outline>
</glyph>
<glyph name="Ccedilla" format="2">
  <advance width="1008"/>
  <unicode hex="00C7"/>
  <outline>
    <contour>
      <point x="1029" y="1112" type="line" name="iv01"/>
      <point x="1018" y="1149"/>
      <point x="972" y="1230"/>
      <point x="904" y="1298"/>
      <point x="813" y="1342"/>
      <point x="756" y="1342" type="qcurve" name="sv01"/>
      <point x="704" y="1342"/>
      <point x="595" y="1292"/>
      <point x="491" y="1197"/>
      <point x="399" y="1060"/>
      <point x="330" y="888"/>
      <point x="290" y="684"/>
      <point x="290" y="569" type="qcurve" name="dh02"/>
      <point x="290" y="450" name="hr00"/>
      <point x="341" y="272"/>
      <point x="425" y="152"/>
      <point x="533" y="92"/>
      <point x="591" y="92" type="qcurve" name="sv02"/>
      <point x="648" y="92"/>
      <point x="746" y="137"/>
      <point x="827" y="205"/>
      <point x="890" y="286"/>
      <point x="910" y="322" type="qcurve" name="iv02"/>
      <point x="998" y="204" type="line"/>
      <point x="958" y="157"/>
      <point x="876" y="77"/>
      <point x="784" y="15"/>
      <point x="678" y="-23"/>
      <point x="615" y="-28" type="qcurve" name="ab02"/>
      <point x="587" y="-110" type="line" name="ih01"/>
      <point x="605" y="-110"/>
      <point x="641" y="-132"/>
      <point x="671" y="-175"/>
      <point x="689" y="-240"/>
      <point x="689" y="-283" type="qcurve" name="dh04"/>
      <point x="689" y="-334"/>
      <point x="658" y="-411"/>
      <point x="610" y="-463"/>
      <point x="550" y="-490"/>
      <point x="522" y="-490" type="qcurve" name="ab01"/>
      <point x="496" y="-490"/>
      <point x="454" y="-476"/>
      <point x="422" y="-456"/>
      <point x="401" y="-433"/>
      <point x="394" y="-423" type="qcurve"/>
      <point x="434" y="-347" type="line" name="ih02"/>
      <point x="446" y="-373"/>
      <point x="489" y="-408"/>
      <point x="511" y="-408" type="qcurve" name="sv03"/>
      <point x="551" y="-408"/>
      <point x="598" y="-342"/>
      <point x="598" y="-288" type="qcurve" name="dh03"/>
      <point x="598" y="-266"/>
      <point x="584" y="-229"/>
      <point x="563" y="-204"/>
      <point x="536" y="-190"/>
      <point x="523" y="-190" type="qcurve" name="sv04"/>
      <point x="503" y="-190"/>
      <point x="470" y="-201"/>
      <point x="461" y="-206" type="qcurve" name="ih03"/>
      <point x="524" y="-26" type="line" name="ab03"/>
      <point x="445" y="-15"/>
      <point x="307" y="76"/>
      <point x="204" y="228"/>
      <point x="146" y="437"/>
      <point x="146" y="566" type="qcurve" name="dh01"/>
      <point x="146" y="694"/>
      <point x="193" y="927"/>
      <point x="276" y="1127"/>
      <point x="392" y="1288"/>
      <point x="527" y="1402"/>
      <point x="679" y="1464"/>
      <point x="758" y="1464" type="qcurve" name="at01"/>
      <point x="815" y="1464"/>
      <point x="919" y="1429"/>
      <point x="1010" y="1366"/>
      <point x="1086" y="1281"/>
      <point x="1118" y="1230" type="qcurve"/>
    </contour>
  </outline>
</glyph>
<glyph name="latn:Eth" format="2">
  <advance width="1128"/>
  <unicode hex="00D0"/>
  <guideline x="26" y="0" angle="90"/>
  <outline>
    <contour>
      <point x="333" y="1434" type="line" name="at01"/>
      <point x="653" y="1434" type="line"/>
      <point x="790" y="1434"/>
      <point x="994" y="1336"/>
      <point x="1119" y="1151"/>
      <point x="1164" y="885"/>
      <point x="1142" y="717" type="qcurve"/>
      <point x="1129" y="619"/>
      <point x="1067" y="436"/>
      <point x="974" y="277"/>
      <point x="855" y="145"/>
      <point x="716" y="52"/>
      <point x="557" y="0"/>
      <point x="472" y="0" type="qcurve" name="ab01"/>
      <point x="144" y="0" type="line"/>
      <point x="237" y="707" type="line" name="dv01"/>
      <point x="134" y="707" type="line"/>
      <point x="167" y="829" type="line"/>
      <point x="254" y="829" type="line" name="dv02"/>
    </contour>
    <contour>
      <point x="296" y="122" type="line" name="sv01"/>
      <point x="466" y="122" type="line"/>
      <point x="575" y="122"/>
      <point x="755" y="210"/>
      <point x="891" y="368"/>
      <point x="980" y="586"/>
      <point x="998" y="717" type="qcurve"/>
      <point x="1018" y="873"/>
      <point x="984" y="1097"/>
      <point x="884" y="1243"/>
      <point x="724" y="1312"/>
      <point x="618" y="1312" type="qcurve" name="sv02"/>
      <point x="454" y="1312" type="line"/>
      <point x="390" y="829" type="line" name="sv03"/>
      <point x="710" y="829" type="line" name="iv01"/>
      <point x="677" y="707" type="line" name="sv04"/>
      <point x="374" y="707" type="line"/>
    </contour>
  </outline>
</glyph>
<glyph name="latn:Thorn" format="2">
  <advance width="864"/>
  <unicode hex="00DE"/>
  <outline>
    <contour>
      <point x="326" y="1434" type="line" name="at01"/>
      <point x="462" y="1434" type="line"/>
      <point x="422" y="1126" type="line" name="sv02"/>
      <point x="569" y="1126" type="line"/>
      <point x="676" y="1126"/>
      <point x="819" y="1062"/>
      <point x="899" y="951"/>
      <point x="923" y="802"/>
      <point x="912" y="717" type="qcurve"/>
      <point x="901" y="632"/>
      <point x="838" y="483" name="hr00"/>
      <point x="728" y="372"/>
      <point x="568" y="308" name="hr01"/>
      <point x="461" y="308" type="qcurve" name="dv01"/>
      <point x="314" y="308" type="line"/>
      <point x="273" y="0" type="line" name="ab01"/>
      <point x="137" y="0" type="line"/>
    </contour>
    <contour>
      <point x="408" y="1024" type="line" name="sv01"/>
      <point x="327" y="410" type="line"/>
      <point x="455" y="410" type="line" name="dv02"/>
      <point x="524" y="410"/>
      <point x="633" y="455"/>
      <point x="711" y="536"/>
      <point x="759" y="649"/>
      <point x="768" y="717" type="qcurve"/>
      <point x="777" y="785"/>
      <point x="759" y="898"/>
      <point x="702" y="979"/>
      <point x="605" y="1024"/>
      <point x="536" y="1024" type="qcurve"/>
    </contour>
  </outline>
</glyph>
<glyph name="ae" format="2">
  <advance width="1200"/>
  <unicode hex="00E6"/>
  <guideline x="530" y="0" angle="90"/>
  <outline>
    <contour>
      <point x="707" y="487" type="line" name="dv03"/>
      <point x="704" y="458"/>
      <point x="699" y="391"/>
      <point x="699" y="369" type="qcurve"/>
      <point x="699" y="288"/>
      <point x="729" y="175"/>
      <point x="781" y="104"/>
      <point x="851" y="72"/>
      <point x="891" y="72" type="qcurve" name="sv01"/>
      <point x="928" y="72"/>
      <point x="989" y="103"/>
      <point x="1037" y="149"/>
      <point x="1074" y="204"/>
      <point x="1089" y="227" type="qcurve" name="ih01"/>
      <point x="1166" y="125" type="line"/>
      <point x="1151" y="106"/>
      <point x="1097" y="53"/>
      <point x="1022" y="4"/>
      <point x="929" y="-30"/>
      <point x="874" y="-30" type="qcurve" name="ab01"/>
      <point x="766" y="-30"/>
      <point x="623" y="83"/>
      <point x="592" y="195" type="qcurve"/>
      <point x="585" y="195" type="line"/>
      <point x="542" y="139"/>
      <point x="468" y="55"/>
      <point x="395" y="-2"/>
      <point x="313" y="-30"/>
      <point x="261" y="-30" type="qcurve" name="ab02"/>
      <point x="182" y="-30"/>
      <point x="97" y="86"/>
      <point x="97" y="183" type="qcurve" name="sh01"/>
      <point x="97" y="393"/>
      <point x="349" y="589"/>
      <point x="600" y="589" type="qcurve" name="dv02"/>
      <point x="610" y="667" type="line"/>
      <point x="614" y="700"/>
      <point x="614" y="728" type="qcurve"/>
      <point x="614" y="773"/>
      <point x="595" y="838"/>
      <point x="561" y="881"/>
      <point x="515" y="902"/>
      <point x="490" y="902" type="qcurve" name="sv02"/>
      <point x="461" y="902"/>
      <point x="401" y="880"/>
      <point x="345" y="839"/>
      <point x="294" y="782"/>
      <point x="274" y="747" type="qcurve" name="ih02"/>
      <point x="197" y="849" type="line"/>
      <point x="263" y="928"/>
      <point x="417" y="1004"/>
      <point x="503" y="1004" type="qcurve" name="at01"/>
      <point x="538" y="1004"/>
      <point x="602" y="983"/>
      <point x="658" y="944"/>
      <point x="702" y="885"/>
      <point x="716" y="848" type="qcurve" name="ih03"/>
      <point x="770" y="921"/>
      <point x="907" y="1004"/>
      <point x="986" y="1004" type="qcurve" name="at02"/>
      <point x="1040" y="1004"/>
      <point x="1130" y="960"/>
      <point x="1195" y="868"/>
      <point x="1231" y="726"/>
      <point x="1231" y="629" type="qcurve" name="sh02"/>
      <point x="1231" y="597"/>
      <point x="1226" y="525"/>
      <point x="1221" y="487" type="qcurve" name="sh03"/>
    </contour>
    <contour>
      <point x="592" y="527" type="line" name="dv01"/>
      <point x="550" y="527"/>
      <point x="462" y="515"/>
      <point x="380" y="487"/>
      <point x="307" y="440"/>
      <point x="252" y="369"/>
      <point x="221" y="274"/>
      <point x="221" y="211" type="qcurve" name="sh04"/>
      <point x="221" y="175"/>
      <point x="237" y="122"/>
      <point x="263" y="88"/>
      <point x="295" y="72"/>
      <point x="310" y="72" type="qcurve" name="sv03"/>
      <point x="384" y="72"/>
      <point x="498" y="154"/>
      <point x="553" y="233" type="qcurve"/>
    </contour>
    <contour>
      <point x="1120" y="589" type="line" name="sh05"/>
      <point x="1124" y="620"/>
      <point x="1124" y="652" type="qcurve" name="ah01"/>
      <point x="1124" y="703"/>
      <point x="1106" y="793"/>
      <point x="1068" y="862"/>
      <point x="1008" y="902"/>
      <point x="967" y="902" type="qcurve" name="sv04"/>
      <point x="920" y="902"/>
      <point x="841" y="853"/>
      <point x="778" y="769"/>
      <point x="733" y="655"/>
      <point x="721" y="589" type="qcurve" name="dv04"/>
    </contour>
  </outline>
</glyph>
<glyph name="latn:eth" format="2">
  <advance width="840"/>
  <unicode hex="00F0"/>
  <guideline x="0" y="706" angle="40"/>
  <guideline x="0" y="545" angle="40"/>
  <guideline x="0" y="952" angle="40"/>
  <guideline x="1598" y="0" angle="130"/>
  <guideline x="1256" y="0" angle="130"/>
  <outline>
    <contour>
      <point x="397" y="-32" type="qcurve" name="ab01"/>
      <point x="341" y="-32"/>
      <point x="243" y="15"/>
      <point x="170" y="105"/>
      <point x="128" y="234"/>
      <point x="128" y="317" type="qcurve" name="dh01"/>
      <point x="128" y="424"/>
      <point x="188" y="617"/>
      <point x="293" y="763"/>
      <point x="433" y="849"/>
      <point x="513" y="849" type="qcurve" name="dv02"/>
      <point x="545" y="849"/>
      <point x="606" y="826"/>
      <point x="660" y="779"/>
      <point x="704" y="707"/>
      <point x="717" y="659" type="qcurve"/>
      <point x="725" y="659" type="line"/>
      <point x="730" y="701" name="hr00"/>
      <point x="740" y="806"/>
      <point x="740" y="864" type="qcurve" name="sh01"/>
      <point x="740" y="936"/>
      <point x="717" y="1080"/>
      <point x="686" y="1143" type="qcurve" name="ih01"/>
      <point x="544" y="1005" type="line" name="ih02"/>
      <point x="496" y="1099" type="line"/>
      <point x="639" y="1238" type="line"/>
      <point x="567" y="1381" type="line"/>
      <point x="652" y="1464" type="line" name="ih03"/>
      <point x="724" y="1321" type="line" name="ih04"/>
      <point x="871" y="1464" type="line" name="at01"/>
      <point x="917" y="1369" type="line"/>
      <point x="772" y="1227" type="line"/>
      <point x="788" y="1192"/>
      <point x="818" y="1098"/>
      <point x="839" y="987"/>
      <point x="851" y="861"/>
      <point x="851" y="794" type="qcurve" name="dh04"/>
      <point x="851" y="677"/>
      <point x="815" y="465"/>
      <point x="751" y="281"/>
      <point x="664" y="132"/>
      <point x="563" y="26"/>
      <point x="452" y="-32"/>
    </contour>
    <contour>
      <point x="500" y="747" type="qcurve" name="dv01"/>
      <point x="449" y="747"/>
      <point x="361" y="673"/>
      <point x="296" y="553"/>
      <point x="258" y="400"/>
      <point x="258" y="321" type="qcurve" name="dh02"/>
      <point x="258" y="264"/>
      <point x="279" y="172"/>
      <point x="318" y="106"/>
      <point x="375" y="70"/>
      <point x="410" y="70" type="qcurve" name="sv01"/>
      <point x="449" y="70"/>
      <point x="518" y="107"/>
      <point x="577" y="170"/>
      <point x="624" y="254"/>
      <point x="657" y="346"/>
      <point x="675" y="441"/>
      <point x="675" y="485" type="qcurve" name="dh03"/>
      <point x="675" y="534"/>
      <point x="652" y="629"/>
      <point x="607" y="702"/>
      <point x="542" y="747"/>
    </contour>
  </outline>
</glyph>
<glyph name="math:divide" format="2">
  <advance width="864"/>
  <unicode hex="00F7"/>
  <outline>
    <contour>
      <point x="197" y="548" type="line" name="hr00"/>
      <point x="812" y="548" type="line" name="dv02"/>
      <point x="796" y="426" type="line" name="dv01"/>
      <point x="181" y="426" type="line"/>
    </contour>
    <contour>
      <point x="353" y="93" type="qcurve" name="dh01"/>
      <point x="353" y="118" name="hr01"/>
      <point x="367" y="163"/>
      <point x="392" y="197"/>
      <point x="425" y="216"/>
      <point x="445" y="216" type="qcurve" name="sv01"/>
      <point x="464" y="216"/>
      <point x="497" y="197"/>
      <point x="522" y="163"/>
      <point x="537" y="118"/>
      <point x="537" y="93" type="qcurve" name="dh02"/>
      <point x="537" y="68"/>
      <point x="522" y="23"/>
      <point x="497" y="-10"/>
      <point x="464" y="-30"/>
      <point x="445" y="-30" type="qcurve" name="ab01"/>
      <point x="425" y="-30"/>
      <point x="392" y="-10"/>
      <point x="367" y="23"/>
      <point x="353" y="68"/>
    </contour>
    <contour>
      <point x="457" y="881" type="qcurve" name="ih01"/>
      <point x="457" y="906"/>
      <point x="471" y="951"/>
      <point x="497" y="984"/>
      <point x="530" y="1004"/>
      <point x="549" y="1004" type="qcurve" name="at01"/>
      <point x="568" y="1004"/>
      <point x="602" y="984"/>
      <point x="626" y="951"/>
      <point x="641" y="906"/>
      <point x="641" y="881" type="qcurve" name="sh01"/>
      <point x="641" y="855"/>
      <point x="626" y="811"/>
      <point x="602" y="777"/>
      <point x="568" y="758"/>
      <point x="549" y="758" type="qcurve" name="sv02"/>
      <point x="530" y="758"/>
      <point x="497" y="777"/>
      <point x="471" y="811"/>
      <point x="457" y="855"/>
    </contour>
  </outline>
</glyph>
<glyph name="latn:thorn" format="2">
  <advance width="840"/>
  <unicode hex="00FE"/>
  <guideline x="38" y="0" angle="90"/>
  <outline>
    <contour>
      <point x="422" y="1464" type="line" name="at01"/>
      <point x="346" y="894" type="line" name="iv01"/>
      <point x="365" y="916"/>
      <point x="419" y="956"/>
      <point x="479" y="986"/>
      <point x="539" y="1004"/>
      <point x="566" y="1004" type="qcurve" name="at02"/>
      <point x="632" y="1004"/>
      <point x="738" y="946"/>
      <point x="812" y="841"/>
      <point x="851" y="694"/>
      <point x="851" y="605" type="qcurve" name="dh02"/>
      <point x="851" y="523"/>
      <point x="821" y="366"/>
      <point x="768" y="224"/>
      <point x="691" y="105"/>
      <point x="596" y="19"/>
      <point x="482" y="-30"/>
      <point x="419" y="-30" type="qcurve" name="ab02"/>
      <point x="391" y="-30"/>
      <point x="338" y="-13"/>
      <point x="290" y="15"/>
      <point x="251" y="52"/>
      <point x="237" y="72" type="qcurve" name="iv02"/>
      <point x="167" y="-460" type="line"/>
      <point x="64" y="-490" type="line" name="ab01"/>
      <point x="41" y="-490" type="line"/>
      <point x="296" y="1434" type="line"/>
      <point x="399" y="1464" type="line"/>
    </contour>
    <contour>
      <point x="425" y="72" type="qcurve" name="sv01"/>
      <point x="485" y="72"/>
      <point x="593" y="160"/>
      <point x="674" y="305"/>
      <point x="721" y="490"/>
      <point x="721" y="588" type="qcurve" name="dh01"/>
      <point x="721" y="659"/>
      <point x="694" y="775"/>
      <point x="645" y="857"/>
      <point x="577" y="902"/>
      <point x="536" y="902" type="qcurve" name="sv02"/>
      <point x="504" y="902"/>
      <point x="443" y="879"/>
      <point x="388" y="845"/>
      <point x="344" y="803"/>
      <point x="332" y="784" type="qcurve"/>
      <point x="253" y="190" type="line"/>
      <point x="262" y="172"/>
      <point x="293" y="131"/>
      <point x="337" y="95"/>
      <point x="392" y="72"/>
    </contour>
  </outline>
</glyph>
<glyph name="Aogonek" format="2">
  <advance width="1008"/>
  <unicode hex="0104"/>
  <guideline x="869" y="0" angle="100"/>
  <guideline x="948" y="0" angle="80"/>
  <guideline x="948" y="0" angle="90"/>
  <anchor x="700" y="1600" name="AccentAbove"/>
  <anchor x="850" y="1600" name="AccentAboveRight"/>
  <outline>
    <contour>
      <point x="948" y="0" type="line" name="hr00"/>
      <point x="913" y="-30"/>
      <point x="855" y="-87"/>
      <point x="815" y="-145"/>
      <point x="792" y="-207"/>
      <point x="792" y="-241" type="qcurve" name="dh02"/>
      <point x="792" y="-279"/>
      <point x="825" y="-328"/>
      <point x="849" y="-328" type="qcurve" name="dv02"/>
      <point x="866" y="-328"/>
      <point x="890" y="-318"/>
      <point x="908" y="-302" type="qcurve"/>
      <point x="923" y="-412" type="line"/>
      <point x="891" y="-429"/>
      <point x="850" y="-440"/>
      <point x="828" y="-440" type="qcurve" name="dv01"/>
      <point x="800" y="-440"/>
      <point x="753" y="-417"/>
      <point x="719" y="-373"/>
      <point x="701" y="-311"/>
      <point x="701" y="-272" type="qcurve" name="dh01"/>
      <point x="701" y="-230"/>
      <point x="726" y="-155"/>
      <point x="767" y="-91"/>
      <point x="815" y="-39"/>
      <point x="839" y="-21" type="qcurve"/>
      <point x="794" y="-30" type="line" name="sh01"/>
      <point x="731" y="365" type="line" name="dv03"/>
      <point x="302" y="365" type="line"/>
      <point x="130" y="-30" type="line"/>
      <point x="44" y="0" type="line"/>
      <point x="681" y="1464" type="line" name="at01"/>
      <point x="714" y="1464" type="line" name="sh02"/>
    </contour>
    <contour>
      <point x="611" y="1090" type="line"/>
      <point x="355" y="487" type="line"/>
      <point x="712" y="487" type="line" name="sh03"/>
      <point x="618" y="1090" type="line"/>
    </contour>
  </outline>
</glyph>
<glyph name="latn:Dstroke" format="2">
  <advance width="1128"/>
  <unicode hex="0110"/>
  <outline>
    <contour>
      <point x="333" y="1434" type="line" name="at01"/>
      <point x="653" y="1434" type="line"/>
      <point x="773" y="1434"/>
      <point x="959" y="1359"/>
      <point x="1086" y="1216"/>
      <point x="1152" y="1009"/>
      <point x="1152" y="877" type="qcurve" name="dh02"/>
      <point x="1152" y="760"/>
      <point x="1106" y="540"/>
      <point x="1019" y="345"/>
      <point x="897" y="182"/>
      <point x="746" y="65"/>
      <point x="569" y="0"/>
      <point x="472" y="0" type="qcurve" name="ab01"/>
      <point x="144" y="0" type="line"/>
      <point x="237" y="707" type="line" name="dv01"/>
      <point x="125" y="707" type="line"/>
      <point x="140" y="829" type="line"/>
      <point x="253" y="829" type="line" name="dv02"/>
    </contour>
    <contour>
      <point x="296" y="122" type="line" name="sv01"/>
      <point x="466" y="122" type="line"/>
      <point x="592" y="122"/>
      <point x="793" y="240"/>
      <point x="933" y="444"/>
      <point x="1008" y="717"/>
      <point x="1008" y="872" type="qcurve" name="dh01"/>
      <point x="1008" y="986"/>
      <point x="955" y="1152"/>
      <point x="854" y="1260"/>
      <point x="710" y="1312"/>
      <point x="618" y="1312" type="qcurve" name="sv02"/>
      <point x="454" y="1312" type="line"/>
      <point x="389" y="829" type="line" name="sv03"/>
      <point x="693" y="829" type="line"/>
      <point x="677" y="707" type="line" name="sv04"/>
      <point x="374" y="707" type="line"/>
    </contour>
  </outline>
</glyph>
<glyph name="latn:dstroke" format="2">
  <advance width="840"/>
  <unicode hex="0111"/>
  <guideline x="791" y="0" angle="90"/>
  <outline>
    <contour>
      <point x="807" y="1464" type="line" name="hr00"/>
      <point x="910" y="1494" type="line" name="av01"/>
      <point x="932" y="1494" type="line"/>
      <point x="905" y="1290" type="line"/>
      <point x="1011" y="1290" type="line"/>
      <point x="993" y="1158" type="line"/>
      <point x="889" y="1165" type="line"/>
      <point x="758" y="179" type="line" name="sh02"/>
      <point x="757" y="167"/>
      <point x="755" y="147"/>
      <point x="755" y="138" type="qcurve" name="sh01"/>
      <point x="755" y="105"/>
      <point x="778" y="72"/>
      <point x="803" y="72" type="qcurve" name="sv01"/>
      <point x="789" y="-30" type="line" name="ab01"/>
      <point x="712" y="-30"/>
      <point x="640" y="60"/>
      <point x="640" y="142" type="qcurve" name="ah01"/>
      <point x="632" y="142" type="line"/>
      <point x="614" y="114"/>
      <point x="565" y="54"/>
      <point x="503" y="3"/>
      <point x="428" y="-30"/>
      <point x="382" y="-30" type="qcurve" name="ab02"/>
      <point x="328" y="-30"/>
      <point x="232" y="23"/>
      <point x="160" y="124"/>
      <point x="118" y="271"/>
      <point x="118" y="366" type="qcurve" name="sh03"/>
      <point x="118" y="446"/>
      <point x="149" y="603"/>
      <point x="203" y="745"/>
      <point x="279" y="866"/>
      <point x="370" y="954"/>
      <point x="472" y="1004"/>
      <point x="526" y="1004" type="qcurve" name="at01"/>
      <point x="558" y="1004"/>
      <point x="617" y="986"/>
      <point x="669" y="957"/>
      <point x="710" y="921"/>
      <point x="725" y="902" type="qcurve" name="sv02"/>
      <point x="733" y="902" type="line"/>
      <point x="769" y="1174" type="line" name="sh04"/>
      <point x="587" y="1188" type="line"/>
      <point x="601" y="1290" type="line"/>
      <point x="784" y="1290" type="line"/>
    </contour>
    <contour>
      <point x="717" y="785" type="line"/>
      <point x="706" y="806"/>
      <point x="672" y="848"/>
      <point x="627" y="881"/>
      <point x="570" y="902"/>
      <point x="536" y="902" type="qcurve" name="sv03"/>
      <point x="496" y="902"/>
      <point x="422" y="860"/>
      <point x="358" y="787"/>
      <point x="305" y="685"/>
      <point x="268" y="566"/>
      <point x="247" y="432"/>
      <point x="247" y="363" type="qcurve" name="sh05"/>
      <point x="247" y="285"/>
      <point x="275" y="174"/>
      <point x="323" y="104"/>
      <point x="385" y="72"/>
      <point x="418" y="72" type="qcurve" name="sv04"/>
      <point x="453" y="72"/>
      <point x="518" y="105"/>
      <point x="577" y="158"/>
      <point x="628" y="227"/>
      <point x="648" y="263" type="qcurve" name="sh06"/>
    </contour>
  </outline>
</glyph>
<glyph name="latn:Eogonek" format="2">
  <advance width="816"/>
  <unicode hex="0118"/>
  <guideline x="854" y="0" angle="90"/>
  <guideline x="721" y="0" angle="80"/>
  <anchor x="600" y="1600" name="AccentAbove"/>
  <anchor x="750" y="1600" name="AccentAboveRight"/>
  <outline>
    <contour>
      <point x="326" y="1434" type="line" name="hr00"/>
      <point x="910" y="1434" type="line"/>
      <point x="891" y="1292" type="line"/>
      <point x="446" y="1312" type="line" name="sh01"/>
      <point x="383" y="839" type="line"/>
      <point x="754" y="839" type="line" name="dv04"/>
      <point x="737" y="717" type="line" name="dv03"/>
      <point x="368" y="717" type="line"/>
      <point x="289" y="122" type="line"/>
      <point x="758" y="142" type="line"/>
      <point x="740" y="0" type="line"/>
      <point x="692" y="0" type="line"/>
      <point x="659" y="-26"/>
      <point x="602" y="-82"/>
      <point x="560" y="-142"/>
      <point x="536" y="-207"/>
      <point x="536" y="-241" type="qcurve" name="dh02"/>
      <point x="536" y="-279"/>
      <point x="569" y="-328"/>
      <point x="593" y="-328" type="qcurve" name="dv02"/>
      <point x="609" y="-328"/>
      <point x="633" y="-318"/>
      <point x="652" y="-302" type="qcurve"/>
      <point x="666" y="-412" type="line"/>
      <point x="635" y="-429"/>
      <point x="593" y="-440"/>
      <point x="572" y="-440" type="qcurve" name="dv01"/>
      <point x="541" y="-440"/>
      <point x="493" y="-414"/>
      <point x="461" y="-369"/>
      <point x="444" y="-307"/>
      <point x="444" y="-272" type="qcurve" name="dh01"/>
      <point x="444" y="-193"/>
      <point x="492" y="-116" type="qcurve"/>
      <point x="533" y="-52"/>
      <point x="610" y="0" type="qcurve"/>
      <point x="137" y="0" type="line"/>
    </contour>
  </outline>
</glyph>
<glyph name="hbar" format="2">
  <advance width="840"/>
  <unicode hex="0127"/>
  <guideline x="15" y="0" angle="90"/>
  <guideline x="569" y="0" angle="90"/>
  <outline>
    <contour>
      <point x="185" y="1290" type="line" name="hr00"/>
      <point x="284" y="1290" type="line"/>
      <point x="308" y="1464" type="line"/>
      <point x="410" y="1494" type="line" name="av01"/>
      <point x="433" y="1494" type="line"/>
      <point x="406" y="1290" type="line"/>
      <point x="595" y="1290" type="line"/>
      <point x="577" y="1158" type="line"/>
      <point x="390" y="1171" type="line"/>
      <point x="346" y="837" type="line" name="hr01"/>
      <point x="353" y="837" type="line"/>
      <point x="412" y="916"/>
      <point x="542" y="1004"/>
      <point x="622" y="1004" type="qcurve" name="at01"/>
      <point x="668" y="1004"/>
      <point x="742" y="972"/>
      <point x="794" y="911" name="hr02"/>
      <point x="824" y="821"/>
      <point x="824" y="764" type="qcurve" name="sh01"/>
      <point x="824" y="733"/>
      <point x="819" y="697" type="qcurve" name="sh02"/>
      <point x="753" y="196" type="line" name="sh03"/>
      <point x="749" y="163"/>
      <point x="749" y="140" type="qcurve" name="dh02"/>
      <point x="749" y="104"/>
      <point x="771" y="72"/>
      <point x="795" y="72" type="qcurve"/>
      <point x="782" y="-30" type="line" name="ab01"/>
      <point x="731" y="-30"/>
      <point x="679" y="-4"/>
      <point x="645" y="43"/>
      <point x="630" y="109"/>
      <point x="630" y="149" type="qcurve" name="dh01"/>
      <point x="630" y="184"/>
      <point x="636" y="227" type="qcurve" name="sh04"/>
      <point x="698" y="697" type="line" name="sh05"/>
      <point x="701" y="720"/>
      <point x="701" y="745" type="qcurve" name="ih01"/>
      <point x="701" y="817"/>
      <point x="639" y="902"/>
      <point x="584" y="902" type="qcurve" name="sv01"/>
      <point x="546" y="902"/>
      <point x="475" y="869"/>
      <point x="410" y="812"/>
      <point x="352" y="738"/>
      <point x="327" y="696" type="qcurve"/>
      <point x="236" y="0" type="line" name="ab02"/>
      <point x="114" y="0" type="line"/>
      <point x="270" y="1180" type="line"/>
      <point x="171" y="1188" type="line"/>
    </contour>
  </outline>
</glyph>
<glyph name="jcircumflex" format="2">
  <advance width="432"/>
  <unicode hex="0135"/>
  <outline>
    <contour>
      <point x="284" y="974" type="line" name="hr00"/>
      <point x="387" y="1004" type="line" name="at02"/>
      <point x="410" y="1004" type="line"/>
      <point x="266" y="-77" type="line"/>
      <point x="251" y="-196"/>
      <point x="193" y="-354"/>
      <point x="112" y="-450"/>
      <point x="8" y="-490"/>
      <point x="-54" y="-490" type="qcurve" name="ab01"/>
      <point x="-41" y="-388" type="line" name="sv01"/>
      <point x="36" y="-388"/>
      <point x="119" y="-270"/>
      <point x="135" y="-152" type="qcurve"/>
    </contour>
    <contour>
      <point x="595" y="1249" type="line"/>
      <point x="515" y="1219" type="line"/>
      <point x="404" y="1434" type="line" name="at01"/>
      <point x="396" y="1434" type="line"/>
      <point x="227" y="1219" type="line"/>
      <point x="155" y="1249" type="line"/>
      <point x="353" y="1537" type="line" name="av01"/>
      <point x="474" y="1537" type="line"/>
    </contour>
  </outline>
</glyph>
<glyph name="Lslash" format="2">
  <advance width="816"/>
  <unicode hex="0141"/>
  <guideline x="0" y="504" angle="35"/>
  <guideline x="0" y="627" angle="35"/>
  <guideline x="461" y="0" angle="90"/>
  <guideline x="26" y="0" angle="90"/>
  <guideline x="579" y="0" angle="100"/>
  <outline>
    <contour>
      <point x="467" y="1464" type="line" name="at01"/>
      <point x="389" y="885" type="line"/>
      <point x="518" y="1004" type="line"/>
      <point x="533" y="896" type="line"/>
      <point x="371" y="746" type="line"/>
      <point x="289" y="122" type="line"/>
      <point x="758" y="142" type="line"/>
      <point x="739" y="0" type="line"/>
      <point x="137" y="0" type="line"/>
      <point x="215" y="601" type="line"/>
      <point x="113" y="505" type="line"/>
      <point x="98" y="613" type="line"/>
      <point x="233" y="739" type="line"/>
      <point x="326" y="1434" type="line"/>
    </contour>
  </outline>
</glyph>
<glyph name="latn:lstroke" format="2">
  <advance width="432"/>
  <unicode hex="0142"/>
  <guideline x="0" y="452" angle="39.24"/>
  <guideline x="0" y="557" angle="39.24"/>
  <outline>
    <contour>
      <point x="349" y="1464" type="line" name="hr00"/>
      <point x="452" y="1494" type="line" name="av01"/>
      <point x="474" y="1494" type="line"/>
      <point x="398" y="921" type="line" name="iv01"/>
      <point x="474" y="1004" type="line" name="iv02"/>
      <point x="491" y="880" type="line"/>
      <point x="376" y="755" type="line"/>
      <point x="316" y="300" type="line" name="sh01"/>
      <point x="313" y="279"/>
      <point x="309" y="225"/>
      <point x="309" y="209" type="qcurve" name="dh02"/>
      <point x="309" y="191"/>
      <point x="318" y="144"/>
      <point x="339" y="102"/>
      <point x="376" y="72"/>
      <point x="408" y="72" type="qcurve"/>
      <point x="395" y="-30" type="line" name="ab01"/>
      <point x="329" y="-30"/>
      <point x="251" y="14"/>
      <point x="206" y="82"/>
      <point x="188" y="165"/>
      <point x="188" y="204" type="qcurve" name="dh01"/>
      <point x="188" y="226"/>
      <point x="192" y="285"/>
      <point x="195" y="307" type="qcurve" name="sh02"/>
      <point x="234" y="600" type="line" name="ih01"/>
      <point x="153" y="512" type="line" name="iv03"/>
      <point x="137" y="636" type="line"/>
      <point x="256" y="766" type="line"/>
    </contour>
  </outline>
</glyph>
<glyph name="latn:eng" format="2">
  <advance width="840"/>
  <unicode hex="014B"/>
  <outline>
    <contour>
      <point x="410" y="-388" type="line" name="sv01"/>
      <point x="487" y="-388"/>
      <point x="569" y="-273"/>
      <point x="584" y="-163" type="qcurve"/>
      <point x="697" y="687" type="line" name="sh01"/>
      <point x="701" y="718"/>
      <point x="701" y="747" type="qcurve" name="dh01"/>
      <point x="701" y="822" name="hr00"/>
      <point x="642" y="902"/>
      <point x="584" y="902" type="qcurve" name="sv02"/>
      <point x="513" y="902"/>
      <point x="389" y="797"/>
      <point x="327" y="697" type="qcurve"/>
      <point x="236" y="0" type="line" name="ab01"/>
      <point x="114" y="0" type="line"/>
      <point x="239" y="944" type="line"/>
      <point x="341" y="974" type="line" name="at01"/>
      <point x="364" y="974" type="line"/>
      <point x="346" y="837" type="line"/>
      <point x="353" y="837" type="line"/>
      <point x="419" y="925"/>
      <point x="546" y="1004"/>
      <point x="614" y="1004" type="qcurve" name="at02"/>
      <point x="662" y="1004"/>
      <point x="740" y="972"/>
      <point x="795" y="911"/>
      <point x="824" y="823"/>
      <point x="824" y="767" type="qcurve" name="dh02"/>
      <point x="824" y="753"/>
      <point x="823" y="723"/>
      <point x="821" y="707" type="qcurve" name="sh02"/>
      <point x="718" y="-69" type="line"/>
      <point x="704" y="-175"/>
      <point x="654" y="-333"/>
      <point x="577" y="-438"/>
      <point x="470" y="-490"/>
      <point x="398" y="-490" type="qcurve" name="ab02"/>
    </contour>
  </outline>
</glyph>
<glyph name="latn:OE" format="2">
  <advance width="1416"/>
  <unicode hex="0152"/>
  <outline>
    <contour>
      <point x="603" y="-30" type="qcurve" name="ab01"/>
      <point x="515" y="-30"/>
      <point x="355" y="53"/>
      <point x="233" y="208"/>
      <point x="160" y="430"/>
      <point x="160" y="570" type="qcurve" name="dh01"/>
      <point x="160" y="695"/>
      <point x="207" y="925" name="hr00"/>
      <point x="292" y="1124"/>
      <point x="409" y="1286"/>
      <point x="548" y="1401"/>
      <point x="704" y="1464"/>
      <point x="786" y="1464" type="qcurve" name="at01"/>
      <point x="824" y="1464"/>
      <point x="896" y="1448"/>
      <point x="929" y="1434" type="qcurve" name="at02"/>
      <point x="1507" y="1434" type="line"/>
      <point x="1488" y="1292" type="line" name="sv01"/>
      <point x="1043" y="1312" type="line" name="sv02"/>
      <point x="980" y="839" type="line" name="hr01"/>
      <point x="1351" y="839" type="line" name="dv02"/>
      <point x="1334" y="717" type="line" name="dv01"/>
      <point x="965" y="717" type="line"/>
      <point x="886" y="122" type="line" name="sv03"/>
      <point x="1355" y="142" type="line" name="sv04"/>
      <point x="1337" y="0" type="line" name="ab02"/>
      <point x="755" y="0" type="line"/>
      <point x="716" y="-14"/>
      <point x="641" y="-30"/>
    </contour>
    <contour>
      <point x="777" y="1342" type="qcurve" name="sv05"/>
      <point x="717" y="1342"/>
      <point x="600" y="1287"/>
      <point x="495" y="1186"/>
      <point x="406" y="1045"/>
      <point x="341" y="872"/>
      <point x="304" y="672"/>
      <point x="304" y="564" type="qcurve" name="dh02"/>
      <point x="304" y="444"/>
      <point x="357" y="266"/>
      <point x="443" y="149"/>
      <point x="554" y="92"/>
      <point x="612" y="92" type="qcurve" name="sv06"/>
      <point x="682" y="92"/>
      <point x="751" y="131" type="qcurve"/>
      <point x="905" y="1304" type="line"/>
      <point x="875" y="1324"/>
      <point x="810" y="1342"/>
    </contour>
  </outline>
</glyph>
<glyph name="latn:oe" format="2">
  <advance width="1368"/>
  <unicode hex="0153"/>
  <outline>
    <contour>
      <point x="552" y="1004" type="qcurve" name="at01"/>
      <point x="652" y="1004"/>
      <point x="786" y="894"/>
      <point x="823" y="797" type="qcurve" name="ih01"/>
      <point x="887" y="894"/>
      <point x="1048" y="1004"/>
      <point x="1136" y="1004" type="qcurve" name="at02"/>
      <point x="1190" y="1004"/>
      <point x="1284" y="960"/>
      <point x="1355" y="868"/>
      <point x="1395" y="726"/>
      <point x="1395" y="629" type="qcurve" name="dh06"/>
      <point x="1395" y="597"/>
      <point x="1391" y="526"/>
      <point x="1385" y="487" type="qcurve" name="sh01"/>
      <point x="848" y="487" type="line" name="sh02"/>
      <point x="844" y="455"/>
      <point x="840" y="396"/>
      <point x="840" y="369" type="qcurve" name="dh04"/>
      <point x="840" y="288"/>
      <point x="873" y="175"/>
      <point x="929" y="104"/>
      <point x="1001" y="72"/>
      <point x="1041" y="72" type="qcurve" name="sv01"/>
      <point x="1077" y="72"/>
      <point x="1142" y="103"/>
      <point x="1196" y="149"/>
      <point x="1239" y="203"/>
      <point x="1253" y="227" type="qcurve" name="ih02"/>
      <point x="1331" y="125" type="line"/>
      <point x="1316" y="106"/>
      <point x="1259" y="53"/>
      <point x="1181" y="4"/>
      <point x="1082" y="-30"/>
      <point x="1024" y="-30" type="qcurve" name="ab01"/>
      <point x="814" y="-30"/>
      <point x="741" y="177" type="qcurve" name="ih03"/>
      <point x="677" y="80"/>
      <point x="515" y="-30"/>
      <point x="415" y="-30" type="qcurve" name="ab02"/>
      <point x="344" y="-30"/>
      <point x="232" y="30"/>
      <point x="153" y="139"/>
      <point x="111" y="290"/>
      <point x="111" y="381" type="qcurve" name="dh01"/>
      <point x="111" y="465"/>
      <point x="143" y="623"/>
      <point x="201" y="762"/>
      <point x="282" y="876"/>
      <point x="380" y="959"/>
      <point x="492" y="1004"/>
    </contour>
    <contour>
      <point x="539" y="902" type="qcurve" name="sv02"/>
      <point x="475" y="902"/>
      <point x="366" y="811"/>
      <point x="286" y="663"/>
      <point x="241" y="476"/>
      <point x="241" y="380" type="qcurve" name="dh02"/>
      <point x="241" y="313"/>
      <point x="266" y="200"/>
      <point x="314" y="118"/>
      <point x="383" y="72"/>
      <point x="428" y="72" type="qcurve" name="sv03"/>
      <point x="470" y="72"/>
      <point x="547" y="113"/>
      <point x="613" y="185"/>
      <point x="668" y="284"/>
      <point x="707" y="398"/>
      <point x="728" y="524"/>
      <point x="728" y="588" type="qcurve" name="dh03"/>
      <point x="728" y="655"/>
      <point x="702" y="770"/>
      <point x="653" y="854"/>
      <point x="583" y="902"/>
    </contour>
    <contour>
      <point x="1285" y="589" type="line" name="sh03"/>
      <point x="1289" y="620"/>
      <point x="1289" y="652" type="qcurve" name="dh05"/>
      <point x="1289" y="703"/>
      <point x="1267" y="793"/>
      <point x="1223" y="862"/>
      <point x="1159" y="902"/>
      <point x="1117" y="902" type="qcurve" name="sv04"/>
      <point x="1070" y="902"/>
      <point x="988" y="853"/>
      <point x="921" y="769"/>
      <point x="874" y="655"/>
      <point x="862" y="589" type="qcurve"/>
    </contour>
  </outline>
</glyph>
<glyph name="Scedilla" format="2">
  <advance width="864"/>
  <unicode hex="015E"/>
  <outline>
    <contour>
      <point x="840" y="1112" type="line" name="iv01"/>
      <point x="830" y="1143"/>
      <point x="790" y="1222"/>
      <point x="731" y="1293"/>
      <point x="654" y="1342"/>
      <point x="608" y="1342" type="qcurve" name="sv01"/>
      <point x="566" y="1342"/>
      <point x="498" y="1305"/>
      <point x="449" y="1241"/>
      <point x="422" y="1156"/>
      <point x="422" y="1107" type="qcurve" name="dh02"/>
      <point x="422" y="1072"/>
      <point x="441" y="1000"/>
      <point x="482" y="932"/>
      <point x="548" y="872"/>
      <point x="594" y="848" type="qcurve"/>
      <point x="720" y="782"/>
      <point x="840" y="573"/>
      <point x="840" y="441" type="qcurve" name="dh06"/>
      <point x="840" y="350"/>
      <point x="793" y="187"/>
      <point x="705" y="61"/>
      <point x="581" y="-20"/>
      <point x="503" y="-28" type="qcurve"/>
      <point x="474" y="-110" type="line" name="ih01"/>
      <point x="492" y="-110"/>
      <point x="528" y="-132"/>
      <point x="558" y="-175"/>
      <point x="577" y="-240"/>
      <point x="577" y="-283" type="qcurve" name="dh04"/>
      <point x="577" y="-334"/>
      <point x="545" y="-411"/>
      <point x="497" y="-463"/>
      <point x="437" y="-490"/>
      <point x="410" y="-490" type="qcurve" name="ab01"/>
      <point x="383" y="-490"/>
      <point x="341" y="-476"/>
      <point x="310" y="-456"/>
      <point x="288" y="-433"/>
      <point x="281" y="-423" type="qcurve"/>
      <point x="322" y="-347" type="line" name="ih02"/>
      <point x="334" y="-373"/>
      <point x="377" y="-408"/>
      <point x="398" y="-408" type="qcurve" name="sv02"/>
      <point x="439" y="-408"/>
      <point x="485" y="-342"/>
      <point x="485" y="-288" type="qcurve" name="dh03"/>
      <point x="485" y="-266"/>
      <point x="472" y="-229"/>
      <point x="451" y="-204"/>
      <point x="424" y="-190"/>
      <point x="410" y="-190" type="qcurve" name="dv01"/>
      <point x="391" y="-190"/>
      <point x="357" y="-201"/>
      <point x="348" y="-206" type="qcurve" name="ih03"/>
      <point x="410" y="-28" type="line"/>
      <point x="353" y="-21"/>
      <point x="260" y="20"/>
      <point x="185" y="81"/>
      <point x="125" y="160"/>
      <point x="101" y="204" type="qcurve"/>
      <point x="190" y="322" type="line" name="iv02"/>
      <point x="206" y="273"/>
      <point x="259" y="189"/>
      <point x="328" y="127"/>
      <point x="412" y="92"/>
      <point x="460" y="92" type="qcurve" name="dv02"/>
      <point x="518" y="92"/>
      <point x="606" y="139"/>
      <point x="665" y="218"/>
      <point x="696" y="322"/>
      <point x="696" y="378" type="qcurve" name="dh05"/>
      <point x="696" y="466"/>
      <point x="600" y="602"/>
      <point x="495" y="657" type="qcurve"/>
      <point x="444" y="684"/>
      <point x="366" y="763"/>
      <point x="313" y="861"/>
      <point x="286" y="977"/>
      <point x="286" y="1041" type="qcurve" name="dh01"/>
      <point x="286" y="1132"/>
      <point x="335" y="1288"/>
      <point x="423" y="1400"/>
      <point x="545" y="1464"/>
      <point x="618" y="1464" type="qcurve" name="at01"/>
      <point x="680" y="1464"/>
      <point x="782" y="1412"/>
      <point x="860" y="1338"/>
      <point x="914" y="1258"/>
      <point x="928" y="1230" type="qcurve"/>
    </contour>
  </outline>
</glyph>
<glyph name="Tcommaaccent" format="2">
  <advance width="864"/>
  <unicode hex="0162"/>
  <guideline x="466" y="0" angle="90"/>
  <outline>
    <contour>
      <point x="213" y="1434" type="line" name="hr00"/>
      <point x="1029" y="1434" type="line"/>
      <point x="1010" y="1292" type="line"/>
      <point x="674" y="1312" type="line"/>
      <point x="500" y="0" type="line" name="ab01"/>
      <point x="462" y="-110" type="line" name="iv01"/>
      <point x="480" y="-110"/>
      <point x="516" y="-132"/>
      <point x="546" y="-175"/>
      <point x="565" y="-240"/>
      <point x="565" y="-283" type="qcurve" name="dh02"/>
      <point x="565" y="-334"/>
      <point x="533" y="-411"/>
      <point x="485" y="-463"/>
      <point x="425" y="-490"/>
      <point x="398" y="-490" type="qcurve" name="ab03"/>
      <point x="371" y="-490"/>
      <point x="329" y="-476"/>
      <point x="298" y="-456"/>
      <point x="276" y="-433"/>
      <point x="269" y="-423" type="qcurve"/>
      <point x="310" y="-347" type="line" name="iv02"/>
      <point x="322" y="-373"/>
      <point x="365" y="-408"/>
      <point x="386" y="-408" type="qcurve" name="sv01"/>
      <point x="427" y="-408"/>
      <point x="473" y="-342"/>
      <point x="473" y="-288" type="qcurve" name="dh01"/>
      <point x="473" y="-266"/>
      <point x="460" y="-229"/>
      <point x="439" y="-204"/>
      <point x="412" y="-190"/>
      <point x="398" y="-190" type="qcurve"/>
      <point x="379" y="-190"/>
      <point x="345" y="-201"/>
      <point x="336" y="-206" type="qcurve" name="iv03"/>
      <point x="409" y="0" type="line" name="ab02"/>
      <point x="364" y="0" type="line"/>
      <point x="537" y="1312" type="line"/>
      <point x="194" y="1292" type="line"/>
    </contour>
  </outline>
</glyph>
<glyph name="latn:tcedilla" format="2">
  <advance width="552"/>
  <unicode hex="0163"/>
  <guideline x="446" y="0" angle="90"/>
  <guideline x="472" y="0" angle="80"/>
  <outline>
    <contour>
      <point x="485" y="1322" type="line" name="av01"/>
      <point x="443" y="1004" type="line" name="sh02"/>
      <point x="604" y="1004" type="line"/>
      <point x="587" y="872" type="line"/>
      <point x="427" y="885" type="line" name="sh03"/>
      <point x="349" y="297" type="line" name="sh04"/>
      <point x="345" y="273"/>
      <point x="341" y="230"/>
      <point x="341" y="211" type="qcurve" name="dh02"/>
      <point x="341" y="176"/>
      <point x="356" y="123"/>
      <point x="389" y="89"/>
      <point x="442" y="72"/>
      <point x="481" y="72" type="qcurve" name="dv02"/>
      <point x="467" y="-30" type="line" name="ab01"/>
      <point x="437" y="-30"/>
      <point x="383" y="-26" name="hr00"/>
      <point x="360" y="-21" type="qcurve" name="ab02"/>
      <point x="330" y="-110" type="line" name="ih01"/>
      <point x="348" y="-110"/>
      <point x="384" y="-132" name="hr01"/>
      <point x="414" y="-175"/>
      <point x="433" y="-240"/>
      <point x="433" y="-283" type="qcurve" name="sh01"/>
      <point x="433" y="-334"/>
      <point x="401" y="-411"/>
      <point x="353" y="-463"/>
      <point x="293" y="-490"/>
      <point x="266" y="-490" type="qcurve" name="ab03"/>
      <point x="239" y="-490"/>
      <point x="197" y="-476"/>
      <point x="166" y="-456"/>
      <point x="144" y="-433"/>
      <point x="137" y="-423" type="qcurve"/>
      <point x="178" y="-347" type="line" name="iv01"/>
      <point x="190" y="-373"/>
      <point x="233" y="-408"/>
      <point x="254" y="-408" type="qcurve" name="sv01"/>
      <point x="295" y="-408"/>
      <point x="341" y="-342"/>
      <point x="341" y="-288" type="qcurve" name="sh05"/>
      <point x="341" y="-266"/>
      <point x="328" y="-229"/>
      <point x="307" y="-204"/>
      <point x="280" y="-190"/>
      <point x="266" y="-190" type="qcurve" name="dv01"/>
      <point x="247" y="-190"/>
      <point x="213" y="-201"/>
      <point x="204" y="-206" type="qcurve" name="iv02"/>
      <point x="281" y="13" type="line"/>
      <point x="251" y="37"/>
      <point x="221" y="122"/>
      <point x="221" y="191" type="qcurve" name="dh01"/>
      <point x="221" y="217"/>
      <point x="225" y="284"/>
      <point x="231" y="326" type="qcurve" name="sh06"/>
      <point x="306" y="893" type="line"/>
      <point x="181" y="902" type="line"/>
      <point x="194" y="1004" type="line"/>
      <point x="321" y="1004" type="line"/>
      <point x="359" y="1292" type="line"/>
      <point x="462" y="1322" type="line"/>
    </contour>
  </outline>
</glyph>
<glyph name="latn:Tstroke" format="2">
  <advance width="864"/>
  <unicode hex="0166"/>
  <guideline x="223" y="0" angle="90"/>
  <guideline x="657" y="0" angle="90"/>
  <outline>
    <contour>
      <point x="213" y="1434" type="line" name="hr00"/>
      <point x="1029" y="1434" type="line"/>
      <point x="1010" y="1292" type="line"/>
      <point x="674" y="1312" type="line"/>
      <point x="610" y="829" type="line"/>
      <point x="796" y="829" type="line" name="dv02"/>
      <point x="779" y="707" type="line" name="dv01"/>
      <point x="593" y="707" type="line"/>
      <point x="500" y="0" type="line" name="ab01"/>
      <point x="364" y="0" type="line"/>
      <point x="457" y="707" type="line" name="sv01"/>
      <point x="271" y="707" type="line"/>
      <point x="287" y="829" type="line" name="sv02"/>
      <point x="473" y="829" type="line"/>
      <point x="537" y="1312" type="line"/>
      <point x="194" y="1292" type="line"/>
    </contour>
  </outline>
</glyph>
<glyph name="latn:Uogonek" format="2">
  <advance width="1128"/>
  <unicode hex="0172"/>
  <guideline x="0" y="454" angle="0"/>
  <guideline x="951" y="0" angle="90"/>
  <anchor x="750" y="1600" name="AccentAbove"/>
  <anchor x="1100" y="1600" name="AccentAboveRight"/>
  <outline>
    <contour>
      <point x="467" y="1464" type="line" name="sh01"/>
      <point x="347" y="562" type="line" name="sh04"/>
      <point x="344" y="535"/>
      <point x="339" y="495"/>
      <point x="336" y="462"/>
      <point x="335" y="434"/>
      <point x="335" y="418" type="qcurve" name="sh03"/>
      <point x="335" y="324"/>
      <point x="378" y="199"/>
      <point x="449" y="124"/>
      <point x="542" y="92"/>
      <point x="591" y="92" type="qcurve" name="sv01"/>
      <point x="653" y="92"/>
      <point x="774" y="137"/>
      <point x="878" y="242"/>
      <point x="954" y="414"/>
      <point x="971" y="542" type="qcurve"/>
      <point x="1094" y="1464" type="line" name="at01"/>
      <point x="1181" y="1434" type="line"/>
      <point x="1066" y="562" type="line"/>
      <point x="1050" y="445"/>
      <point x="989" y="259"/>
      <point x="902" y="119"/>
      <point x="791" y="25"/>
      <point x="725" y="0" type="qcurve"/>
      <point x="702" y="-19"/>
      <point x="647" y="-69"/>
      <point x="601" y="-131"/>
      <point x="570" y="-202"/>
      <point x="570" y="-241" type="qcurve" name="sh05"/>
      <point x="570" y="-279"/>
      <point x="603" y="-328"/>
      <point x="627" y="-328" type="qcurve" name="dv02"/>
      <point x="644" y="-328"/>
      <point x="668" y="-318"/>
      <point x="686" y="-302" type="qcurve"/>
      <point x="701" y="-412" type="line"/>
      <point x="669" y="-429"/>
      <point x="628" y="-440"/>
      <point x="606" y="-440" type="qcurve" name="dv01"/>
      <point x="575" y="-440"/>
      <point x="527" y="-414"/>
      <point x="495" y="-369"/>
      <point x="479" y="-307"/>
      <point x="479" y="-272" type="qcurve" name="ah01"/>
      <point x="479" y="-232"/>
      <point x="500" y="-161"/>
      <point x="536" y="-100"/>
      <point x="581" y="-49"/>
      <point x="604" y="-30" type="qcurve" name="ab01"/>
      <point x="560" y="-30" type="line" name="sh06"/>
      <point x="476" y="-30"/>
      <point x="343" y="22"/>
      <point x="250" y="129"/>
      <point x="200" y="293"/>
      <point x="200" y="404" type="qcurve" name="sh02"/>
      <point x="200" y="422"/>
      <point x="200" y="454"/>
      <point x="203" y="490"/>
      <point x="207" y="533"/>
      <point x="211" y="562" type="qcurve" name="sh07"/>
      <point x="326" y="1434" type="line" name="sh08"/>
    </contour>
  </outline>
</glyph>
<glyph name="uogonek" format="2">
  <advance width="840"/>
  <unicode hex="0173"/>
  <guideline x="786" y="0" angle="80"/>
  <anchor x="450" y="1100" name="AccentDefault"/>
  <outline>
    <contour>
      <point x="368" y="1004" type="line" name="at01"/>
      <point x="275" y="305" type="line" name="sh03"/>
      <point x="271" y="269"/>
      <point x="271" y="239" type="qcurve" name="sh02"/>
      <point x="271" y="193"/>
      <point x="291" y="129"/>
      <point x="325" y="90"/>
      <point x="369" y="72"/>
      <point x="393" y="72" type="qcurve" name="sv01"/>
      <point x="434" y="72"/>
      <point x="506" y="107"/>
      <point x="569" y="163"/>
      <point x="620" y="230"/>
      <point x="641" y="263" type="qcurve" name="sh05"/>
      <point x="734" y="974" type="line"/>
      <point x="838" y="1004" type="line" name="at02"/>
      <point x="860" y="1004" type="line"/>
      <point x="752" y="189" type="line"/>
      <point x="750" y="174"/>
      <point x="749" y="149"/>
      <point x="749" y="138" type="qcurve"/>
      <point x="749" y="101"/>
      <point x="772" y="72"/>
      <point x="795" y="72" type="qcurve" name="sv02"/>
      <point x="782" y="-30" type="line" name="ab01"/>
      <point x="773" y="-30"/>
      <point x="758" y="-29"/>
      <point x="751" y="-28" type="qcurve" name="ab02"/>
      <point x="731" y="-47"/>
      <point x="689" y="-91"/>
      <point x="653" y="-144"/>
      <point x="629" y="-205"/>
      <point x="629" y="-241" type="qcurve" name="sh04"/>
      <point x="629" y="-279"/>
      <point x="662" y="-328"/>
      <point x="686" y="-328" type="qcurve" name="dv02"/>
      <point x="703" y="-328"/>
      <point x="727" y="-318"/>
      <point x="746" y="-302" type="qcurve"/>
      <point x="760" y="-412" type="line"/>
      <point x="728" y="-429"/>
      <point x="687" y="-440"/>
      <point x="665" y="-440" type="qcurve" name="dv01"/>
      <point x="635" y="-440"/>
      <point x="587" y="-414"/>
      <point x="554" y="-369"/>
      <point x="538" y="-307"/>
      <point x="538" y="-272" type="qcurve" name="ah01"/>
      <point x="538" y="-226"/>
      <point x="566" y="-146"/>
      <point x="611" y="-80"/>
      <point x="665" y="-27"/>
      <point x="692" y="-7" type="qcurve" name="iv01"/>
      <point x="661" y="16"/>
      <point x="635" y="97"/>
      <point x="632" y="142" type="qcurve" name="sh06"/>
      <point x="625" y="142" type="line"/>
      <point x="608" y="116"/>
      <point x="556" y="56"/>
      <point x="486" y="4"/>
      <point x="402" y="-30"/>
      <point x="355" y="-30" type="qcurve" name="ab03"/>
      <point x="314" y="-30"/>
      <point x="238" y="-3"/>
      <point x="180" y="55"/>
      <point x="146" y="146"/>
      <point x="146" y="210" type="qcurve" name="sh01"/>
      <point x="146" y="227"/>
      <point x="149" y="261"/>
      <point x="151" y="280" type="qcurve" name="sh07"/>
      <point x="242" y="974" type="line"/>
      <point x="346" y="1004" type="line"/>
    </contour>
  </outline>
</glyph>
<glyph name="latn:longs" format="2">
  <advance width="432"/>
  <unicode hex="017F"/>
  <guideline x="415" y="0" angle="90"/>
  <guideline x="416" y="0" angle="80"/>
  <outline>
    <contour>
      <point x="253" y="0" type="line" name="ab01"/>
      <point x="131" y="0" type="line"/>
      <point x="278" y="1108" type="line"/>
      <point x="290" y="1198"/>
      <point x="335" y="1331"/>
      <point x="413" y="1420"/>
      <point x="527" y="1464"/>
      <point x="608" y="1464" type="qcurve" name="at01"/>
      <point x="595" y="1362" type="line" name="sv01"/>
      <point x="547" y="1361"/>
      <point x="480" y="1327"/>
      <point x="435" y="1268"/>
      <point x="410" y="1186"/>
      <point x="403" y="1137" type="qcurve"/>
    </contour>
  </outline>
</glyph>
<glyph name="florin" format="2">
  <advance width="768"/>
  <unicode hex="0192"/>
  <guideline x="700" y="0" angle="80"/>
  <guideline x="-24" y="0" angle="80"/>
  <guideline x="-38" y="0" angle="90"/>
  <outline>
    <contour>
      <point x="401" y="738" type="line" name="hr00"/>
      <point x="291" y="746" type="line"/>
      <point x="305" y="848" type="line"/>
      <point x="431" y="848" type="line"/>
      <point x="491" y="1074" type="line"/>
      <point x="518" y="1179"/>
      <point x="594" y="1359"/>
      <point x="695" y="1491"/>
      <point x="825" y="1566"/>
      <point x="908" y="1566" type="qcurve" name="dv02"/>
      <point x="894" y="1464" type="line" name="dv01"/>
      <point x="840" y="1464"/>
      <point x="754" y="1402"/>
      <point x="685" y="1295"/>
      <point x="632" y="1154"/>
      <point x="611" y="1075" type="qcurve"/>
      <point x="552" y="848" type="line"/>
      <point x="731" y="848" type="line"/>
      <point x="713" y="716" type="line"/>
      <point x="521" y="731" type="line"/>
      <point x="328" y="0" type="line"/>
      <point x="300" y="-106"/>
      <point x="224" y="-285"/>
      <point x="123" y="-416"/>
      <point x="-7" y="-489"/>
      <point x="-89" y="-490" type="qcurve" name="ab01"/>
      <point x="-75" y="-388" type="line" name="sv01"/>
      <point x="-19" y="-388"/>
      <point x="68" y="-327"/>
      <point x="135" y="-222"/>
      <point x="186" y="-80"/>
      <point x="207" y="0" type="qcurve"/>
    </contour>
  </outline>
</glyph>
<glyph name="jdotless" format="2">
  <advance width="432"/>
  <unicode hex="0237"/>
  <guideline x="-17" y="0" angle="100"/>
  <anchor x="420" y="1100" name="AccentAbove"/>
  <anchor x="520" y="1200" name="AccentAboveRight"/>
  <anchor x="246" y="-400" name="AccentBelow"/>
  <anchor x="260" y="486" name="AccentOverlay"/>
  <outline>
    <contour>
      <point x="284" y="974" type="line" name="hr00"/>
      <point x="387" y="1004" type="line" name="at01"/>
      <point x="410" y="1004" type="line"/>
      <point x="266" y="-77" type="line"/>
      <point x="251" y="-196"/>
      <point x="193" y="-354"/>
      <point x="112" y="-450"/>
      <point x="8" y="-490"/>
      <point x="-54" y="-490" type="qcurve" name="ab01"/>
      <point x="-41" y="-388" type="line" name="sv01"/>
      <point x="36" y="-388"/>
      <point x="119" y="-270"/>
      <point x="135" y="-152" type="qcurve"/>
    </contour>
  </outline>
</glyph>
<glyph name="latn:alpha" format="2">
  <advance width="840"/>
  <unicode hex="0251"/>
  <outline>
    <contour>
      <point x="868" y="1004" type="line" name="at01"/>
      <point x="758" y="179" type="line"/>
      <point x="757" y="167"/>
      <point x="755" y="147"/>
      <point x="755" y="138" type="qcurve"/>
      <point x="755" y="105"/>
      <point x="778" y="72"/>
      <point x="803" y="72" type="qcurve" name="sv01"/>
      <point x="789" y="-30" type="line" name="ab01"/>
      <point x="732" y="-30"/>
      <point x="677" y="-10"/>
      <point x="646" y="21"/>
      <point x="632" y="57"/>
      <point x="630" y="72" type="qcurve" name="sv02"/>
      <point x="623" y="72" type="line" name="sv03"/>
      <point x="582" y="27"/>
      <point x="484" y="-30"/>
      <point x="416" y="-30" type="qcurve" name="ab02"/>
      <point x="353" y="-30"/>
      <point x="242" y="24"/>
      <point x="159" y="128"/>
      <point x="111" y="279"/>
      <point x="111" y="377" type="qcurve" name="dh01"/>
      <point x="111" y="458"/>
      <point x="143" y="614"/>
      <point x="200" y="753"/>
      <point x="280" y="871"/>
      <point x="378" y="956"/>
      <point x="491" y="1004"/>
      <point x="553" y="1004" type="qcurve" name="at02"/>
      <point x="585" y="1004"/>
      <point x="638" y="994"/>
      <point x="681" y="976"/>
      <point x="719" y="950"/>
      <point x="737" y="934" type="qcurve"/>
      <point x="845" y="1004" type="line"/>
    </contour>
    <contour>
      <point x="721" y="815" type="line"/>
      <point x="685" y="861"/>
      <point x="598" y="902"/>
      <point x="539" y="902" type="qcurve" name="sv04"/>
      <point x="501" y="902"/>
      <point x="428" y="863"/>
      <point x="361" y="793"/>
      <point x="304" y="697"/>
      <point x="263" y="581"/>
      <point x="239" y="450"/>
      <point x="239" y="381" type="qcurve" name="dh02"/>
      <point x="239" y="297"/>
      <point x="275" y="180"/>
      <point x="330" y="106"/>
      <point x="398" y="72"/>
      <point x="429" y="72" type="qcurve" name="sv05"/>
      <point x="458" y="72"/>
      <point x="512" y="83"/>
      <point x="563" y="108"/>
      <point x="612" y="151"/>
      <point x="638" y="183" type="qcurve"/>
    </contour>
  </outline>
</glyph>
<glyph name="uni0252" format="2">
  <advance width="840"/>
  <unicode hex="0252"/>
  <outline>
    <contour>
      <point x="242" y="0" type="line" name="ab02"/>
      <point x="120" y="0" type="line"/>
      <point x="225" y="795" type="line"/>
      <point x="227" y="807"/>
      <point x="228" y="827"/>
      <point x="228" y="836" type="qcurve"/>
      <point x="228" y="869"/>
      <point x="206" y="902"/>
      <point x="181" y="902" type="qcurve" name="sv01"/>
      <point x="194" y="1004" type="line" name="at01"/>
      <point x="251" y="1004"/>
      <point x="305" y="967"/>
      <point x="334" y="914"/>
      <point x="344" y="854"/>
      <point x="344" y="832" type="qcurve"/>
      <point x="351" y="832" type="line"/>
      <point x="370" y="860"/>
      <point x="419" y="920" name="hr00"/>
      <point x="480" y="971"/>
      <point x="556" y="1004"/>
      <point x="602" y="1004" type="qcurve" name="at02"/>
      <point x="656" y="1004"/>
      <point x="752" y="951"/>
      <point x="824" y="850"/>
      <point x="866" y="703"/>
      <point x="866" y="608" type="qcurve" name="dh02"/>
      <point x="866" y="534"/>
      <point x="838" y="382"/>
      <point x="786" y="241"/>
      <point x="713" y="116"/>
      <point x="623" y="24"/>
      <point x="517" y="-30"/>
      <point x="458" y="-30" type="qcurve" name="ab01"/>
      <point x="425" y="-30"/>
      <point x="365" y="-13"/>
      <point x="314" y="15"/>
      <point x="272" y="52"/>
      <point x="258" y="72" type="qcurve" name="sv02"/>
      <point x="251" y="72" type="line"/>
    </contour>
    <contour>
      <point x="266" y="189" type="line"/>
      <point x="278" y="168"/>
      <point x="311" y="126"/>
      <point x="356" y="93"/>
      <point x="413" y="72"/>
      <point x="448" y="72" type="qcurve" name="sv03"/>
      <point x="507" y="72"/>
      <point x="613" y="164"/>
      <point x="692" y="315"/>
      <point x="737" y="510"/>
      <point x="737" y="613" type="qcurve" name="dh01"/>
      <point x="737" y="691"/>
      <point x="708" y="801"/>
      <point x="660" y="870"/>
      <point x="599" y="902"/>
      <point x="566" y="902" type="qcurve" name="sv04"/>
      <point x="530" y="902"/>
      <point x="465" y="869"/>
      <point x="407" y="816"/>
      <point x="356" y="747"/>
      <point x="335" y="711" type="qcurve"/>
    </contour>
  </outline>
</glyph>
<glyph name="latn:schwa" format="2">
  <advance width="768"/>
  <unicode hex="0259"/>
  <outline>
    <contour>
      <point x="640" y="487" type="line" name="sh01"/>
      <point x="644" y="519"/>
      <point x="648" y="578"/>
      <point x="648" y="605" type="qcurve" name="ah01"/>
      <point x="648" y="686"/>
      <point x="616" y="799"/>
      <point x="561" y="870"/>
      <point x="488" y="902"/>
      <point x="449" y="902" type="qcurve" name="sv01"/>
      <point x="412" y="902"/>
      <point x="347" y="871"/>
      <point x="293" y="824"/>
      <point x="250" y="770"/>
      <point x="236" y="747" type="qcurve" name="ih01"/>
      <point x="159" y="849" type="line"/>
      <point x="174" y="868"/>
      <point x="233" y="921"/>
      <point x="313" y="970"/>
      <point x="411" y="1004"/>
      <point x="466" y="1004" type="qcurve" name="at01"/>
      <point x="538" y="1004"/>
      <point x="653" y="953"/>
      <point x="734" y="852"/>
      <point x="777" y="702"/>
      <point x="777" y="603" type="qcurve" name="sh03"/>
      <point x="777" y="475"/>
      <point x="710" y="245"/>
      <point x="595" y="72"/>
      <point x="440" y="-30"/>
      <point x="353" y="-30" type="qcurve" name="ab01"/>
      <point x="299" y="-30"/>
      <point x="205" y="14"/>
      <point x="134" y="106"/>
      <point x="94" y="247"/>
      <point x="94" y="345" type="qcurve" name="sh02"/>
      <point x="94" y="377"/>
      <point x="98" y="449"/>
      <point x="104" y="487" type="qcurve" name="sh04"/>
    </contour>
    <contour>
      <point x="205" y="385" type="line" name="sh06"/>
      <point x="200" y="353"/>
      <point x="200" y="322" type="qcurve" name="sh05"/>
      <point x="200" y="271"/>
      <point x="223" y="181"/>
      <point x="266" y="112"/>
      <point x="331" y="72"/>
      <point x="373" y="72" type="qcurve" name="sv02"/>
      <point x="419" y="72"/>
      <point x="501" y="121"/>
      <point x="567" y="205"/>
      <point x="614" y="319"/>
      <point x="626" y="385" type="qcurve"/>
    </contour>
  </outline>
</glyph>
<glyph name="uni025A" format="2">
  <advance width="1080"/>
  <unicode hex="025A"/>
  <guideline x="0" y="216" angle="30"/>
  <guideline x="0" y="114" angle="30"/>
  <guideline x="362" y="0" angle="90"/>
  <guideline x="1014" y="0" angle="118"/>
  <outline>
    <contour>
      <point x="188" y="849" type="line" name="hr00"/>
      <point x="211" y="877"/>
      <point x="272" y="932"/>
      <point x="350" y="976"/>
      <point x="443" y="1004"/>
      <point x="496" y="1004" type="qcurve" name="at01"/>
      <point x="556" y="1004"/>
      <point x="647" y="965"/>
      <point x="714" y="904"/>
      <point x="760" y="827"/>
      <point x="775" y="789" type="qcurve" name="ih01"/>
      <point x="1054" y="1004" type="line" name="ih02"/>
      <point x="1061" y="974" type="line"/>
      <point x="1039" y="942"/>
      <point x="1002" y="886"/>
      <point x="976" y="830"/>
      <point x="962" y="770"/>
      <point x="962" y="734" type="qcurve" name="dh04"/>
      <point x="962" y="702" name="hr01"/>
      <point x="992" y="653"/>
      <point x="1020" y="653" type="qcurve" name="dv02"/>
      <point x="1049" y="653"/>
      <point x="1080" y="707"/>
      <point x="1080" y="746" type="qcurve"/>
      <point x="1154" y="746" type="line" name="sh01"/>
      <point x="1154" y="706"/>
      <point x="1132" y="635"/>
      <point x="1094" y="582"/>
      <point x="1043" y="551"/>
      <point x="1013" y="551" type="qcurve" name="dv01"/>
      <point x="988" y="551"/>
      <point x="945" y="574"/>
      <point x="914" y="614"/>
      <point x="897" y="669"/>
      <point x="897" y="701" type="qcurve" name="dh03"/>
      <point x="897" y="724"/>
      <point x="905" y="764"/>
      <point x="911" y="782" type="qcurve"/>
      <point x="908" y="791" type="line" name="ih03"/>
      <point x="798" y="705" type="line"/>
      <point x="804" y="676"/>
      <point x="808" y="624"/>
      <point x="808" y="594" type="qcurve" name="dh02"/>
      <point x="808" y="471"/>
      <point x="746" y="245"/>
      <point x="630" y="73"/>
      <point x="467" y="-30"/>
      <point x="366" y="-30" type="qcurve" name="ab01"/>
      <point x="307" y="-30"/>
      <point x="209" y="15"/>
      <point x="135" y="92"/>
      <point x="86" y="193"/>
      <point x="74" y="250" type="qcurve"/>
      <point x="667" y="706" type="line"/>
      <point x="662" y="737"/>
      <point x="635" y="806"/>
      <point x="590" y="864"/>
      <point x="525" y="902"/>
      <point x="482" y="902" type="qcurve" name="sv01"/>
      <point x="444" y="902"/>
      <point x="377" y="869"/>
      <point x="321" y="822"/>
      <point x="279" y="768"/>
      <point x="266" y="747" type="qcurve" name="iv01"/>
    </contour>
    <contour>
      <point x="196" y="243" type="line"/>
      <point x="204" y="210"/>
      <point x="238" y="148"/>
      <point x="284" y="101"/>
      <point x="341" y="72"/>
      <point x="372" y="72" type="qcurve" name="sv02"/>
      <point x="421" y="72"/>
      <point x="505" y="119"/>
      <point x="573" y="198"/>
      <point x="626" y="303"/>
      <point x="661" y="418"/>
      <point x="679" y="537"/>
      <point x="679" y="591" type="qcurve" name="dh01"/>
      <point x="679" y="597"/>
      <point x="679" y="608"/>
      <point x="678" y="613" type="qcurve" name="iv02"/>
    </contour>
  </outline>
</glyph>
<glyph name="uni025B" format="2">
  <advance width="648"/>
  <unicode hex="025B"/>
  <guideline x="500" y="0" angle="100"/>
  <outline>
    <contour>
      <point x="474" y="589" type="line" name="hr00"/>
      <point x="461" y="487" type="line"/>
      <point x="386" y="487" type="line"/>
      <point x="347" y="487"/>
      <point x="284" y="437"/>
      <point x="239" y="360"/>
      <point x="215" y="266"/>
      <point x="215" y="223" type="qcurve" name="sh02"/>
      <point x="215" y="187"/>
      <point x="235" y="131"/>
      <point x="268" y="92"/>
      <point x="311" y="72"/>
      <point x="334" y="72" type="qcurve" name="sh04"/>
      <point x="357" y="72"/>
      <point x="410" y="95"/>
      <point x="464" y="136"/>
      <point x="513" y="193"/>
      <point x="533" y="227" type="qcurve" name="iv01"/>
      <point x="609" y="125" type="line"/>
      <point x="544" y="47"/>
      <point x="407" y="-30"/>
      <point x="321" y="-30" type="qcurve" name="sh05"/>
      <point x="276" y="-30"/>
      <point x="196" y="4"/>
      <point x="135" y="67"/>
      <point x="100" y="156"/>
      <point x="100" y="210" type="qcurve" name="sh01"/>
      <point x="100" y="279"/>
      <point x="137" y="388"/>
      <point x="200" y="470"/>
      <point x="282" y="529"/>
      <point x="326" y="548" type="qcurve" name="sh06"/>
      <point x="327" y="558" type="line"/>
      <point x="304" y="571"/>
      <point x="263" y="606"/>
      <point x="233" y="651"/>
      <point x="216" y="707"/>
      <point x="216" y="741" type="qcurve" name="ah01"/>
      <point x="216" y="808"/>
      <point x="258" y="907"/>
      <point x="326" y="972"/>
      <point x="412" y="1004"/>
      <point x="455" y="1004" type="qcurve" name="at01"/>
      <point x="491" y="1004"/>
      <point x="563" y="980"/>
      <point x="629" y="938"/>
      <point x="686" y="882"/>
      <point x="705" y="849" type="qcurve"/>
      <point x="629" y="747" type="line" name="iv02"/>
      <point x="614" y="777"/>
      <point x="577" y="833"/>
      <point x="530" y="876"/>
      <point x="475" y="902"/>
      <point x="442" y="902" type="qcurve" name="sv01"/>
      <point x="415" y="902"/>
      <point x="371" y="874"/>
      <point x="339" y="827"/>
      <point x="322" y="766"/>
      <point x="322" y="733" type="qcurve" name="sh03"/>
      <point x="322" y="698"/>
      <point x="341" y="645"/>
      <point x="371" y="608"/>
      <point x="409" y="589"/>
      <point x="428" y="589" type="qcurve"/>
    </contour>
  </outline>
</glyph>
<glyph name="latn:dotlessjstroke" format="2">
  <advance width="432"/>
  <unicode hex="025F"/>
  <guideline x="0" y="493" angle="356.79"/>
  <guideline x="332" y="0" angle="80"/>
  <guideline x="24" y="0" angle="90"/>
  <outline>
    <contour>
      <point x="107" y="589" type="line" name="hr00"/>
      <point x="233" y="589" type="line"/>
      <point x="284" y="974" type="line"/>
      <point x="387" y="1004" type="line" name="at01"/>
      <point x="410" y="1004" type="line"/>
      <point x="354" y="589" type="line"/>
      <point x="491" y="589" type="line"/>
      <point x="473" y="457" type="line"/>
      <point x="338" y="470" type="line"/>
      <point x="266" y="-78" type="line"/>
      <point x="251" y="-196"/>
      <point x="193" y="-354"/>
      <point x="112" y="-450"/>
      <point x="8" y="-490"/>
      <point x="-54" y="-490" type="qcurve" name="ab01"/>
      <point x="-41" y="-388" type="line"/>
      <point x="-2" y="-388"/>
      <point x="50" y="-363"/>
      <point x="93" y="-310"/>
      <point x="126" y="-220"/>
      <point x="135" y="-153" type="qcurve"/>
      <point x="218" y="477" type="line"/>
      <point x="92" y="487" type="line"/>
    </contour>
  </outline>
</glyph>
<glyph name="latn:gamma" format="2">
  <advance width="768"/>
  <unicode hex="0263"/>
  <guideline x="338" y="0" angle="112"/>
  <guideline x="478" y="0" angle="112"/>
  <guideline x="338" y="0" angle="68"/>
  <guideline x="431" y="0" angle="68"/>
  <outline>
    <contour>
      <point x="303" y="1004" type="line" name="sh01"/>
      <point x="434" y="230" type="line"/>
      <point x="442" y="230" type="line"/>
      <point x="775" y="1004" type="line" name="at01"/>
      <point x="853" y="974" type="line"/>
      <point x="460" y="70" type="line"/>
      <point x="472" y="-1"/>
      <point x="488" y="-105"/>
      <point x="500" y="-182"/>
      <point x="505" y="-235"/>
      <point x="505" y="-254" type="qcurve" name="dh04"/>
      <point x="505" y="-304"/>
      <point x="477" y="-390"/>
      <point x="429" y="-453"/>
      <point x="365" y="-490"/>
      <point x="329" y="-490" type="qcurve" name="ab01"/>
      <point x="302" y="-490"/>
      <point x="263" y="-467"/>
      <point x="238" y="-427"/>
      <point x="227" y="-374"/>
      <point x="227" y="-344" type="qcurve" name="dh01"/>
      <point x="227" y="-298"/>
      <point x="249" y="-206"/>
      <point x="283" y="-118"/>
      <point x="322" y="-36"/>
      <point x="338" y="0" type="qcurve"/>
      <point x="168" y="974" type="line"/>
    </contour>
    <contour>
      <point x="367" y="-135" type="qcurve" name="ih01"/>
      <point x="356" y="-158"/>
      <point x="334" y="-207"/>
      <point x="315" y="-258"/>
      <point x="303" y="-310"/>
      <point x="303" y="-337" type="qcurve" name="dh02"/>
      <point x="303" y="-357"/>
      <point x="317" y="-388"/>
      <point x="333" y="-388" type="qcurve" name="sv01"/>
      <point x="349" y="-388"/>
      <point x="368" y="-364"/>
      <point x="380" y="-330"/>
      <point x="383" y="-291"/>
      <point x="383" y="-276" type="qcurve" name="dh03"/>
      <point x="383" y="-217"/>
    </contour>
  </outline>
</glyph>
<glyph name="latn:ramshorn" format="2">
  <advance width="768"/>
  <unicode hex="0264"/>
  <guideline x="0" y="659" angle="0"/>
  <outline>
    <contour>
      <point x="500" y="690" type="qcurve" name="ih01"/>
      <point x="545" y="791"/>
      <point x="627" y="915"/>
      <point x="707" y="982"/>
      <point x="792" y="1004"/>
      <point x="841" y="1004" type="qcurve" name="at01"/>
      <point x="827" y="902" type="line" name="sv01"/>
      <point x="798" y="902"/>
      <point x="740" y="884"/>
      <point x="679" y="831"/>
      <point x="616" y="735"/>
      <point x="581" y="658" type="qcurve"/>
      <point x="524" y="530" type="line"/>
      <point x="536" y="457"/>
      <point x="554" y="351"/>
      <point x="563" y="274"/>
      <point x="568" y="221"/>
      <point x="568" y="202" type="qcurve" name="dh04"/>
      <point x="568" y="152"/>
      <point x="539" y="68"/>
      <point x="492" y="5"/>
      <point x="428" y="-30"/>
      <point x="394" y="-30" type="qcurve" name="ab01"/>
      <point x="365" y="-30"/>
      <point x="326" y="-7"/>
      <point x="302" y="34"/>
      <point x="291" y="87"/>
      <point x="291" y="117" type="qcurve" name="dh01"/>
      <point x="291" y="163"/>
      <point x="314" y="256"/>
      <point x="347" y="343"/>
      <point x="386" y="424"/>
      <point x="403" y="460" type="qcurve"/>
      <point x="367" y="659" type="line"/>
      <point x="353" y="736"/>
      <point x="318" y="831"/>
      <point x="271" y="884"/>
      <point x="209" y="902"/>
      <point x="166" y="902" type="qcurve" name="sv02"/>
      <point x="179" y="1004" type="line" name="at02"/>
      <point x="237" y="1004"/>
      <point x="335" y="991"/>
      <point x="416" y="930"/>
      <point x="478" y="803"/>
    </contour>
    <contour>
      <point x="431" y="325" type="qcurve" name="ih02"/>
      <point x="407" y="277"/>
      <point x="368" y="170"/>
      <point x="368" y="123" type="qcurve" name="dh02"/>
      <point x="368" y="103"/>
      <point x="382" y="72"/>
      <point x="398" y="72" type="qcurve" name="sv03"/>
      <point x="413" y="72"/>
      <point x="433" y="95"/>
      <point x="443" y="130"/>
      <point x="446" y="168"/>
      <point x="446" y="183" type="qcurve" name="dh03"/>
      <point x="446" y="212"/>
      <point x="440" y="282"/>
    </contour>
  </outline>
</glyph>
<glyph name="uni0266" format="2">
  <advance width="840"/>
  <unicode hex="0266"/>
  <guideline x="398" y="0" angle="90"/>
  <guideline x="384" y="0" angle="90"/>
  <outline>
    <contour>
      <point x="574" y="1464" type="qcurve" name="at01"/>
      <point x="560" y="1362" type="line" name="sv01"/>
      <point x="518" y="1362"/>
      <point x="457" y="1326"/>
      <point x="416" y="1263"/>
      <point x="391" y="1177"/>
      <point x="384" y="1126" type="qcurve"/>
      <point x="346" y="837" type="line"/>
      <point x="353" y="837" type="line"/>
      <point x="412" y="916" name="hr00"/>
      <point x="542" y="1004"/>
      <point x="622" y="1004" type="qcurve" name="at02"/>
      <point x="668" y="1004"/>
      <point x="742" y="972"/>
      <point x="794" y="911"/>
      <point x="824" y="821" name="hr01"/>
      <point x="824" y="764" type="qcurve" name="sh01"/>
      <point x="824" y="733"/>
      <point x="819" y="697" type="qcurve" name="sh02"/>
      <point x="753" y="196" type="line" name="sh03"/>
      <point x="749" y="163"/>
      <point x="749" y="140" type="qcurve" name="dh02"/>
      <point x="749" y="104"/>
      <point x="771" y="72"/>
      <point x="795" y="72" type="qcurve"/>
      <point x="782" y="-30" type="line" name="ab01"/>
      <point x="739" y="-30"/>
      <point x="681" y="-4"/>
      <point x="645" y="43"/>
      <point x="630" y="109"/>
      <point x="630" y="149" type="qcurve" name="dh01"/>
      <point x="630" y="181"/>
      <point x="636" y="227" type="qcurve" name="sh04"/>
      <point x="698" y="697" type="line" name="sh05"/>
      <point x="701" y="717"/>
      <point x="701" y="745" type="qcurve" name="ih01"/>
      <point x="701" y="817"/>
      <point x="640" y="902"/>
      <point x="584" y="902" type="qcurve" name="sv02"/>
      <point x="546" y="902"/>
      <point x="475" y="869"/>
      <point x="410" y="812"/>
      <point x="352" y="738"/>
      <point x="327" y="696" type="qcurve"/>
      <point x="236" y="0" type="line" name="ab02"/>
      <point x="114" y="0" type="line"/>
      <point x="253" y="1051" type="line"/>
      <point x="269" y="1169"/>
      <point x="326" y="1328"/>
      <point x="407" y="1424"/>
      <point x="512" y="1464"/>
    </contour>
  </outline>
</glyph>
